<svg width="251" height="244" viewBox="0 0 251 244" fill="none" xmlns="http://www.w3.org/2000/svg">
<path d="M140.596 88.3996C140.481 88.5046 140.371 88.6168 140.268 88.7356C139.834 89.1136 139.189 89.4216 138.953 89.1696C138.837 88.9644 138.748 88.7429 138.69 88.5116C138.381 87.4564 138.021 86.419 137.611 85.4036C137.587 85.3646 137.549 85.3376 137.506 85.3284C137.463 85.3192 137.418 85.3286 137.381 85.3546C137.345 85.3806 137.319 85.421 137.311 85.467C137.302 85.5129 137.311 85.5606 137.335 85.5996C137.575 87.0169 138.018 88.3863 138.65 89.6596C138.857 89.787 139.089 89.8599 139.328 89.8722C139.567 89.8845 139.805 89.8359 140.022 89.7304C140.24 89.625 140.43 89.4657 140.578 89.2658C140.726 89.066 140.827 88.8314 140.873 88.5816C140.873 88.3996 140.767 88.3016 140.596 88.3996ZM144.555 89.4216C144.633 92.2216 143.24 93.4116 140.859 93.1036C140.82 93.1036 140.782 93.1182 140.751 93.1449C140.72 93.1715 140.699 93.2087 140.692 93.2499C140.684 93.2912 140.69 93.334 140.708 93.3712C140.727 93.4083 140.757 93.4374 140.794 93.4536C141.339 93.6637 141.928 93.7093 142.495 93.5852C143.063 93.4612 143.588 93.1724 144.011 92.7508C144.434 92.3291 144.74 91.7911 144.894 91.1961C145.048 90.6012 145.044 89.9725 144.883 89.3796C144.869 89.342 144.844 89.3103 144.812 89.2896C144.779 89.2688 144.741 89.2601 144.704 89.2649C144.666 89.2698 144.631 89.2878 144.604 89.3161C144.577 89.3445 144.56 89.3816 144.555 89.4216ZM142.069 80.1956C141.78 80.2796 141.688 80.8536 141.885 81.4836C142.082 82.1136 142.451 82.5476 142.753 82.4636C143.055 82.3796 143.121 81.8056 142.937 81.1756C142.753 80.5456 142.358 80.1116 142.069 80.1956ZM143.424 77.8716C143.516 77.9556 143.66 77.8716 143.581 77.7316C142.266 75.8416 140.215 76.4576 140.07 78.3196C140.07 78.4316 140.228 78.4736 140.268 78.3196C140.807 76.7516 142.135 76.5276 143.424 77.8716ZM132.89 83.8916C132.601 84.0176 132.588 84.6056 132.89 85.1936C133.193 85.7816 133.587 86.1736 133.877 86.0476C134.166 85.9216 134.166 85.3476 133.877 84.7596C133.587 84.1716 133.167 83.7796 132.89 83.8916ZM130.839 82.7996C130.839 82.7996 130.918 82.7996 130.957 82.7156C130.982 82.4648 131.056 82.2222 131.173 82.0032C131.291 81.7842 131.45 81.5937 131.64 81.4436C131.831 81.2935 132.048 81.1872 132.279 81.1315C132.511 81.0757 132.75 81.0717 132.983 81.1196C133.693 80.9796 131.575 80.0836 130.892 81.8196C130.76 81.9596 130.642 82.6736 130.839 82.7996Z" fill="black"/>
<path d="M108.84 142.496C108.84 143.569 109.237 144.598 109.945 145.357C110.653 146.115 111.613 146.542 112.614 146.542C113.615 146.542 114.575 146.115 115.282 145.357C115.99 144.598 116.388 143.569 116.388 142.496C116.388 141.423 115.99 140.393 115.282 139.635C114.575 138.876 113.615 138.45 112.614 138.45C111.613 138.45 110.653 138.876 109.945 139.635C109.237 140.393 108.84 141.423 108.84 142.496Z" fill="black"/>
<path d="M191.356 157.826C194.841 156.426 213.711 154.648 234.093 156.678C234.123 156.668 234.149 156.648 234.167 156.622C234.185 156.595 234.195 156.563 234.195 156.531C234.195 156.498 234.185 156.466 234.167 156.439C234.149 156.413 234.123 156.393 234.093 156.384C214.368 154.102 195.327 155.74 191.224 157.56C191.208 157.569 191.193 157.581 191.182 157.597C191.17 157.612 191.161 157.629 191.155 157.648C191.15 157.667 191.148 157.687 191.15 157.706C191.151 157.726 191.157 157.745 191.165 157.763C191.174 157.78 191.186 157.796 191.2 157.808C191.214 157.821 191.231 157.83 191.248 157.836C191.266 157.842 191.285 157.844 191.303 157.842C191.322 157.84 191.339 157.835 191.356 157.826ZM232.502 162.6C232.532 162.59 232.557 162.57 232.576 162.544C232.594 162.517 232.604 162.485 232.604 162.453C232.604 162.42 232.594 162.388 232.576 162.361C232.557 162.335 232.532 162.315 232.502 162.306C213.658 160.024 197.431 160.906 191.067 162.306C191.032 162.306 190.998 162.32 190.974 162.347C190.949 162.373 190.935 162.408 190.935 162.446C190.935 162.483 190.949 162.518 190.974 162.545C190.998 162.571 191.032 162.586 191.067 162.586C197.102 161.466 213.737 160.64 232.502 162.6ZM232.016 168.34C219.983 166.842 204.243 165.904 192.276 166.94C192.247 166.949 192.221 166.969 192.203 166.995C192.185 167.022 192.175 167.054 192.175 167.087C192.175 167.119 192.185 167.151 192.203 167.178C192.221 167.204 192.247 167.224 192.276 167.234C205.524 166.709 218.79 167.177 231.976 168.634C232.008 168.629 232.037 168.614 232.059 168.591C232.082 168.567 232.097 168.536 232.101 168.503C232.106 168.469 232.1 168.435 232.084 168.406C232.069 168.376 232.045 168.353 232.016 168.34ZM243.851 163.65C243.851 163.454 243.614 163.412 243.575 163.65C242.325 170.3 238.183 175.606 236.829 169.908C236.578 168.342 236.578 166.742 236.829 165.176C238.144 156.286 244.719 154.074 241.812 164.196C240.182 170.104 237.683 169.642 239.419 162.922C240.182 160.122 240.866 160.024 240.576 159.814C240.565 159.799 240.551 159.787 240.535 159.779C240.519 159.771 240.502 159.767 240.484 159.767C240.467 159.767 240.449 159.771 240.433 159.779C240.417 159.787 240.403 159.799 240.392 159.814C239.804 160.724 239.359 161.732 239.077 162.796C238.63 164.462 237.881 168.858 239.419 168.732C241.378 168.62 243.838 160.57 242.417 157.756C240.997 154.942 237.236 158.61 236.303 165.064C234.764 175.718 242.01 175.2 243.851 163.65ZM225.756 215.59C225.756 217.802 227.426 219.566 230.293 219.79C236.46 220.238 236.368 216.36 236.75 209.612C236.842 207.974 236.934 205.93 236.947 204.292C233.567 203.515 230.131 203.047 226.677 202.892C226.65 203.2 225.441 212.496 225.756 215.59Z" fill="black"/>
<path d="M241.221 186.176C241.142 182.508 241.089 178.784 238.762 176.082C240.45 175.429 241.854 174.139 242.707 172.456C243.846 170.458 244.652 168.265 245.087 165.974C245.968 161.578 245.784 154.34 241.97 153.374C240.813 153.122 238.17 152.8 235.329 152.52V0.969822L234.909 0.185822H3.8894V175.928H28.7955V178.728C21.8523 179.512 4.8362 182.998 0.983246 189.144C0.647061 189.752 0.504092 190.459 0.575596 191.16C0.527077 192.21 0.769437 193.251 1.27255 194.156C1.8643 194.842 2.58755 194.772 3.37655 194.8C3.56065 195.822 4.0472 198.272 4.3891 199.364C4.45509 199.787 4.66117 200.17 4.96997 200.445C5.27877 200.72 5.66985 200.868 6.0723 200.862L11.3323 201.1C11.6216 206.588 12.0687 212.048 12.6473 217.494C13.3532 223.434 14.3673 229.327 15.6849 235.148C15.7948 235.525 16.007 235.859 16.2948 236.108C16.5826 236.357 16.9332 236.51 17.3024 236.548C25.7841 237.206 25.8367 237.206 26.7704 236.548C27.2175 236.268 37.7638 223.024 37.9873 222.058C38.1057 221.568 39.013 203.858 39.1182 202.262V202.178L133.917 206.042C134.363 217.389 135.763 228.672 138.098 239.754C138.17 240.287 138.406 240.779 138.769 241.154C139.162 241.509 139.661 241.703 140.176 241.7L147.961 241.98C148.484 242.086 149.025 242.043 149.528 241.856C150.031 241.67 150.479 241.345 150.828 240.916C160.033 227.896 160.585 227.532 160.743 227.168C161.019 226.51 162.281 207.4 162.294 207.092C162.61 207.092 166.594 207.274 166.91 207.176C167.115 207.132 167.306 207.033 167.465 206.889C167.624 206.744 167.745 206.559 167.817 206.35C169.474 204.656 170.955 202.779 172.236 200.75C173.222 195.92 173.196 196.186 173.077 195.752C173.023 195.553 172.927 195.369 172.797 195.214C172.668 195.059 172.507 194.937 172.328 194.856C171.799 194.687 171.248 194.616 170.697 194.646C175.563 189.046 177.351 184.706 177.943 177.118H188.621C186.135 182.494 183.361 190.194 184.794 195.108C185.412 195.234 193.854 197.194 200.824 197.992L201.113 195.108C201.14 194.857 201.258 194.628 201.443 194.471C201.628 194.313 201.864 194.24 202.099 194.268L207.359 194.898C207.592 194.926 207.805 195.05 207.953 195.244C208.1 195.438 208.171 195.686 208.148 195.934L207.925 198.664C212.706 198.995 217.503 198.995 222.285 198.664C223.166 192.448 225.23 178.28 229.399 173.674C229.517 173.534 229.977 173.814 229.806 174.08C229.372 174.724 225.704 177.216 222.666 207.946C221.732 217.326 220.036 234.98 227.071 240.44C227.808 241.014 227.374 241.476 226.624 240.958C219.023 235.722 220.312 217.354 221.233 207.666C221.482 204.936 221.732 202.654 222.101 199.924C217.36 200.288 212.6 200.288 207.859 199.924L207.583 202.892C207.572 203.022 207.536 203.148 207.478 203.262C207.419 203.377 207.34 203.478 207.244 203.559C207.148 203.64 207.038 203.7 206.92 203.734C206.802 203.769 206.679 203.777 206.557 203.76L201.153 202.92C200.923 202.882 200.717 202.752 200.575 202.556C200.433 202.361 200.367 202.115 200.39 201.87L200.627 199.196C195.269 198.619 189.959 197.618 184.741 196.2C184.255 198.3 178.719 222.688 183.098 234.294C186.464 243.198 213.974 244.486 225.704 243.66C227.861 243.496 229.942 242.743 231.746 241.472C233.549 240.202 235.015 238.457 236 236.408C241.023 244.486 244.548 240.734 247.664 237.388C248.388 235.903 248.919 234.321 249.242 232.684C252.148 218.684 249.886 197.6 241.221 186.176ZM205.032 209.346C203.901 211.208 200.14 209.346 200.14 209.346C201.968 209.094 201.626 204.432 201.626 204.432L205.939 205.16C206.022 206.626 205.688 208.085 204.979 209.346H205.032ZM244.719 165.946C244.279 168.178 243.483 170.314 242.365 172.26C241.431 173.772 240.077 175.48 238.42 175.746C237.548 174.896 236.524 174.243 235.408 173.828C233.594 170.384 233.791 162.768 237.013 157.252C241.641 149.272 246.796 155.6 244.666 165.89L244.719 165.946ZM169.764 103.66H206.11C217.564 107.748 228.82 110.828 234.369 112.34V121.44H187.135C183.216 109.204 174.59 105.34 169.698 103.604L169.764 103.66ZM82.2634 195.178L78.8707 196.928C78.9759 196.55 78.8707 196.536 78.4893 192.728C80.7668 190.327 83.3311 188.256 86.1164 186.568C84.3017 188.43 82.4738 191.048 82.2897 193.022C82.2182 193.738 82.2094 194.46 82.2634 195.178ZM88.2466 185.378C90.8748 186.485 93.5899 187.343 96.3602 187.94C107.63 190.362 134.193 189.704 134.193 188.822V188.486C139.216 188.626 145.62 193.12 149.802 193.12C152.774 193.12 152.971 190.474 151.932 187.52C156.134 186.475 160.157 184.742 163.859 182.382C166.998 182.263 170.141 182.394 173.261 182.774C173.261 182.998 173.117 183.236 173.038 183.46C171.473 187.968 165.398 195.458 161.466 195.752C161.098 195.752 82.934 192.672 82.8946 192.672C83.4206 190.264 86.261 186.806 88.2466 185.392V185.378ZM40.2491 119.508C43.7339 113.866 54.4906 113.6 63.0118 113.6C73.9332 113.601 84.8464 114.236 95.7027 115.504C103.514 116.694 104 116.904 105.789 125.836L90.8109 126.186C90.3204 126.198 89.8391 126.33 89.4036 126.571C88.9682 126.812 88.5902 127.155 88.2984 127.575C88.0067 127.995 87.8089 128.481 87.7202 128.994C87.6314 129.508 87.6541 130.037 87.7864 130.54L88.9962 135.272C81.071 134.086 73.0896 133.376 65.0895 133.144C57.8833 132.836 47.6657 132.64 40.6042 134.25C40.5589 134.259 40.5188 134.287 40.4929 134.328C40.4671 134.369 40.4574 134.419 40.4661 134.467C40.4748 134.515 40.5012 134.558 40.5394 134.585C40.5777 134.613 40.6246 134.623 40.6699 134.614C47.4422 133.214 58.1857 133.536 65.0632 133.872C71.0728 134.152 83.0918 134.88 89.1408 135.818L92.5336 148.964C84.1701 147.564 75.6621 151.652 73.1373 160.164C65.7733 159.618 47.3896 157.224 35.8965 159.632C35.8808 159.635 35.8658 159.642 35.8526 159.651C35.8393 159.661 35.8281 159.673 35.8195 159.688C35.8109 159.702 35.8051 159.718 35.8025 159.735C35.7999 159.752 35.8006 159.769 35.8044 159.786C35.8044 160.108 36.1726 159.66 40.5779 159.38C49.8881 158.764 64.2479 160.108 72.9663 160.78C70.9018 168.942 74.1499 176.04 80.8564 181.136C63.7592 179.388 46.5888 178.58 29.4135 178.714C29.2641 167.122 30.229 155.544 32.2934 144.162C34.5815 132.234 38.7106 122 40.2491 119.508ZM82.5527 41.8358C102.698 36.5018 129.472 32.3158 161.663 28.3258C161.663 56.8018 161.558 76.4158 161.663 95.8618C154.115 80.2098 157.205 58.4818 140.728 59.4618C138.735 59.5669 136.783 60.1026 134.99 61.0362C133.197 61.9698 131.602 63.2819 130.3 64.8927C128.999 66.5035 128.019 68.3793 127.42 70.4059C126.821 72.4326 126.615 74.5679 126.816 76.6818C126.895 77.7178 126.973 78.6838 127.092 79.5938C125.461 82.0858 126.132 86.3978 128.736 89.1278C129.596 93.0675 129.663 97.1565 128.933 101.126C127.618 101.616 126.5 102.148 125.356 102.722C110.694 102.722 98.7403 102.722 82.5658 101.728C82.5921 84.7878 82.5921 61.6458 82.5527 41.8358ZM81.698 101.672C67.233 100.706 30.597 97.6818 20.0902 86.8318C18.7418 85.5875 17.6914 84.019 17.0259 82.2563C16.3605 80.4936 16.0991 78.5875 16.2635 76.6958C16.8421 71.8658 20.9581 68.0018 24.7453 65.2438C30.3998 65.2438 53.0835 65.2438 58.7906 65.1458C79.5545 64.5998 74.1236 58.5238 79.5808 42.6338L81.6716 42.0598C81.6453 61.9118 81.6322 84.5078 81.698 101.672ZM172.564 80.7698C172.367 75.9958 179.139 73.2098 183.505 71.9778C198.68 67.6938 218.866 66.1258 234.369 66.2378V102.498C221.647 99.3899 209.263 94.8809 197.418 89.0438C193.373 87.1889 189.466 85.0128 185.728 82.5338C185.682 82.5105 185.631 82.5051 185.582 82.5187C185.534 82.5323 185.491 82.5639 185.463 82.6078C185.434 82.6518 185.421 82.7052 185.426 82.7584C185.432 82.8116 185.454 82.861 185.491 82.8978C189.154 85.5607 193.042 87.8571 197.102 89.7578C209.007 95.7303 221.509 100.248 234.369 103.226V111.626C223.1 108.378 173.156 94.5878 172.564 80.7698ZM234.369 65.4958C218.774 65.3838 198.549 66.8958 183.321 71.2638C178.548 72.6638 171.71 75.5478 171.854 80.7838C172.078 89.0718 188.003 96.9538 204.164 102.89H167.581C165.503 102.162 163.636 99.5578 162.478 97.5558C162.544 82.2538 162.544 75.0578 162.478 28.2558C206.176 24.5598 227.965 25.5958 234.369 25.4558V65.4958ZM167.659 141.096C155.364 139.962 148.894 144.176 138.729 145.618L140.912 155.656C138.44 157.182 135.863 158.89 133.404 160.542L99.5294 161.648C98.6976 161.669 97.8808 161.409 97.1959 160.907C96.511 160.404 95.993 159.683 95.7158 158.848C109.747 158.442 130.011 157.616 132.036 157.532C132.078 157.532 132.118 157.514 132.148 157.483C132.177 157.451 132.194 157.408 132.194 157.364C132.194 157.319 132.177 157.277 132.148 157.245C132.118 157.214 132.078 157.196 132.036 157.196C124.146 157.42 109.274 157.812 95.5843 158.344C89.4433 134.544 89.7326 135.748 89.7721 135.608C89.7752 135.56 89.7673 135.512 89.7489 135.468C89.7306 135.424 89.7024 135.385 89.6668 135.356L88.3518 130.33C88.2329 129.912 88.2074 129.47 88.2774 129.04C88.3474 128.61 88.511 128.203 88.755 127.852C88.9991 127.501 89.3169 127.216 89.683 127.019C90.0491 126.822 90.4533 126.719 90.8635 126.718L125.054 125.934C124.543 123.359 123.767 120.851 122.739 118.458C122.213 117.058 123.252 117.212 123.633 118.052C124.889 120.533 125.847 123.171 126.487 125.906L131.51 125.78C132.313 125.775 133.093 126.058 133.726 126.584C134.358 127.11 134.805 127.848 134.995 128.678L138.335 144.008C146.107 142.846 152.8 139.976 160.848 139.556C163.307 129.238 165.529 118.276 173.261 111.556C174.103 110.842 174.668 111.64 173.801 112.34C169.671 115.714 167.844 120.208 166.266 124.94C164.504 130.204 163.636 135.3 162.57 139.346C164.329 139.286 166.09 139.394 167.83 139.668C169.777 140.032 168.698 141.152 167.659 141.068V141.096ZM132.431 161.2C127.447 164.56 122.502 167.962 117.387 171C113.823 168.354 110.812 165.61 106.512 162.026L132.431 161.2ZM106.354 125.752C106.065 124.24 105.789 122.952 105.513 121.888H109.458C109.076 123.106 108.734 124.38 108.445 125.71L106.354 125.752ZM134.469 64.0538C134.123 66.3559 134.248 68.7103 134.837 70.9558C134.942 71.3478 135.442 70.6898 137.717 70.4518C140.468 70.2244 143.204 71.0582 145.425 72.801C147.646 74.5437 149.204 77.0791 149.815 79.9438L148.421 80.0978C147.842 75.3798 144.331 72.3978 141.281 73.1818C138.23 73.9658 136.284 78.0958 137.848 82.8278C137.314 82.8588 136.803 83.0696 136.389 83.4298C135.31 79.9998 132.076 77.1998 129.169 77.9978V76.2058C130.167 74.4711 131.554 73.0277 133.207 72.0058C133.235 71.991 133.259 71.9665 133.273 71.9361C133.287 71.9057 133.291 71.8712 133.285 71.8378C133.087 69.1796 133.493 66.5097 134.469 64.0538ZM140.4 103.254C140.143 101.841 139.76 100.458 139.256 99.1238C144.003 100.328 148.382 96.6738 150.394 91.7878C150.906 93.7058 152.655 98.8718 156.877 100.72C156.166 102.596 152.445 116.526 146.83 117.52C141.912 118.416 137.191 109.442 136.994 99.5858L138.427 98.8578H138.572C139.214 100.272 139.712 101.755 140.058 103.282C140.063 103.33 140.086 103.374 140.122 103.404C140.157 103.435 140.203 103.448 140.248 103.443C140.294 103.437 140.335 103.413 140.363 103.375C140.392 103.337 140.405 103.288 140.4 103.24V103.254ZM151.446 86.3278C150.828 86.0058 151.617 88.3718 149.565 92.4878C145.936 99.8378 137.296 102.288 132.089 91.0878C135.574 91.6478 137.572 88.1338 136.573 84.0878C136.766 83.8772 136.997 83.7103 137.253 83.5972C137.508 83.4841 137.782 83.4272 138.059 83.4298C138.54 84.6656 139.299 85.7569 140.268 86.6078C144.134 89.9398 148.829 86.6078 148.474 80.7278L149.933 80.5598C149.986 80.8585 150.025 81.1525 150.052 81.4418C150.052 81.6378 150.367 81.6518 150.446 81.4418C151.235 79.5378 152.866 79.2718 153.786 80.6718C155.443 83.1498 153.589 87.4338 151.446 86.3138V86.3278ZM141.399 73.7278C147.724 72.1038 150.749 85.5298 144.41 87.1538C143.742 87.3021 143.05 87.2818 142.39 87.0946C141.73 86.9074 141.121 86.5585 140.61 86.0758C136.612 82.6738 137.165 74.8478 141.399 73.7558V73.7278ZM134.416 90.0798C133.608 90.5347 132.666 90.64 131.786 90.3738C130.267 86.6392 129.377 82.649 129.156 78.5858C134.298 76.9058 139.085 87.3078 134.416 90.1078V90.0798ZM128.499 87.9518C127.672 86.9529 127.114 85.7353 126.883 84.4271C126.651 83.1188 126.755 81.7684 127.184 80.5178C127.552 83.4018 128.052 85.7678 128.499 87.9798V87.9518ZM124.08 103.352C117.217 107.08 112.017 113.547 109.615 121.342H105.381C103.935 116.092 102.159 115.742 95.7816 114.762C92.3495 114.23 87.5234 113.796 82.4738 113.46V102.358C95.6238 103.212 106.157 103.31 124.08 103.394V103.352ZM92.7439 149.748L95.0452 158.68C95.3003 159.693 95.8627 160.589 96.6451 161.227C97.4275 161.865 98.386 162.21 99.3715 162.208L105.434 162.012C115.77 170.58 120.07 175.116 133.575 180.38V188.458C123.594 188.962 106.354 189.172 96.4786 187.058C61.3549 179.12 70.8229 145.8 92.7439 149.748ZM134.193 187.898V181.696L137.559 181.528C138.348 184.58 138.322 186.848 137.559 188.458C136.462 188.13 135.332 187.942 134.193 187.898ZM141.11 187.758C141.459 186.708 141.693 185.618 141.807 184.51C141.807 184.342 142.241 184.412 142.241 184.608C142.303 185.778 142.052 186.943 141.517 187.968C141.425 188.122 141.057 187.912 141.11 187.8V187.758ZM143.595 188.626C143.924 187.506 144.042 186.4 144.292 185.378C144.292 185.21 144.673 185.308 144.686 185.476C144.806 186.65 144.552 187.834 143.963 188.836C143.911 188.962 143.542 188.794 143.595 188.626ZM146.08 189.494C146.433 188.445 146.663 187.354 146.764 186.246C146.764 186.064 147.159 186.12 147.146 186.246C147.192 187.419 146.942 188.584 146.422 189.62C146.33 189.816 146.001 189.648 146.08 189.494ZM164.832 181.752C168.777 179.106 172.525 175.508 174.327 170.818L174.616 170.636C174.654 174.528 174.252 178.41 173.419 182.2C170.57 181.836 167.701 181.686 164.832 181.752ZM151.682 186.834C151.282 185.914 150.735 185.075 150.065 184.356C156.916 180.786 164.609 174.654 169.119 168.158C169.141 168.111 169.146 168.058 169.135 168.008C169.124 167.957 169.096 167.912 169.058 167.881C169.019 167.849 168.971 167.833 168.922 167.835C168.873 167.837 168.827 167.857 168.79 167.892C163.474 174.577 156.873 179.971 149.434 183.712C147.385 181.999 144.894 180.993 142.293 180.828C139.595 180.753 136.894 180.846 134.206 181.108V180.24C134.202 180.18 134.182 180.122 134.15 180.073C134.117 180.024 134.073 179.985 134.022 179.96C128.333 177.85 122.927 174.96 117.939 171.364C132.654 162.558 148.105 149.832 158.047 148.964C168.291 148.334 174.971 155.964 174.787 165.33C174.445 181.038 151.893 186.61 151.669 186.834H151.682ZM234.369 1.31982V24.1118C214.644 24.3778 196.484 24.1118 162.478 27.4158C162.478 19.6178 162.478 11.1758 162.413 1.31982H234.369ZM161.716 1.20782V27.5418C133.509 30.2718 101.305 36.1518 82.6053 41.0518C82.6053 19.7018 82.5264 2.39782 82.5132 1.20782H161.716ZM4.731 1.03982H81.7637C81.7637 8.34782 81.7637 23.7478 81.6716 41.2898C75.9645 42.8018 69.9681 44.5658 63.5509 46.6798C60.5133 59.2798 60.8289 60.3298 58.9879 62.9478C78.2526 62.2478 72.5456 52.6998 76.8982 43.3478L79.0285 42.7598C73.4792 58.6778 78.897 63.8718 58.7775 64.4878C53.0835 64.6418 30.8469 64.7258 25.4422 64.7118C26.2575 64.1378 27.0991 63.5918 27.9539 63.0598C38.9473 63.1578 43.5103 63.0598 43.5629 63.0598C45.0226 60.3858 44.9437 57.8938 46.2587 53.0078C36.4093 57.5998 16.9342 65.4538 15.606 76.5978C15.4291 78.5999 15.7003 80.6181 16.3975 82.4871C17.0946 84.356 18.1979 86.0225 19.6168 87.3498C30.3472 98.3818 66.8779 101.35 81.698 102.344V113.46C74.8468 113.026 67.6406 112.788 62.946 112.788C54.964 112.788 43.3788 112.9 39.539 119.046C39.0966 119.797 38.7012 120.578 38.3555 121.384H4.731V1.03982ZM4.731 175.298V121.888H38.1846C30.6233 139.08 28.9796 156.23 28.7955 175.298H4.731ZM29.1505 179.288C46.7352 179.14 64.3149 179.981 81.8163 181.808C83.5731 183.046 85.4302 184.114 87.3656 185C83.7563 186.603 80.5889 189.156 78.1606 192.42L1.5224 189.368C4.58635 185.28 17.3155 180.716 29.0979 179.288H29.1505ZM6.13805 200.288C5.5726 200.288 5.2307 200.092 4.95455 199.196C4.6784 198.3 4.1787 195.892 3.9946 194.842L11.0956 195.122C11.0956 196.928 11.2139 198.72 11.306 200.526L6.13805 200.288ZM10.4512 194.52C1.9695 194.17 2.19305 194.324 1.71965 193.764C1.15471 192.533 1.01953 191.129 1.3383 189.802L78.1606 192.77C78.3052 194.044 78.4104 195.318 78.5288 196.578C78.541 196.665 78.5344 196.755 78.5095 196.839C78.4847 196.924 78.4423 197.001 78.3854 197.066C78.3285 197.131 78.2586 197.181 78.181 197.213C78.1033 197.244 78.02 197.257 77.9371 197.25L10.4512 194.52ZM26.5468 236.128C25.8893 236.562 25.9288 236.464 20.077 236.296C17.973 236.296 16.4871 236.478 16.132 235.05C14.9421 229.27 14.064 223.423 13.502 217.536C12.6639 210.093 12.0631 202.622 11.7005 195.136L23.2593 195.598C23.2593 202.276 23.7985 212.804 23.8774 213.798C24.3026 220.103 25.0445 226.379 26.0997 232.6C26.1014 232.628 26.1088 232.656 26.1214 232.681C26.134 232.706 26.1516 232.727 26.1728 232.744C26.1941 232.761 26.2186 232.773 26.2446 232.779C26.2706 232.785 26.2975 232.785 26.3234 232.779C26.3494 232.773 26.3738 232.761 26.395 232.744C26.4161 232.726 26.4336 232.705 26.446 232.68C26.4585 232.655 26.4658 232.627 26.4673 232.599C26.4688 232.57 26.4645 232.542 26.4548 232.516C26.1057 230.415 25.8075 228.305 25.5606 226.188C26.3759 225.096 28.8744 221.988 28.9796 221.806L37.2904 222.422C37.1457 222.66 26.9676 235.806 26.4942 236.114L26.5468 236.128ZM23.9168 201.632L29.6239 201.87C28.7429 224.41 29.0716 213.994 28.8481 220.994C28.8481 221.568 28.8481 221.638 25.4817 225.418C24.7979 220.098 24.1009 211.138 23.8905 201.618L23.9168 201.632ZM37.4613 221.82L29.0979 221.4C29.2163 221.008 29.0979 221.834 30.1499 201.8L38.5791 202.15C38.5791 202.15 37.5008 221.47 37.4613 221.82ZM23.8905 201.016C23.8905 200.68 23.8116 197.082 23.7985 195.626L77.8976 197.81C79.4251 197.265 80.9074 196.586 82.3291 195.78C82.5264 197.026 83.0393 198.034 84.1833 198.076L133.667 200.092C133.737 201.893 133.816 203.699 133.903 205.51L23.8905 201.016ZM150.486 240.748C149.815 241.7 149.079 241.672 147.948 241.616L140.189 241.224C139.815 241.215 139.457 241.055 139.19 240.776C138.909 240.474 138.733 240.079 138.69 239.656C136.06 227.812 134.745 212.37 134.259 200.106L145.699 200.582C145.699 211.922 146.514 226.916 148.684 237.682C148.677 237.711 148.675 237.741 148.681 237.771C148.686 237.801 148.698 237.829 148.715 237.853C148.732 237.877 148.754 237.896 148.78 237.909C148.805 237.923 148.833 237.93 148.862 237.93C148.89 237.93 148.918 237.923 148.943 237.909C148.969 237.896 148.991 237.877 149.008 237.853C149.025 237.829 149.037 237.801 149.042 237.771C149.048 237.741 149.047 237.711 149.039 237.682C148.763 235.778 148.5 233.874 148.263 231.97C149.733 230.353 151.125 228.657 152.432 226.888L160.111 227.308C160.046 227.42 160.822 226.034 150.486 240.748ZM146.541 206.616L153.024 206.854L152.156 225.978C152.143 226.253 152.041 226.516 151.866 226.72L148.224 231.116C147.267 222.985 146.705 214.808 146.541 206.616ZM160.388 226.65L152.629 226.454C152.734 226.118 152.629 227.434 153.602 206.854L161.781 207.148C161.781 207.148 160.414 226.454 160.374 226.65H160.388ZM167.397 206.294C167.337 206.415 167.255 206.523 167.156 206.609C167.056 206.696 166.941 206.76 166.818 206.798C166.608 206.868 146.554 206.028 146.527 206.028C146.527 204.222 146.449 202.416 146.435 200.61L161.545 201.212C162.647 201.259 163.74 200.993 164.714 200.442C165.003 200.442 163.649 200.316 167.581 200.596C167.776 200.616 167.958 200.706 168.099 200.851C168.24 200.996 168.331 201.187 168.356 201.394C168.115 203.045 167.791 204.68 167.383 206.294H167.397ZM172.144 195.472C172.25 195.524 172.345 195.6 172.422 195.694C172.499 195.788 172.557 195.898 172.591 196.018C172.67 196.298 171.907 200.064 171.775 200.722C170.662 202.447 169.418 204.072 168.054 205.58C168.384 204.199 168.625 202.796 168.777 201.38C168.733 201.076 168.595 200.796 168.386 200.583C168.177 200.37 167.908 200.237 167.62 200.204L165.306 200.106C167.046 198.632 168.694 197.037 170.237 195.332C172.038 195.416 171.946 195.388 172.131 195.472H172.144ZM165.411 199.224C164.335 200.185 162.961 200.684 161.558 200.624L84.2096 197.488C82.6973 197.488 82.7105 194.688 82.8946 193.106L160.664 196.326C165.621 196.564 172.025 188.192 173.603 183.726C174.918 179.722 175.142 174.584 175.234 170.314C176.099 169.729 176.929 169.089 177.719 168.396C177.68 183.6 176.523 189.396 165.398 199.224H165.411ZM178.035 176.474C178.193 173.982 178.245 171.168 178.232 167.85C186.964 159.856 189.199 147.158 189.199 136.014C189.276 131.228 188.636 126.46 187.306 121.888H234.501V152.436C231.095 152.086 227.597 151.792 226.19 151.68C226.19 151.68 202.389 150.518 193.315 153.08C185.609 155.25 185.583 167.5 191.75 171.574C190.686 173.098 189.774 174.735 189.028 176.46L178.035 176.474ZM192.013 171.294C186.162 167.346 186.201 155.67 193.407 153.654C199.982 151.82 217.077 151.722 223.981 152.044L240.195 153.514C235.316 155.376 231.937 167.514 234.685 173.548C233.492 173.183 232.274 172.921 231.042 172.764C227.939 172.316 194.591 169.18 192 171.294H192.013ZM230.214 221.092C226.808 220.854 224.77 218.432 224.678 215.758C224.349 212.048 225.69 201.898 225.822 201.674C226.326 201.643 226.831 201.643 227.334 201.674L228.307 188.066C230.267 187.982 232.371 189.242 234.593 189.284L233.62 202.43L234.935 202.668L235.566 192.868C236.105 192.868 236.947 193.092 237.144 193.624L236.526 202.822C238.328 203.228 238.104 202.332 237.841 208.982C237.433 216.584 237.433 221.596 230.201 221.092H230.214ZM246.481 218.908C246.557 223.2 246.209 227.489 245.442 231.704C243.89 238.914 241.286 238.62 237.749 232.292C239.002 228.326 239.762 224.203 240.011 220.028C240.248 217.228 241.05 203.368 241.168 192.336C245.166 200.568 246.546 209.668 246.481 218.908Z" fill="black"/>
<path d="M202.388 195.766L201.731 201.436C201.723 201.533 201.749 201.63 201.805 201.708C201.861 201.786 201.942 201.838 202.033 201.856L206.346 202.472C206.377 202.477 206.409 202.476 206.44 202.469C206.471 202.461 206.5 202.447 206.525 202.427C206.551 202.408 206.573 202.383 206.589 202.355C206.606 202.326 206.617 202.295 206.622 202.262C206.628 202.229 206.627 202.195 206.619 202.162C206.612 202.129 206.599 202.098 206.581 202.071C206.563 202.044 206.539 202.021 206.513 202.003C206.486 201.985 206.456 201.973 206.425 201.968L202.48 201.156L202.704 195.794C202.707 195.749 202.694 195.705 202.667 195.671C202.64 195.637 202.601 195.615 202.559 195.612C202.517 195.608 202.476 195.622 202.444 195.651C202.412 195.68 202.392 195.721 202.388 195.766ZM119.267 56.1996C120.009 55.4106 120.557 54.4386 120.861 53.37C121.165 52.3014 121.216 51.1694 121.01 50.0745C120.804 48.9797 120.347 47.956 119.68 47.0945C119.013 46.233 118.156 45.5604 117.186 45.1365C116.216 44.7125 115.162 44.5504 114.119 44.6646C113.076 44.7787 112.075 45.1656 111.206 45.7907C110.337 46.4159 109.627 47.2599 109.138 48.2479C108.649 49.2359 108.398 50.3371 108.405 51.4536C108.42 52.7863 108.803 54.0847 109.507 55.1872C110.21 56.2896 111.203 57.1473 112.361 57.6533C113.519 58.1593 114.791 58.2913 116.019 58.0328C117.247 57.7743 118.377 57.1367 119.267 56.1996ZM119.03 46.8476C119.726 47.5919 120.238 48.507 120.523 49.5121C120.808 50.5172 120.856 51.5815 120.663 52.611C120.47 53.6406 120.042 54.6038 119.417 55.4157C118.792 56.2276 117.989 56.8632 117.078 57.2666C116.168 57.6699 115.178 57.8285 114.197 57.7285C113.215 57.6284 112.272 57.2727 111.45 56.6928C110.628 56.1128 109.953 55.3265 109.483 54.403C109.014 53.4796 108.766 52.4474 108.76 51.3976C108.776 50.1382 109.139 48.9115 109.804 47.8699C110.469 46.8283 111.407 46.0177 112.501 45.539C113.595 45.0602 114.797 44.9342 115.958 45.1769C117.119 45.4195 118.187 46.0199 119.03 46.9036V46.8476Z" fill="black"/>
<path d="M114.757 56.1996C115.491 56.1969 116.213 56.0018 116.859 55.6315C117.506 55.2612 118.057 54.7271 118.464 54.0763C118.87 53.4256 119.12 52.6783 119.191 51.9003C119.262 51.1224 119.152 50.3378 118.871 49.6158C118.59 48.8939 118.146 48.2568 117.578 47.7608C117.011 47.2648 116.338 46.9252 115.618 46.772C114.898 46.6188 114.154 46.6566 113.451 46.8822C112.748 47.1078 112.108 47.5143 111.587 48.0656C110.952 48.7286 110.518 49.5787 110.341 50.5066C110.163 51.4345 110.251 52.3976 110.591 53.2723C110.932 54.1469 111.511 54.8931 112.253 55.4147C112.995 55.9364 113.867 56.2097 114.757 56.1996ZM118.61 49.8156L114.757 55.8076C114.108 55.7931 113.47 55.6258 112.889 55.3176L117.505 48.1356C118 48.5938 118.379 49.176 118.61 49.8296V49.8156ZM114.27 47.0156C114.951 46.9237 115.643 47.0151 116.282 47.2816L111.745 54.2816C111.281 53.7479 110.95 53.0977 110.785 52.3916L114.27 47.0156ZM154.838 56.1996C155.564 55.4042 156.096 54.4312 156.387 53.3658C156.677 52.3005 156.718 51.1755 156.505 50.0896C156.292 49.0037 155.831 47.9901 155.164 47.1379C154.497 46.2857 153.644 45.6209 152.679 45.2018C151.714 44.7828 150.667 44.6224 149.631 44.7346C148.594 44.8469 147.599 45.2285 146.733 45.8457C145.867 46.463 145.157 47.2972 144.665 48.275C144.173 49.2527 143.914 50.3442 143.91 51.4536C143.919 52.7976 144.301 54.1089 145.009 55.2219C145.716 56.3349 146.718 57.1998 147.887 57.7075C149.056 58.2152 150.34 58.3429 151.577 58.0745C152.814 57.8062 153.949 57.1537 154.838 56.1996ZM150.327 44.9996C151.515 44.9968 152.677 45.369 153.667 46.0691C154.656 46.7692 155.429 47.7658 155.886 48.9331C156.344 50.1003 156.466 51.3857 156.238 52.6269C156.01 53.8682 155.441 55.0095 154.604 55.9068C153.766 56.8041 152.698 57.417 151.534 57.6682C150.369 57.9193 149.161 57.7974 148.062 57.3179C146.963 56.8383 146.021 56.0227 145.357 54.9739C144.693 53.9252 144.336 52.6904 144.331 51.4256C144.327 50.5842 144.48 49.7504 144.78 48.9718C145.079 48.1933 145.52 47.4853 146.077 46.8884C146.634 46.2915 147.296 45.8174 148.026 45.4933C148.755 45.1692 149.537 45.0014 150.327 44.9996Z" fill="black"/>
<path d="M153.484 54.7996C154.272 53.8977 154.701 52.7056 154.68 51.474C154.66 50.2424 154.192 49.0672 153.375 48.1952C152.558 47.3233 151.455 46.8227 150.298 46.7985C149.141 46.7743 148.021 47.2285 147.172 48.0656C142.924 52.5176 149.315 59.3076 153.484 54.7996ZM154.181 49.8156L150.328 55.8076C149.679 55.7917 149.042 55.6245 148.46 55.3176L153.116 48.1496C153.598 48.6051 153.964 49.183 154.181 49.8296V49.8156ZM149.854 47.0156C150.535 46.9161 151.229 47.0078 151.866 47.2816L147.316 54.2816C146.856 53.7445 146.527 53.0956 146.356 52.3916L149.854 47.0156ZM181.401 46.6516C180.651 47.4373 180.094 48.4086 179.782 49.4789C179.469 50.5492 179.411 51.6852 179.611 52.7855C179.811 53.8858 180.264 54.9162 180.93 55.7847C181.595 56.6533 182.452 57.3331 183.424 57.7633C184.396 58.1936 185.453 58.361 186.501 58.2506C187.548 58.1402 188.554 57.7554 189.428 57.1306C190.302 56.5058 191.017 55.6604 191.509 54.6699C192.002 53.6793 192.256 52.5743 192.25 51.4536C192.214 50.1332 191.82 48.8522 191.116 47.7643C190.412 46.6764 189.429 45.8279 188.283 45.3208C187.137 44.8137 185.878 44.6695 184.658 44.9056C183.437 45.1417 182.306 45.7479 181.401 46.6516ZM179.915 51.4536C179.877 50.5891 180.004 49.7255 180.289 48.9148C180.573 48.1042 181.009 47.3634 181.571 46.7374C182.132 46.1113 182.806 45.6129 183.554 45.2724C184.301 44.9319 185.105 44.7564 185.918 44.7564C186.731 44.7564 187.536 44.9319 188.283 45.2724C189.03 45.6129 189.705 46.1113 190.266 46.7374C190.827 47.3634 191.263 48.1042 191.548 48.9148C191.832 49.7255 191.959 50.5891 191.921 51.4536C191.895 59.8816 179.942 59.7276 179.915 51.4536Z" fill="black"/>
<path d="M182.743 48.0795C181.906 48.9775 181.434 50.1889 181.428 51.4535C181.428 52.5543 181.787 53.6209 182.443 54.4717C183.099 55.3224 184.012 55.9048 185.026 56.1196C186.04 56.3345 187.093 56.1685 188.005 55.6499C188.917 55.1313 189.632 54.2922 190.028 53.2755C190.424 52.2587 190.478 51.1272 190.178 50.0735C189.879 49.0198 189.246 48.1091 188.387 47.4965C187.528 46.8838 186.496 46.6071 185.467 46.7134C184.438 46.8197 183.475 47.3025 182.743 48.0795ZM181.927 52.5035L185.425 47.0855C186.106 46.9942 186.798 47.0856 187.437 47.3515L182.887 54.3515C182.433 53.8264 182.103 53.1926 181.927 52.5035ZM185.872 55.8215C185.224 55.8048 184.587 55.6376 184.005 55.3315L188.621 48.1495C189.114 48.6037 189.493 49.181 189.725 49.8295L185.872 55.8215ZM225.993 56.1995C226.876 55.2491 227.476 54.0416 227.716 52.7292C227.957 51.4167 227.827 50.0578 227.343 48.8237C226.86 47.5897 226.044 46.5355 224.999 45.794C223.953 45.0526 222.725 44.6569 221.469 44.6569C220.213 44.6569 218.985 45.0526 217.94 45.794C216.895 46.5355 216.079 47.5897 215.596 48.8237C215.112 50.0578 214.982 51.4167 215.222 52.7292C215.463 54.0416 216.062 55.2491 216.946 56.1995C217.539 56.8328 218.244 57.3352 219.021 57.678C219.797 58.0208 220.629 58.1972 221.469 58.1972C222.31 58.1972 223.142 58.0208 223.918 57.678C224.694 57.3352 225.399 56.8328 225.993 56.1995ZM221.496 44.9995C222.481 44.9975 223.452 45.2541 224.322 45.7465C225.192 46.2389 225.935 46.952 226.484 47.8227C227.034 48.6934 227.373 49.6949 227.473 50.7386C227.572 51.7823 227.429 52.836 227.055 53.8066C226.681 54.7772 226.088 55.6346 225.329 56.3032C224.569 56.9717 223.667 57.4308 222.701 57.6397C221.736 57.8486 220.736 57.8009 219.792 57.5009C218.848 57.2008 217.988 56.6577 217.288 55.9195C216.444 55.0299 215.867 53.8936 215.631 52.6547C215.394 51.4158 215.509 50.13 215.959 48.9604C216.41 47.7908 217.177 46.79 218.163 46.0848C219.148 45.3797 220.308 45.0019 221.496 44.9995Z" fill="black"/>
<path d="M224.639 54.7996C225.154 54.2439 225.532 53.5618 225.742 52.8135C225.951 52.0652 225.984 51.2735 225.838 50.5084C225.692 49.7433 225.371 49.0282 224.904 48.426C224.437 47.8239 223.839 47.3533 223.161 47.0556C222.483 46.758 221.746 46.6425 221.017 46.7192C220.287 46.796 219.586 47.0627 218.976 47.4959C218.366 47.929 217.865 48.5153 217.518 49.203C217.171 49.8908 216.988 50.6589 216.985 51.4396C216.989 52.3822 217.254 53.3026 217.747 54.0849C218.241 54.8672 218.941 55.4764 219.76 55.8357C220.578 56.195 221.478 56.2884 222.347 56.104C223.215 55.9196 224.012 55.4658 224.639 54.7996ZM225.336 49.8156L221.496 55.8216C220.846 55.814 220.207 55.6462 219.628 55.3316L224.257 48.1496C224.737 48.6104 225.107 49.1863 225.336 49.8296V49.8156ZM220.996 47.0156C221.677 46.9255 222.368 47.0169 223.008 47.2816L218.471 54.2816C218.002 53.7491 217.668 53.099 217.498 52.3916L220.996 47.0156ZM87.5367 86.6496C87.6377 87.6851 87.9186 88.6915 88.3651 89.6176C91.337 95.8336 100.2 95.3296 103.593 92.0816C106.986 88.8336 106.223 84.9696 106.223 83.6816V65.4816C106.127 64.4496 105.845 63.4468 105.394 62.5276C102.764 56.9276 97.5044 57.8936 95.5056 57.8516C93.5334 57.8194 91.6213 58.5748 90.1463 59.969C88.6713 61.3631 87.7402 63.2949 87.5367 65.3836C87.4709 66.4336 87.4709 85.8936 87.5367 86.6496ZM87.9969 65.4956C88.1958 63.5206 89.0771 61.6948 90.4695 60.3728C91.8619 59.0508 93.6662 58.3268 95.5319 58.3416C98.0041 58.3416 102.646 57.7116 105.079 62.7656C105.462 63.6444 105.672 64.5972 105.697 65.5656C105.802 66.7696 105.789 80.1816 105.697 83.6676C105.697 85.9916 106.17 89.2676 103.304 91.8576C99.5821 95.3996 88.6807 95.0636 88.0101 86.5936C87.9443 85.8796 87.9049 66.4756 87.9969 65.4956ZM57.2259 63.0036C59.9743 59.4756 59.2116 54.8556 61.9205 47.2256C56.1476 49.1296 51.4005 50.9496 47.7053 52.5036C46.8243 56.7036 45.9038 61.2256 44.8912 63.0736C49.2965 63.0596 52.8075 63.1996 57.2259 63.0036Z" fill="black"/>
</svg>
