<svg width="156" height="144" viewBox="0 0 156 144" fill="none" xmlns="http://www.w3.org/2000/svg">
<path d="M141.608 36.8423C141.523 36.3023 141.46 36.1223 140.727 35.8127C137.662 34.6391 126.18 34.4735 122.865 34.4375C122.877 33.8493 122.729 33.2677 122.436 32.7455C121.196 31.5863 113.263 31.7231 111.578 31.4063C111.422 31.4063 111.438 31.4063 111.399 31.2767C111.001 30.3767 110.9 27.3599 110.252 26.3087C109.043 24.3359 104.457 23.2055 101.626 25.0703C100.165 24.6639 98.604 24.684 97.1562 25.1279C96.3757 25.4211 95.6739 25.8681 95.1 26.4377C94.526 27.0073 94.0938 27.6857 93.8334 28.4255C93.3926 29.7862 93.1538 31.1959 93.1236 32.6159C91.6806 33.0551 84.1614 33.5735 83.2956 34.6103C83.0819 34.9128 82.941 35.254 82.8822 35.6111C77.5782 35.9783 78.1476 36.0431 78.0852 35.8703C76.104 30.1751 68.967 24.4799 68.967 24.4799C68.8032 24.3431 68.6394 24.4799 68.2806 24.6239C67.8726 23.5538 67.35 22.5239 66.7206 21.5495C66.7356 21.3092 66.6474 21.0732 66.4751 20.8926C66.3028 20.712 66.0603 20.6013 65.8002 20.5847C66.5022 19.8143 65.3322 18.5831 63.7254 19.5983C63.4524 19.2311 63.1638 18.8783 62.8674 18.4895C63.0439 18.3855 63.204 18.2595 63.3432 18.1151C63.507 17.8415 62.5632 18.1151 68.1714 17.1431C69.2088 16.9487 73.7874 16.0919 74.4114 15.9047C74.4821 15.8967 74.5478 15.8667 74.5974 15.8195C74.6471 15.7724 74.6778 15.711 74.6844 15.6455C75.7764 15.0911 74.5596 12.0959 74.0916 11.0303C76.0338 9.29507 75.6516 7.43027 74.0058 6.89027C73.2473 6.67597 72.4426 6.6413 71.6658 6.78947C70.928 5.61306 69.9252 4.59656 68.7252 3.80867C67.8438 3.36227 67.1652 3.63587 66.9624 4.06067C66.7596 4.48547 59.256 12.7007 59.1624 12.7511C57.7428 13.1255 55.6446 13.9463 54.9504 15.1487C53.3436 17.9639 56.4636 21.4199 59.5056 20.3255L60.0594 20.1599C60.387 20.5991 60.7926 21.0959 61.1514 21.5351C61.0832 21.6503 61.0258 21.7708 60.9798 21.8951C60.894 22.1543 60.3246 22.8455 60.699 23.5367C61.0734 24.2279 63.663 25.9127 64.443 26.3663L64.2792 26.4455C64.225 26.4663 64.1817 26.5057 64.1585 26.5554C64.1352 26.6051 64.1337 26.6612 64.1544 26.7119C64.6068 27.9359 67.0482 33.7967 65.8626 33.5663C64.131 33.2207 59.8488 31.6727 54.6384 30.1031C51.7758 29.2391 49.857 28.4039 47.3064 27.8567C47.1192 26.7263 46.9086 26.3663 46.7214 25.4519C47.5634 25.1206 48.2762 24.5605 48.765 23.8463C49.0458 23.4143 48.7182 23.5871 49.311 23.6951C49.5034 23.748 49.7105 23.7304 49.8892 23.6459C50.0679 23.5614 50.2045 23.4165 50.2704 23.2415C50.9724 23.4647 51.6432 23.0975 51.4872 22.3415C51.9864 22.3415 52.9068 22.3415 53.0472 21.5423C53.2578 20.5775 51.963 20.2391 51.6354 19.8791C51.0454 19.2025 50.6198 18.4167 50.3874 17.5751C49.6074 15.2711 48.999 11.3831 47.6262 9.90707C47.1965 9.46833 46.6681 9.12154 46.078 8.89095C45.4879 8.66037 44.8504 8.55155 44.21 8.57213C43.5696 8.5927 42.9418 8.74216 42.3705 9.01005C41.7992 9.27795 41.2983 9.65781 40.9026 10.1231C40.4062 9.86354 39.8838 9.64894 39.3426 9.48227C38.6794 9.38239 38.001 9.41015 37.35 9.56379C36.699 9.71742 36.0895 9.99363 35.5596 10.3751C33.0012 12.3839 34.3194 15.8399 32.5956 19.5479C32.0574 20.6999 29.3742 23.1839 31.3398 24.1271C31.5427 24.1848 31.7587 24.1905 31.9648 24.1436C32.1709 24.0967 32.3593 23.9989 32.5098 23.8607C32.529 24.0469 32.5873 24.2278 32.6814 24.3935C32.9153 24.652 33.2182 24.8497 33.5602 24.9671C33.9021 25.0845 34.2714 25.1176 34.6314 25.0631C34.8547 24.9949 35.0558 24.8761 35.2164 24.7175C35.2687 24.867 35.3629 25.0011 35.4894 25.1063C36.129 25.5743 36.909 25.5311 37.5798 24.5951C37.6841 24.731 37.8285 24.8365 37.9957 24.899C38.163 24.9616 38.3462 24.9785 38.5236 24.9479V27.3311C38.0946 27.3815 37.6656 27.4319 37.2366 27.5039C37.2006 27.4973 37.1634 27.4973 37.1274 27.5039C32.4207 28.1417 28.0096 30.0077 24.4134 32.8823C20.8122 35.7096 17.8604 39.1736 15.732 43.0703C13.8522 46.8863 14.055 48.2975 14.7024 50.9903C15.1009 52.5389 15.8654 53.987 16.941 55.2311C18.1266 56.7143 19.9596 58.4999 22.6116 61.1423C23.2434 61.7687 24.039 62.5823 24.7098 63.2015C24.351 64.7135 21.816 73.8503 21.9642 75.7007C21.9642 75.8879 22.1514 76.1111 22.557 76.2695C23.8855 76.6357 25.2587 76.8461 26.6442 76.8959C26.184 92.1815 27.3618 112.233 28.8204 127.116C28.7608 127.135 28.7073 127.167 28.6644 127.209C28.4147 127.844 28.4147 128.54 28.6644 129.175C28.7658 129.369 28.9608 129.355 29.4444 129.391C29.4444 130.313 29.5302 131.378 29.5926 132.307C29.4177 132.433 29.2605 132.578 29.1246 132.739C29.07 132.854 29.0622 132.818 29.4132 134.705C29.1723 135.316 28.9871 135.944 28.8594 136.584C28.7867 137.061 28.7424 137.542 28.7268 138.024C28.7251 138.282 28.8125 138.534 28.9764 138.744C29.9639 139.456 31.0704 140.015 32.2524 140.4C33.5724 140.206 34.8192 139.711 35.8794 138.96C36.0111 138.851 36.1119 138.714 36.173 138.561C36.2342 138.408 36.2539 138.243 36.2304 138.081C36.183 136.903 35.9653 135.736 35.583 134.611C35.7389 133.995 35.8226 133.365 35.8326 132.732C35.7858 132.595 35.7 132.53 35.2788 132.278C35.3802 131.385 35.4738 130.377 35.544 129.492H36.519C37.1352 129.456 36.948 128.462 36.9792 127.67C36.9792 127.389 36.6828 127.289 36.402 127.231L43.7964 83.2391C44.3346 85.9751 45.606 92.8151 45.5982 95.6087C45.5982 96.2855 43.7184 118.605 43.2582 124.452C43.1841 124.468 43.1164 124.503 43.0632 124.553C42.7864 125.168 42.7291 125.849 42.8994 126.497C42.9852 126.713 43.2036 126.713 43.5312 126.763C43.4142 127.771 43.305 128.851 43.2192 129.895C42.9072 129.895 42.8136 129.967 42.7122 130.233C42.408 131.04 42.096 133.898 42.642 134.69C43.0086 135.216 55.3716 137.397 58.6476 136.065C59.3028 135.792 59.2716 135.173 59.1624 134.517C58.9752 133.337 53.7024 131.717 52.1424 131.011C51.9942 130.939 52.0254 130.961 51.963 130.853C51.183 129.542 50.9646 128.988 50.7384 128.887C50.5129 128.827 50.2756 128.815 50.0442 128.851C49.9896 128.354 49.935 127.872 49.8726 127.325C50.0026 127.346 50.1364 127.328 50.2548 127.274C50.5824 127.058 50.5512 126.151 50.6292 125.546C50.6385 125.464 50.6134 125.382 50.559 125.316C50.1378 124.747 49.779 127.137 53.9832 113.58C53.8428 115.092 52.6884 127.188 53.094 127.785C53.211 127.937 53.4372 127.944 53.718 127.965C58.8894 128.448 124.573 130.687 130.088 130.745C131.032 130.745 133.988 130.802 134.269 130.629C136.889 129.161 142.739 44.4095 141.608 36.8423ZM83.4594 34.7471C84.2394 33.7751 92.5464 33.3431 93.3498 32.9183C93.394 32.8999 93.4319 32.8708 93.4594 32.834C93.4869 32.7972 93.5029 32.7541 93.5058 32.7095C93.5438 31.3097 93.7905 29.9215 94.239 28.5839C94.4883 27.9026 94.8971 27.2805 95.4363 26.7615C95.9756 26.2426 96.632 25.8397 97.359 25.5815C99.4728 24.8615 103.069 25.4951 104.106 27.2231C104.753 28.2815 104.769 31.9463 105.432 32.4575C106.095 32.9687 115.299 32.7959 116.352 33.7895C116.416 33.9076 116.461 34.0337 116.485 34.1639C116.725 35.7342 116.706 37.329 116.43 38.8943C114.301 39.6791 88.1784 40.7591 84.0912 40.3343C83.514 40.2767 83.4672 40.3343 83.3112 39.8015C82.929 38.6855 82.773 35.5967 83.4594 34.7471ZM63.351 21.4775C63.4056 21.0599 63.2028 21.2543 63.6396 21.3407C63.5776 21.4417 63.543 21.555 63.5387 21.671C63.5344 21.7871 63.5606 21.9023 63.615 22.007C63.6694 22.1116 63.7504 22.2026 63.8511 22.2721C63.9518 22.3417 64.0693 22.3877 64.1934 22.4063C64.1199 22.5015 64.0754 22.6131 64.0644 22.7296C64.0534 22.8461 64.0764 22.9632 64.131 23.0687C64.3182 23.4287 64.5834 23.4791 64.9812 23.5223C64.8264 23.6845 64.6085 23.7839 64.3748 23.7987C64.1412 23.8135 63.9106 23.7427 63.7332 23.6015C63.663 23.5367 63.3198 23.1479 62.8674 22.6295C63.0971 22.2731 63.2606 21.8837 63.351 21.4775ZM66.1356 21.2039C66.1901 21.2321 66.2378 21.2703 66.2758 21.316C66.3138 21.3618 66.3413 21.4143 66.3566 21.4702C66.372 21.5261 66.3748 21.5843 66.3649 21.6413C66.3551 21.6982 66.3328 21.7527 66.2994 21.8015C65.9625 21.7687 65.6219 21.7906 65.2932 21.8663C64.9422 21.9383 64.326 21.9887 64.1778 21.7727C63.9594 21.4271 65.5584 20.8367 66.1356 21.2039ZM64.4898 19.8143C65.34 19.4903 65.8236 20.0375 65.6754 20.3327C65.1298 20.6586 64.4922 20.8289 63.8424 20.8223C63.807 20.8217 63.7721 20.8143 63.7398 20.8007C63.7076 20.7871 63.6788 20.7675 63.6552 20.7431C63.4836 20.5919 63.6006 20.4335 63.7488 20.2895C63.9626 20.091 64.2137 19.9299 64.4898 19.8143ZM63.1248 17.6039C62.1654 16.3151 59.8332 13.4495 59.4588 12.8951L66.8922 4.97507C67.1574 7.13507 69.7158 11.0951 70.9872 12.8951C71.029 12.9437 71.0863 12.979 71.151 12.9959C71.8596 13.9751 72.7339 14.8429 73.7406 15.5663C73.1322 15.6383 65.3244 17.2007 63.1248 17.6039ZM73.8108 7.39427C74.0078 7.45754 74.1886 7.55772 74.3417 7.68854C74.4948 7.81936 74.6169 7.97799 74.7004 8.15446C74.7839 8.33093 74.827 8.52143 74.8269 8.714C74.8268 8.90658 74.7836 9.09705 74.7 9.27347C74.2788 10.3463 73.14 11.1527 72.1104 11.8295C71.8296 12.0239 71.5566 12.2039 71.3304 12.3407C70.2785 10.9592 69.3249 9.51617 68.4756 8.02067C70.0668 7.58147 72.36 6.84707 73.8108 7.39427ZM59.334 19.8359C56.799 20.7503 54.186 17.7767 55.434 15.3791C55.9878 14.2991 58.0002 13.4063 59.2248 13.0031C59.5446 13.5431 62.2434 17.2799 62.7036 17.9495C61.6541 18.6842 60.5249 19.3164 59.334 19.8359ZM60.4962 19.9151C61.1748 19.5623 61.9782 19.0871 62.61 18.6767C62.8674 19.0583 63.1326 19.4759 63.39 19.8575C63.2533 19.9552 63.1448 20.0826 63.074 20.2282C63.0033 20.3739 62.9725 20.5334 62.9844 20.6927C62.7713 20.5893 62.5289 20.549 62.2902 20.5775C61.9752 20.6362 61.6963 20.8036 61.5102 21.0455L60.4962 19.9151ZM63.1794 25.0127C61.4712 23.6375 61.3152 23.7455 61.1514 23.3279C60.9876 22.9103 61.4556 22.2983 61.557 22.0391C61.7286 21.5783 62.2746 20.8799 62.727 21.1751C63.0312 21.3695 62.6022 22.4927 62.493 22.7231C62.4506 22.7837 62.4165 22.849 62.3916 22.9175C62.6803 23.2899 62.9901 23.648 63.3198 23.9903C63.5025 24.1387 63.7203 24.2455 63.9557 24.3023C64.1912 24.3591 64.4378 24.3643 64.6758 24.3174C64.9138 24.2706 65.1366 24.1729 65.3264 24.0324C65.5162 23.8918 65.6678 23.7122 65.769 23.5079L66.1434 23.4359C66.1743 23.4291 66.2016 23.4123 66.2202 23.3885C66.2388 23.3647 66.2475 23.3355 66.2448 23.3063C66.2448 23.1191 65.7924 23.3063 65.184 23.1047C64.9188 23.0327 64.7472 23.0111 64.6848 22.8599C64.5444 22.5503 65.7768 22.2983 66.159 22.3055C66.2613 22.2943 66.3649 22.3018 66.464 22.3278C66.563 22.3537 66.6556 22.3975 66.7362 22.4567C66.8142 22.5215 67.9296 24.4295 68.0778 24.7463L64.7394 26.1863C64.2948 25.9199 63.7098 25.4591 63.1794 25.0127ZM65.7768 33.9119C65.8556 33.935 65.9387 33.9432 66.0211 33.9361C66.1034 33.9289 66.1834 33.9066 66.2562 33.8703C66.329 33.834 66.3931 33.7845 66.4448 33.7249C66.4964 33.6652 66.5345 33.5966 66.5568 33.5231C66.9468 32.4431 65.4258 28.7567 64.6848 26.7335L68.7642 24.9623C69.708 25.7471 75.7842 30.8951 77.5236 36.0359C78.522 38.9159 78.1398 41.7959 74.5908 43.8767C71.8635 45.3916 68.6933 46.0861 65.5194 45.8639C62.3421 45.6783 59.227 44.9661 56.3232 43.7615C56.4402 42.2135 56.4012 38.7647 56.6898 36.8999C56.6925 36.8702 56.6834 36.8406 56.6641 36.8166C56.6448 36.7927 56.6168 36.7761 56.5852 36.7699C56.5536 36.7637 56.5206 36.7684 56.4925 36.783C56.4644 36.7977 56.443 36.8213 56.4324 36.8495C56.2083 37.4763 56.0413 38.1194 55.9332 38.7719C55.723 40.4716 55.6968 42.1865 55.8552 43.8911C55.7928 44.0063 55.6992 43.4015 56.8614 53.5751C56.8614 53.6975 61.2138 71.2511 61.0968 73.6199C59.5368 74.3975 50.5746 75.2615 48.6168 75.2975C48.0006 73.9079 44.6154 64.4975 44.085 62.9999C47.205 48.7223 44.6388 58.1759 49.155 49.4999C50.7366 46.4486 52.1476 43.3245 53.3826 40.1399C53.6821 39.4062 53.9219 38.6529 54.1002 37.8863C54.1626 37.7567 54.2484 37.6199 54.1002 37.4687L52.1034 34.9847C54.225 30.0383 54.1548 30.3047 54.147 30.1823C59.178 31.7735 64.014 33.5447 65.7768 33.9119ZM56.5104 44.5031C58.2014 45.1651 59.96 45.6692 61.7598 46.0079C61.0968 50.1623 60.3324 55.7783 59.529 62.1359C56.877 50.5007 57.8364 56.6999 56.5104 44.5031ZM32.4942 119.822C32.2602 125.373 32.4942 125.129 32.2368 125.136C32.2029 125.136 32.1703 125.124 32.1457 125.103C32.121 125.081 32.1062 125.052 32.1042 125.021C31.8 118.728 32.619 106.79 34.2492 77.1263H34.5456C34.023 88.2503 32.5488 118.461 32.4942 119.822ZM37.7124 35.5103C35.7838 33.4975 34.0089 31.3636 32.4006 29.1239C33.8863 28.6085 35.426 28.2369 36.9948 28.0151C37.5096 29.1095 39.0696 33.1343 39.5064 34.2719L37.728 35.5319L37.7124 35.5103ZM38.6406 27.8999C40.1382 29.3399 43.2582 31.9823 45.4344 32.1695C45.2082 32.5079 43.7808 34.6463 43.5 34.9559C42.6654 34.7039 39.2022 30.8735 38.5938 30.2111C38.352 29.6135 37.9464 28.5911 37.6812 28.0079L38.6406 27.8999ZM35.8326 39.0743V39.0023C35.8326 38.9735 37.4394 36.3815 37.5954 36.1223C37.6656 35.9999 37.4238 36.2015 39.6234 34.5383C43.3206 44.2151 43.1958 45.1799 45.0834 51.6599C34.6938 37.5551 35.8794 39.0023 35.8326 39.0743ZM44.2332 34.5095C44.3858 35.0235 44.5922 35.5227 44.8494 35.9999C45.0054 36.1583 44.553 37.6919 43.812 44.5823C42.4743 40.1197 40.8941 35.7222 39.0774 31.4063C39.7014 32.0327 42.4782 34.8479 43.3284 35.1503C43.3813 35.1817 43.4435 35.1972 43.5064 35.1946C43.5692 35.192 43.6297 35.1715 43.6794 35.1359C43.7652 35.0495 43.968 34.7975 44.2176 34.4735L44.2332 34.5095ZM46.2066 53.1287C47.244 48.8087 49.4748 38.4695 49.7166 34.0847L51.5886 35.2223C53.8194 38.1023 53.6166 37.7711 53.601 37.9007C53.3124 39.4343 48.1878 50.6735 46.191 53.0927L46.2066 53.1287ZM51.4794 34.7543L49.7556 33.7751C49.9558 32.2697 50.0704 30.7556 50.0988 29.2391C51.183 29.5775 52.3062 29.9591 53.3592 30.3839C53.172 30.7943 51.8304 33.9263 51.4794 34.7543ZM48.4218 38.8799C48.1884 37.854 47.8809 36.8438 47.5014 35.8559C47.5404 35.6975 47.7042 34.9991 47.8056 34.5599C47.9856 34.7461 48.1757 34.924 48.375 35.0927C48.57 35.2511 48.726 35.3447 48.9366 35.2511C48.7728 36.4607 48.609 37.6127 48.4218 38.8799ZM49.4358 29.0303C49.4277 30.7155 49.3078 32.3986 49.077 34.0703C48.9366 34.3295 48.8196 34.5383 48.7338 34.6751C47.8209 33.8697 46.9564 33.0188 46.1442 32.1263C47.5248 31.7735 47.5404 29.7935 47.4 28.4687C48.1098 28.6271 48.7884 28.7999 49.4358 29.0015V29.0303ZM39.9042 23.9903C39.951 23.8679 39.9042 23.9039 40.0212 23.9255C40.4955 23.9717 40.9731 23.8718 41.3794 23.6413C41.7858 23.4107 42.0981 23.0626 42.2676 22.6511C42.4434 21.9425 42.3919 21.2019 42.1194 20.5199C42.0026 20.1976 41.9113 19.868 41.8464 19.5335C41.4564 18.0935 40.5048 16.6895 40.9416 15.2783C41.047 14.8944 41.3106 14.5636 41.6763 14.3565C42.042 14.1494 42.4809 14.0823 42.8994 14.1695C43.1121 14.2403 43.3182 14.327 43.5156 14.4287C44.1786 14.7455 44.6544 14.9759 44.9664 14.6879C44.9664 14.6879 45.9102 13.8311 46.8072 14.0543C47.166 14.1839 48.0084 15.8327 48.1956 16.7327C48.055 16.5594 47.849 16.4412 47.6184 16.4015C46.9788 16.3295 46.5342 16.8119 46.6278 16.9559C47.1497 17.0638 47.6951 17.0185 48.1878 16.8263C48.4553 18.1823 48.578 19.5593 48.5544 20.9375C48.1926 20.7206 47.7947 20.5601 47.3766 20.4623C47.0602 20.4524 46.7455 20.509 46.4562 20.6279C46.1454 20.5556 45.8247 20.5265 45.5046 20.5415C44.6076 20.6999 43.8666 21.5999 43.4142 21.9815C43.2114 22.1543 43.0632 22.6295 43.4142 22.8311C43.7652 23.0327 44.2722 22.6655 44.4282 22.4999C45.0715 21.9036 45.771 21.3615 46.5186 20.8799C47.1637 21.2734 47.8302 21.6362 48.5154 21.9671C48.4266 22.3184 48.3976 22.6803 48.4296 23.0399C48.2471 23.4632 47.9691 23.8459 47.6141 24.1625C47.2591 24.479 46.8351 24.7222 46.3704 24.8759C46.3092 24.8937 46.2525 24.9228 46.2037 24.9613C46.155 24.9999 46.1152 25.0472 46.0868 25.1003C46.0584 25.1535 46.0419 25.2114 46.0383 25.2706C46.0348 25.3297 46.0443 25.389 46.0662 25.4447C46.2222 26.3447 46.971 28.2239 46.7448 30.1175C46.6746 30.7079 46.4718 31.4495 45.8322 31.5143C43.9602 31.7087 40.4814 28.7351 39.1632 27.4823V24.7535C39.5136 24.5794 39.7786 24.2884 39.9042 23.9399V23.9903ZM38.9994 17.8559C39.1304 18.619 39.2163 19.3881 39.2568 20.1599C38.8122 20.3039 38.2194 19.7639 38.1102 19.3823C37.8606 18.5903 38.079 18.0863 38.9994 17.8559ZM22.6194 75.5999C22.5258 73.8791 24.8346 65.4263 25.2792 63.6695C25.4961 63.8846 25.7627 64.052 26.0592 64.1591C26.1267 64.1661 26.1949 64.154 26.2548 64.1244C26.3147 64.0948 26.3634 64.0492 26.3946 63.9935C26.4492 63.9215 26.6364 63.6479 26.9094 63.2735C27.1358 63.715 27.4538 64.1113 27.8454 64.4399C26.6832 65.3183 26.4336 65.2535 26.535 65.4263C26.55 65.4525 26.5754 65.4724 26.6059 65.4818C26.6365 65.4912 26.6697 65.4894 26.6988 65.4767C30.0216 64.1231 31.722 61.6679 31.917 58.2335C31.9195 58.2051 31.9105 58.1769 31.8917 58.1543C31.873 58.1317 31.8459 58.1163 31.8156 58.1111C31.5504 58.1111 31.7376 58.7015 30.8718 60.7031C30.4817 60.3446 30.0023 60.0801 29.4756 59.9327C29.5797 59.8069 29.6945 59.6889 29.8188 59.5799C29.9982 59.5367 30.0996 59.3711 29.9982 59.1335C29.7408 58.5071 28.1418 55.9511 27.7362 55.3103C27.7406 55.2696 27.7406 55.2286 27.7362 55.1879C27.783 54.1871 28.0404 52.4159 28.2822 50.5079C28.7487 46.7605 28.9649 42.9902 28.9296 39.2183C28.8725 38.1228 28.652 37.0398 28.2744 35.9999C28.2672 35.9693 28.2471 35.9427 28.2185 35.9258C28.19 35.9089 28.1554 35.9032 28.1223 35.9099C28.0892 35.9166 28.0603 35.9351 28.042 35.9614C28.0238 35.9878 28.0176 36.0197 28.0248 36.0503C28.2666 37.6343 28.3914 43.9127 28.3914 44.0567C27.666 45.0719 24.2262 49.3775 24.2418 50.0471C24.3236 50.45 24.4598 50.8419 24.6474 51.2135C24.6474 51.4007 24.1716 50.2343 27.3306 55.6487C27.744 56.3687 29.0154 58.5287 29.3508 59.2055C28.1367 60.5815 27.014 62.0241 25.989 63.5255C24.234 62.2295 18.969 56.7575 17.4714 54.8855C16.448 53.7084 15.7206 52.3361 15.342 50.8679C14.928 49.6293 14.8057 48.3233 14.9832 47.0375C15.7632 42.3935 20.8488 36.4319 24.8112 33.3575C26.995 31.6278 29.4721 30.2413 32.1432 29.2535C32.5878 29.9735 33.516 31.2119 34.4832 32.4935C37.3302 36.1583 37.3458 35.6039 37.1742 35.8775C36.753 36.5975 35.4738 38.4839 35.271 38.9087C35.1618 39.1463 34.257 38.0807 45.255 53.2151C44.904 54.9719 41.0508 74.6783 40.2474 76.3271C38.8902 76.8239 23.9688 76.6583 22.6194 75.5999ZM28.0092 64.3103C27.6917 63.8923 27.4543 63.4272 27.3072 62.9351C27.7259 62.1976 28.2195 61.4984 28.7814 60.8471C29.1168 60.4367 29.1012 60.3935 29.3274 60.4079C29.8348 60.474 30.3184 60.6491 30.7392 60.9191C30.1464 62.25 29.1993 63.4213 27.9858 64.3247L28.0092 64.3103ZM27.1512 54.3743C26.6754 53.6543 24.9282 50.6087 24.8814 50.0543C25.209 49.2479 26.9484 46.8143 28.4772 44.4815C28.2978 46.9727 27.4554 51.2207 27.1278 54.3887L27.1512 54.3743ZM35.544 138.081C35.5438 138.189 35.5281 138.295 35.4972 138.398C35.4833 138.425 35.4617 138.447 35.4348 138.463C34.6326 139.03 33.7264 139.46 32.7594 139.73C32.229 139.881 32.2212 139.896 31.059 139.399C30.4264 139.144 29.8139 138.848 29.226 138.513C29.0388 138.355 29.0154 137.837 29.0154 137.606C29.5541 138.06 30.1483 138.454 30.786 138.78C31.8936 139.334 32.6502 139.435 34.3428 138.708C34.7633 138.534 35.1654 138.324 35.544 138.081ZM34.8576 129.549C34.7874 130.349 34.7094 131.169 34.6314 131.904C33.9738 131.531 33.2883 131.201 32.58 130.917C31.9092 130.759 30.708 131.522 30.1464 131.904C30.084 131.342 30.0216 130.637 29.9046 129.413C30.786 129.456 31.8312 129.477 32.7126 129.485C35.0994 129.506 34.8732 129.441 34.8576 129.549ZM36.2694 128.829C36.1914 128.829 29.3196 128.937 29.0388 128.916C28.8146 128.41 28.7576 127.854 28.875 127.317C28.9821 127.291 29.0919 127.274 29.2026 127.267C31.5774 127.28 33.9486 127.439 36.3006 127.742C36.3203 128.122 36.3098 128.502 36.2694 128.88V128.829ZM49.1394 127.26C49.194 127.807 49.2408 128.376 49.2954 128.93C49.0292 128.972 48.768 129.037 48.5154 129.125C47.9148 129.42 48.4296 130.442 48.2346 130.673C47.5014 130.593 45.0132 129.953 43.695 129.873C43.7418 128.901 43.8042 127.713 43.8588 126.799C45.4032 127.001 47.6574 127.166 49.1394 127.26ZM58.4994 134.784C58.4994 135.072 58.5618 135.381 58.3278 135.504C55.6056 136.62 44.0226 134.892 42.8916 134.467C42.7837 134.239 42.7203 133.995 42.7044 133.747C47.01 134.417 55.0284 136.303 58.4994 134.784ZM49.779 126.72C49.701 126.72 43.4298 126.353 43.2114 126.317C43.1252 125.948 43.0885 125.571 43.1022 125.193C43.0936 125.027 43.1284 124.862 43.2036 124.711C44.1474 124.56 48.9522 125.431 49.9038 125.64C49.8841 126.002 49.8425 126.362 49.779 126.72ZM53.6322 95.7599C53.1408 97.9199 48.2814 119.988 47.4858 123.35C47.4752 123.378 47.4538 123.402 47.4257 123.417C47.3976 123.431 47.3646 123.436 47.333 123.43C47.3014 123.424 47.2734 123.407 47.2541 123.383C47.2348 123.359 47.2257 123.33 47.2284 123.3C47.868 120.254 52.4622 97.9559 52.9926 95.6303C53.2422 94.5431 51.144 77.5943 50.8944 75.7799H51.3078C52.4466 82.5767 53.874 94.6583 53.6322 95.7599ZM133.723 130.197C130.423 130.435 54.2328 127.483 53.5464 127.404C53.3826 125.51 54.5994 112.694 54.7788 110.801C56.0268 106.718 58.4058 98.7047 59.1078 94.4927C59.7162 90.8135 58.6476 82.5767 58.1172 78.8615C58.2732 77.5223 58.4214 76.1903 58.5774 74.8655C59.4769 74.7419 60.362 74.5418 61.2216 74.2679C61.4556 74.1671 61.6896 74.0303 61.713 73.7999C61.8612 72.5183 60.153 65.0735 59.8956 63.7847C60.7536 56.7719 61.6194 50.5871 62.2824 46.0799C66.627 46.7999 71.1588 46.5479 74.9184 44.3447C78.5376 42.2279 79.1226 39.3047 78.2568 36.3815C79.6998 36.2519 81.2208 36.1295 82.7964 36.0143C82.6248 37.1735 82.656 39.9743 83.319 40.4567C84.5748 41.3783 114.199 40.2911 116.648 39.3911C116.769 39.3524 116.871 39.276 116.937 39.1751C117.311 38.5127 117.28 35.7407 117.171 34.7039C119.597 34.7039 139.791 34.5599 141.234 36.3527C142.864 38.3831 136.273 129.967 133.723 130.161V130.197Z" fill="black"/>
<path d="M79.4112 77.2992C79.3254 76.8024 79.146 76.7088 78.8496 76.6296C77.2896 76.212 68.2338 75.7368 67.4694 76.212C66.705 76.6872 65.1996 82.2096 65.73 83.9232C65.7802 84.0221 65.8529 84.11 65.943 84.1808C66.0332 84.2516 66.1388 84.3037 66.2526 84.3336C68.1012 85.0536 77.0322 85.7232 77.9994 85.2192C78.9666 84.7152 79.6374 78.66 79.4112 77.2992ZM77.9994 84.1752C77.9345 84.3735 77.84 84.5625 77.7186 84.7368C77.0946 85.0608 67.3758 84.5784 66.2214 83.7792C65.6988 82.1736 67.0014 76.7952 67.6176 76.3992C68.2338 76.0032 77.82 76.7592 78.8184 77.1696C79.1382 78.372 78.4752 82.8 77.9994 84.1752ZM76.0884 90.4032C75.3084 89.8488 65.1684 89.4024 64.3884 89.8632C63.6084 90.324 62.1186 95.8176 62.649 97.5744C62.7004 97.6725 62.7735 97.7597 62.8635 97.8304C62.9534 97.901 63.0584 97.9536 63.1716 97.9848C65.0358 98.7048 72.7422 99.2448 74.544 98.9712C74.6618 98.967 74.777 98.9383 74.881 98.8872C74.985 98.8361 75.0752 98.7638 75.1446 98.676C75.9168 97.6896 76.9074 91.0152 76.0884 90.4032ZM74.6376 98.3808C73.998 98.712 64.3338 98.2296 63.1404 97.4232C62.6178 95.8176 63.9204 90.4392 64.5366 90.0432C65.1528 89.6472 74.8248 90.432 75.7296 90.8136C76.1196 92.16 75.1524 98.1144 74.6376 98.3808ZM74.2788 103.723C73.4988 103.176 63.3588 102.722 62.5788 103.183C61.7988 103.644 60.309 109.13 60.8394 110.88C60.8896 110.979 60.9622 111.067 61.0524 111.138C61.1426 111.208 61.2481 111.26 61.362 111.29C63.2262 112.01 70.9326 112.55 72.7344 112.277C72.8528 112.272 72.9685 112.242 73.0725 112.19C73.1766 112.137 73.2664 112.064 73.335 111.974C74.0994 111.024 75.1056 104.342 74.2788 103.723ZM73.101 111.146C73.101 111.233 72.906 111.665 72.8202 111.701C72.1806 112.032 62.5164 111.542 61.323 110.743C60.8082 109.145 62.103 103.766 62.7192 103.363C63.3354 102.96 72.9138 103.723 73.92 104.134C74.232 105.3 73.6314 109.627 73.101 111.146Z" fill="black"/>
<path d="M75.5037 78.6096C74.1075 79.8336 72.8673 81.252 71.9625 81.7848C71.6427 81.9792 71.4789 82.044 71.1825 81.9C70.6995 81.6184 70.2894 81.2424 69.9813 80.7984C69.9634 80.7777 69.9385 80.7634 69.9105 80.7577C69.8826 80.752 69.8534 80.7553 69.8278 80.7671C69.8022 80.7789 69.7818 80.7985 69.77 80.8225C69.7582 80.8466 69.7557 80.8736 69.7629 80.8992C70.0246 81.4755 70.4538 81.9738 71.0031 82.3392C71.2024 82.4345 71.4276 82.4737 71.6509 82.452C71.8741 82.4302 72.0855 82.3484 72.2589 82.2168C72.8954 81.8094 73.4699 81.3251 73.9671 80.7768C74.574 80.1338 75.1392 79.4582 75.6597 78.7536C75.6766 78.7461 75.6913 78.7351 75.7026 78.7213C75.7138 78.7075 75.7214 78.6914 75.7246 78.6744C75.7277 78.6574 75.7264 78.6399 75.7207 78.6234C75.7151 78.607 75.7052 78.592 75.692 78.5798C75.6787 78.5676 75.6625 78.5584 75.6447 78.5532C75.6268 78.548 75.6079 78.5468 75.5895 78.5497C75.571 78.5526 75.5536 78.5596 75.5387 78.57C75.5237 78.5804 75.5117 78.594 75.5037 78.6096ZM72.4383 92.2536C70.7535 93.7296 69.1545 95.6016 68.4135 95.6304C68.1829 95.5895 67.9695 95.4897 67.7973 95.3424C66.9705 94.716 66.9705 94.2912 66.7677 94.3992C66.7528 94.4053 66.7395 94.4142 66.7286 94.4253C66.7177 94.4364 66.7094 94.4495 66.7043 94.4637C66.6992 94.4779 66.6973 94.493 66.6988 94.5079C66.7003 94.5228 66.7052 94.5373 66.7131 94.5504C67.0017 95.1696 67.6881 96.1272 68.4213 96.1416C69.3573 96.1416 70.8861 94.5432 71.4399 93.9024C71.9937 93.2616 72.3993 92.6712 72.6177 92.3976C72.6384 92.3756 72.6487 92.347 72.6466 92.318C72.6444 92.2889 72.6298 92.2619 72.606 92.2428C72.5822 92.2237 72.5511 92.2141 72.5197 92.2161C72.4882 92.2182 72.459 92.2316 72.4383 92.2536ZM70.6209 105.574C68.9673 107.014 67.3293 108.922 66.6039 108.943C66.3688 108.908 66.151 108.808 65.9799 108.655C65.1453 108.029 65.1999 107.611 64.9503 107.712C64.9358 107.719 64.9232 107.73 64.913 107.742C64.9028 107.754 64.8953 107.767 64.8909 107.782C64.8866 107.797 64.8854 107.812 64.8876 107.827C64.8897 107.843 64.8951 107.857 64.9035 107.87C65.1843 108.49 65.8707 109.447 66.6117 109.462C67.5477 109.462 69.0765 107.863 69.6225 107.222C70.1685 106.582 70.5897 105.991 70.8003 105.718C70.9095 105.61 70.7301 105.466 70.6209 105.574ZM130.611 81.1224C128.091 80.9856 87.1023 79.3944 84.5049 79.2936C84.478 79.2999 84.4542 79.3144 84.4372 79.3346C84.4203 79.3548 84.411 79.3796 84.411 79.4052C84.411 79.4308 84.4203 79.4556 84.4372 79.4758C84.4542 79.496 84.478 79.5105 84.5049 79.5168C87.1491 79.6752 128.895 81.3024 130.618 81.3456C130.645 81.3385 130.668 81.3234 130.685 81.3027C130.701 81.282 130.709 81.2568 130.709 81.2312C130.708 81.2056 130.698 81.181 130.68 81.1613C130.662 81.1416 130.638 81.1279 130.611 81.1224ZM127.545 94.7736C125.026 94.6368 84.0369 93.0456 81.4395 92.9376C81.421 92.9332 81.4018 92.9328 81.3831 92.9364C81.3645 92.94 81.347 92.9474 81.332 92.9582C81.317 92.969 81.3048 92.9828 81.2964 92.9985C81.2881 93.0143 81.2837 93.0316 81.2837 93.0492C81.2837 93.0668 81.2881 93.0841 81.2964 93.0999C81.3048 93.1156 81.317 93.1294 81.332 93.1402C81.347 93.151 81.3645 93.1584 81.3831 93.162C81.4018 93.1656 81.421 93.1652 81.4395 93.1608C84.0837 93.3192 125.821 94.9464 127.545 94.9968C127.572 94.9905 127.596 94.976 127.613 94.9558C127.63 94.9356 127.639 94.9108 127.639 94.8852C127.639 94.8596 127.63 94.8348 127.613 94.8146C127.596 94.7943 127.572 94.7799 127.545 94.7736ZM125.728 108.094C123.208 107.957 82.2195 106.366 79.6221 106.258C79.5952 106.264 79.5714 106.278 79.5544 106.299C79.5374 106.319 79.5282 106.344 79.5282 106.369C79.5282 106.395 79.5374 106.42 79.5544 106.44C79.5714 106.46 79.5952 106.474 79.6221 106.481C82.2585 106.639 124.004 108.266 125.728 108.31C125.759 108.31 125.789 108.298 125.811 108.278C125.833 108.258 125.845 108.23 125.845 108.202C125.845 108.173 125.833 108.145 125.811 108.125C125.789 108.105 125.759 108.094 125.728 108.094ZM130.26 86.22C127.74 86.0904 86.7513 84.492 84.1617 84.3912C84.1432 84.3868 84.124 84.3864 84.1053 84.39C84.0867 84.3936 84.0692 84.401 84.0542 84.4118C84.0392 84.4226 84.027 84.4364 84.0186 84.4521C84.0103 84.4679 84.0059 84.4852 84.0059 84.5028C84.0059 84.5204 84.0103 84.5377 84.0186 84.5535C84.027 84.5692 84.0392 84.583 84.0542 84.5938C84.0692 84.6046 84.0867 84.612 84.1053 84.6156C84.124 84.6192 84.1432 84.6188 84.1617 84.6144C86.7981 84.7728 128.544 86.4 130.267 86.4432C130.294 86.4361 130.317 86.421 130.334 86.4003C130.35 86.3796 130.359 86.3544 130.358 86.3288C130.357 86.3032 130.347 86.2786 130.329 86.2589C130.311 86.2392 130.287 86.2255 130.26 86.22ZM127.21 99.8712C124.69 99.7344 83.7015 98.1432 81.1041 98.0424C80.9481 98.0424 80.9325 98.2512 81.1041 98.2656C83.7483 98.424 125.494 100.044 127.218 100.094C127.244 100.087 127.268 100.072 127.284 100.051C127.3 100.031 127.309 100.006 127.308 99.98C127.307 99.9544 127.297 99.9298 127.279 99.9101C127.261 99.8904 127.237 99.8767 127.21 99.8712ZM125.392 113.191C122.881 113.054 81.8919 111.463 79.2945 111.355C79.2614 111.355 79.2296 111.367 79.2062 111.389C79.1828 111.411 79.1697 111.44 79.1697 111.47C79.1697 111.501 79.1828 111.53 79.2062 111.552C79.2296 111.573 79.2614 111.586 79.2945 111.586C81.9387 111.737 123.676 113.364 125.4 113.414C125.427 113.407 125.45 113.392 125.467 113.371C125.483 113.351 125.491 113.326 125.49 113.3C125.49 113.274 125.479 113.25 125.462 113.23C125.444 113.21 125.42 113.197 125.392 113.191ZM86.2677 70.5168C86.5095 70.3872 86.6187 69.9768 86.6889 69.7032C87.7185 65.8512 88.9041 48.2112 88.6545 47.2176C88.6332 47.1513 88.5927 47.0915 88.5375 47.0448C88.0929 46.6704 85.6359 46.6272 84.7857 46.6056C80.3319 46.5048 69.9657 46.8144 69.8487 46.9152C69.5601 47.2392 65.2623 68.3712 65.7927 69.804C66.3231 71.2368 84.4269 71.4744 86.2677 70.5168ZM66.2997 69.6096C66.2939 69.5329 66.2939 69.4559 66.2997 69.3792C66.3063 69.4022 66.321 69.4226 66.3414 69.4371C66.3619 69.4517 66.387 69.4595 66.4128 69.4595C66.4386 69.4595 66.4637 69.4517 66.4841 69.4371C66.5046 69.4226 66.5193 69.4022 66.5259 69.3792C66.8582 68.1974 67.5135 67.114 68.4291 66.2328C69.4767 65.152 70.8258 64.3576 72.3291 63.936C73.0092 64.7501 73.7494 65.5199 74.5443 66.24C74.7237 66.3624 74.9343 66.24 75.1527 66.1464C75.9327 67.968 75.5583 65.6136 75.1527 70.4664C73.9905 70.4304 67.3059 70.1928 66.2997 69.6096ZM75.1059 61.2C74.6707 61.0405 74.2799 60.7927 73.9626 60.4749C73.6453 60.1571 73.4096 59.7774 73.2729 59.364C73.1899 59.0498 73.1377 58.7293 73.1169 58.4064C73.3875 58.7366 73.7649 58.9789 74.1945 59.098C74.6241 59.2171 75.0837 59.207 75.5067 59.0691C75.9296 58.9312 76.2941 58.6727 76.5474 58.3309C76.8007 57.9892 76.9296 57.5819 76.9155 57.168H77.0559C76.8451 57.824 76.7529 58.5075 76.7829 59.1912C76.7862 59.2921 76.8156 59.3909 76.8687 59.4792C77.1027 59.7528 77.3367 59.7456 77.7345 59.688C77.7657 59.6865 77.7954 59.6748 77.8183 59.6551C77.8411 59.6353 77.8556 59.6087 77.8593 59.58C77.8593 59.4144 77.5473 59.4864 77.3289 59.2848C77.3289 59.04 77.4147 58.212 77.4225 58.0032C77.4225 57.096 77.2275 57.1968 77.5083 57.1968C77.4543 57.5486 77.5075 57.9073 77.6618 58.2328C77.816 58.5583 78.0654 58.8378 78.3819 59.04C78.7608 59.2674 79.206 59.3824 79.6577 59.3695C80.1094 59.3566 80.5461 59.2165 80.9091 58.968C80.9091 59.0616 80.8311 59.1696 80.7687 59.3136C80.5561 59.9616 80.1343 60.5343 79.5597 60.9552C78.6471 61.5456 78.0621 61.3368 78.1245 61.7328C78.2181 62.3016 78.4287 62.7048 78.5613 63.5472C77.8767 63.9277 77.2177 64.346 76.5879 64.8C75.9856 64.2849 75.3501 63.804 74.6847 63.36C74.9967 61.8552 75.5427 61.38 75.1059 61.2ZM77.6253 56.7288C77.6009 56.7901 77.5801 56.8526 77.5629 56.916C77.4626 56.8538 77.3444 56.8206 77.2236 56.8206C77.1027 56.8206 76.9846 56.8538 76.8843 56.916C76.8685 56.706 76.8031 56.5018 76.6926 56.3177C76.5821 56.1336 76.4292 55.9741 76.2447 55.8504C75.7556 55.5621 75.187 55.4096 74.6067 55.4112C74.1938 55.3938 73.7892 55.5226 73.4757 55.7712C73.6958 54.8396 74.2893 54.0192 75.1371 53.4744C76.6035 52.632 78.8811 52.7976 79.8171 54.1368C80.0278 54.4072 80.1862 54.7093 80.2851 55.0296C80.3365 55.2747 80.4096 55.5155 80.5035 55.7496C80.3348 55.6844 80.1556 55.6455 79.9731 55.6344C78.9591 55.5696 77.8749 55.7928 77.6253 56.7432V56.7288ZM75.6597 58.5216C75.4691 58.6112 75.261 58.6648 75.0477 58.6792C74.8344 58.6936 74.6201 58.6685 74.4174 58.6055C74.2147 58.5425 74.0277 58.4427 73.8673 58.3121C73.707 58.1815 73.5765 58.0226 73.4835 57.8448C73.2183 56.9232 73.6317 55.8864 74.6145 55.8792C77.5863 55.7856 76.6971 58.1688 75.6597 58.5216ZM79.9809 56.0952C80.9637 56.196 81.2445 57.276 80.8857 58.1688C80.7715 58.3348 80.6229 58.4784 80.4483 58.5911C80.2738 58.7039 80.0768 58.7837 79.8687 58.8258C79.6606 58.868 79.4455 58.8717 79.2359 58.8368C79.0262 58.8019 78.8261 58.729 78.6471 58.6224C77.6409 58.176 76.9701 55.7064 79.9653 56.0952H79.9809ZM81.5409 56.8152L81.7359 56.7144C82.1805 57.024 82.2585 57.5496 81.5019 58.1544C81.6306 57.7394 81.644 57.3011 81.5409 56.88V56.8152ZM72.3135 56.4696C72.3761 56.4133 72.4601 56.3818 72.5475 56.3818C72.6349 56.3818 72.7188 56.4133 72.7815 56.4696C72.8187 56.5003 72.8648 56.5203 72.9141 56.5272C72.7812 56.9209 72.7544 57.3386 72.8361 57.744C72.2823 57.4344 71.8377 56.9376 72.3135 56.4984V56.4696ZM78.1635 65.8296C77.7906 65.5957 77.4337 65.3408 77.0949 65.0664L79.3725 63.36C79.5519 63.4824 80.0433 63.8208 80.3085 64.0296C79.0137 65.1024 78.4677 65.6136 78.1635 65.8512V65.8296ZM76.0419 65.0088C75.6358 65.2537 75.2167 65.4796 74.7861 65.6856C74.5677 65.4768 72.7191 63.5976 72.7191 63.5976C73.0233 63.4104 73.6005 63.108 73.8033 63.0072L76.0419 65.0088ZM77.9997 70.56C77.9966 69.407 77.8421 68.2586 77.5395 67.14C78.0543 66.2112 77.7735 66.42 78.0699 66.4848C78.1091 66.5011 78.1516 66.5095 78.1947 66.5095C78.2377 66.5095 78.2802 66.5011 78.3195 66.4848C79.0949 65.8784 79.8198 65.219 80.4879 64.512C83.1477 65.5992 85.2459 67.392 85.9479 70.0416C85.7373 70.56 78.6939 70.56 77.9997 70.56ZM70.0281 47.0952C71.9859 47.0448 86.3379 46.6992 88.1631 47.376C88.3425 48.816 86.9619 66.636 86.1117 69.5448C85.3863 67.0248 83.3895 65.2248 80.8155 64.1088C80.9325 63.8712 80.6517 63.7272 79.4349 63.108C79.4162 63.0971 79.3946 63.0914 79.3725 63.0914C79.3504 63.0914 79.3288 63.0971 79.3101 63.108L79.0059 63.2808C78.8889 62.5608 78.7719 62.352 78.6705 61.8408C79.1425 61.7328 79.5851 61.5356 79.9704 61.2618C80.3557 60.9879 80.6754 60.6432 80.9091 60.2496C81.1958 59.7816 81.4136 59.2804 81.5565 58.7592C82.5315 58.14 83.0697 57.276 82.3365 56.4408C82.5471 56.1384 82.6953 55.8936 82.5393 55.5696C82.6054 55.4772 82.6475 55.3719 82.6624 55.2621C82.6773 55.1522 82.6645 55.0406 82.6251 54.936C82.5877 54.7928 82.53 54.6548 82.4535 54.5256C82.5328 54.4063 82.5848 54.2732 82.6061 54.1345C82.6274 53.9959 82.6177 53.8547 82.5775 53.7197C82.5372 53.5847 82.4674 53.4587 82.3723 53.3496C82.2772 53.2406 82.1588 53.1507 82.0245 53.0856C82.0561 52.9101 82.0399 52.7302 81.9774 52.5619C81.9149 52.3936 81.808 52.2423 81.6665 52.1217C81.5249 52.001 81.353 51.9147 81.1664 51.8705C80.9797 51.8264 80.7841 51.8258 80.5971 51.8688C80.5301 51.7052 80.4137 51.5628 80.2617 51.4584C80.136 51.3607 79.9907 51.2869 79.8341 51.2412C79.6775 51.1955 79.5127 51.1788 79.3491 51.192C78.7563 51.2352 79.0059 51.408 78.8811 51.1272C78.8167 50.9921 78.7043 50.8814 78.5624 50.8133C78.4206 50.7453 78.2578 50.7239 78.1011 50.7528C77.8509 50.7693 77.6119 50.8546 77.4147 50.9976C77.1811 50.8191 76.8873 50.7214 76.584 50.7214C76.2807 50.7214 75.9869 50.8191 75.7533 50.9976C75.6363 51.1128 75.6987 51.084 75.5973 51.048C75.3415 50.987 75.0731 50.987 74.8173 51.048C74.664 51.079 74.5206 51.1427 74.3987 51.2339C74.2768 51.3252 74.1798 51.4415 74.1153 51.5736C73.9889 51.5522 73.8594 51.5522 73.7331 51.5736C73.4792 51.6581 73.251 51.7978 73.0677 51.9807C72.8845 52.1636 72.7515 52.3845 72.6801 52.6248C72.6761 52.6799 72.6761 52.7353 72.6801 52.7904C72.5338 52.8684 72.3931 52.955 72.2589 53.0496C72.1121 53.2123 72.0158 53.4086 71.9801 53.6178C71.9444 53.8269 71.9706 54.0411 72.0561 54.2376C71.8754 54.3559 71.7413 54.5252 71.6739 54.72C71.6332 54.9661 71.6768 55.2179 71.7987 55.44C71.8446 55.5001 71.8941 55.5577 71.9469 55.6128L71.8689 55.6992C71.818 55.8245 71.818 55.9626 71.8689 56.088C71.7384 56.2287 71.6475 56.3969 71.6039 56.5777C71.5604 56.7584 71.5657 56.9463 71.6193 57.1248C71.7967 57.5683 72.1181 57.9505 72.5397 58.2192C72.5397 58.3848 72.5397 58.6656 72.6099 58.9392C72.6848 59.5069 72.9164 60.0473 73.2824 60.5087C73.6484 60.9701 74.1366 61.337 74.7003 61.5744C74.5186 62.0457 74.3675 62.5265 74.2479 63.0144C73.9125 62.784 73.8657 62.7264 73.7799 62.7696C72.5397 63.2232 72.2199 63.36 72.2199 63.4896C68.9985 64.4472 66.7599 67.1544 66.3231 69.2496C66.3465 66.0744 69.6693 48.1824 70.0281 47.0952ZM134.362 59.1408C134.253 59.0328 95.5185 58.8096 95.4405 58.8168C95.4074 58.8168 95.3756 58.8289 95.3522 58.8505C95.3288 58.8721 95.3157 58.9014 95.3157 58.932C95.3157 58.86 95.0193 62.1792 95.4171 62.3952C96.4701 62.9424 130.743 63.468 133.855 63.1872C133.991 63.1888 134.123 63.1482 134.23 63.072C134.799 62.532 134.784 59.472 134.362 59.1408ZM95.4639 59.04H95.5107C95.5107 59.04 95.4717 59.076 95.4639 59.04ZM133.84 62.64C132.061 62.8488 97.4685 62.568 95.6199 62.172C95.5105 61.1304 95.5105 60.0816 95.6199 59.04L134.035 59.6376C134.181 60.6406 134.115 61.6603 133.84 62.64ZM134.456 53.1C134.347 52.992 95.6121 52.7688 95.5341 52.776C95.5016 52.7777 95.4709 52.7904 95.4479 52.8116C95.4249 52.8329 95.4111 52.8612 95.4093 52.8912C95.4093 52.8192 95.1051 56.1384 95.5107 56.3544C96.6261 56.9448 131.001 57.4128 133.949 57.1464C134.084 57.148 134.216 57.1074 134.323 57.0312C134.893 56.4912 134.869 53.4312 134.456 53.1ZM95.5575 52.9992H95.6043C95.6511 52.9992 95.5653 53.0424 95.5575 52.9992ZM133.933 56.5992C132.256 56.808 97.5777 56.5272 95.7135 56.124C95.6081 55.0847 95.6081 54.0385 95.7135 52.9992L134.128 53.5968C134.271 54.5975 134.205 55.6142 133.933 56.592V56.5992ZM134.542 47.2968C134.48 47.251 134.402 47.2279 134.323 47.232C134.323 47.232 95.9943 46.9584 95.7603 46.9656C95.6433 46.9656 95.4795 46.9656 95.4873 47.088C95.4873 47.016 95.1909 50.3352 95.5887 50.5512C96.5559 51.0552 133.809 51.7824 134.401 51.228C134.994 50.6736 134.94 47.628 134.542 47.2968ZM95.6355 47.196H95.6823C95.7291 47.196 95.6433 47.232 95.6355 47.196ZM134.011 50.796C132.225 51.0048 97.4685 50.7096 95.7915 50.3208C95.6704 49.2828 95.6547 48.2367 95.7447 47.196L134.16 47.7936C134.32 48.7915 134.27 49.8086 134.011 50.7888V50.796ZM102.125 69.3432C102.585 69.1056 102.632 68.7312 102.414 68.4936C101.796 68.1275 101.103 67.8825 100.378 67.7736C100.309 67.1313 100.062 66.5163 99.6603 65.988C98.8803 65.34 98.3733 66.8232 98.1003 67.752C97.4451 67.8024 96.0021 67.9752 95.8929 68.5728C95.8929 68.7816 96.0489 68.9112 96.2517 69.0048C96.7115 69.1752 97.1832 69.3171 97.6635 69.4296C97.0395 70.0344 95.6355 71.4384 96.5091 71.5896C97.0083 71.6904 98.3343 70.956 98.9661 70.8264C99.5511 71.1288 100.815 72.072 101.306 71.7552C101.797 71.4384 101.095 70.416 100.698 69.7176C101.184 69.6296 101.661 69.5044 102.125 69.3432ZM109.574 69.6672C110.042 69.4368 110.089 69.0624 109.863 68.8248C109.251 68.4529 108.559 68.2074 107.835 68.1048C107.766 67.4603 107.519 66.843 107.117 66.312C106.337 65.6712 105.83 67.1544 105.557 68.0832C104.902 68.1336 103.459 68.2992 103.35 68.904C103.311 69.1056 103.506 69.2424 103.708 69.336C104.167 69.5024 104.636 69.6442 105.112 69.7608C104.496 70.3584 103.084 71.7696 103.958 71.9208C104.457 72.0216 105.822 71.28 106.415 71.2008C107.031 71.5176 108.271 72.4392 108.755 72.1224C109.239 71.8056 108.544 70.7832 108.154 70.0848C108.642 69.9895 109.117 69.8496 109.574 69.6672ZM117.335 69.9336C117.795 69.696 117.842 69.3216 117.624 69.0912C117.008 68.7212 116.314 68.4758 115.588 68.3712C115.523 67.7282 115.275 67.1123 114.87 66.5856C114.09 65.9376 113.583 67.4208 113.31 68.3496C112.655 68.4072 111.212 68.5728 111.111 69.1704C111.111 69.3792 111.267 69.516 111.469 69.6024C111.926 69.7755 112.395 69.9199 112.873 70.0344C112.257 70.632 110.845 72.0432 111.719 72.1944C112.218 72.2952 113.544 71.5608 114.176 71.4312C114.761 71.7408 116.025 72.6768 116.516 72.36C117.007 72.0432 116.298 71.0208 115.908 70.3224C116.395 70.2316 116.873 70.1015 117.335 69.9336ZM125.431 70.2144C125.899 69.984 125.938 69.6024 125.72 69.372C125.104 69.002 124.41 68.7566 123.684 68.652C123.617 68.0106 123.372 67.3959 122.974 66.8664C122.194 66.2184 121.68 67.7088 121.414 68.6304C120.759 68.688 119.316 68.8536 119.215 69.4584C119.176 69.66 119.371 69.7968 119.574 69.8904C120.032 70.0568 120.501 70.1986 120.978 70.3152C120.361 70.9128 118.95 72.324 119.823 72.4752C120.315 72.576 121.68 71.8344 122.28 71.712C122.873 72.0216 124.121 72.9576 124.62 72.6408C125.119 72.324 124.41 71.3016 124.02 70.6032C124.502 70.5143 124.975 70.3842 125.431 70.2144ZM123.31 70.4664C123.31 70.7328 124.012 71.6112 124.183 72.18C124.043 72.1224 123.848 72.0072 123.692 71.928C122.444 71.316 122.491 71.1144 121.976 71.28C121.578 71.4096 120.26 72.0648 119.909 72.1224C119.987 71.8867 120.109 71.6651 120.268 71.4672C121.126 70.2936 121.547 70.2792 121.009 70.0272C120.495 69.8876 120.003 69.6893 119.542 69.4368C119.683 69.1056 121.102 69.012 121.586 69.0048C121.859 69.0048 121.765 68.8104 122.202 67.86C122.3 67.6244 122.431 67.4017 122.592 67.1976C122.74 67.396 122.846 67.6182 122.904 67.8528C123.193 68.7672 123.037 69.0192 123.364 69.084C124.003 69.2007 124.622 69.3944 125.205 69.66C125.083 69.7422 124.946 69.8032 124.8 69.84C123.832 70.1064 123.286 70.0776 123.31 70.4664ZM133.442 69.2784C132.902 69.0596 132.34 68.8884 131.765 68.7672C131.688 68.3137 131.557 67.8695 131.375 67.4424C131.047 66.7224 130.517 66.5856 130.096 67.2336C129.828 67.7156 129.616 68.2224 129.464 68.7456C128.934 68.7799 128.41 68.8742 127.904 69.0264C127.459 69.1848 127.077 69.516 127.319 69.804C127.83 70.1171 128.407 70.328 129.012 70.4232C128.547 70.8671 128.126 71.3491 127.756 71.8632C127.397 72.4392 127.615 72.792 128.403 72.5832C129.004 72.4104 129.862 71.9856 130.314 71.8632C130.704 72.0648 131.874 72.8784 132.428 72.8568C132.484 72.8588 132.54 72.8501 132.593 72.8314C132.645 72.8126 132.693 72.7842 132.733 72.7478C132.774 72.7114 132.805 72.6678 132.826 72.6197C132.848 72.5716 132.858 72.5199 132.857 72.468C132.711 71.858 132.447 71.2774 132.077 70.7544C132.564 70.6664 133.042 70.5387 133.504 70.3728C134.004 70.1136 134.16 69.6168 133.442 69.2784ZM131.57 70.3296C130.993 70.5816 131.983 71.4168 132.256 72.3312C131.898 72.18 130.603 71.4384 130.509 71.4024C130.088 71.2368 129.105 71.9136 128.224 72.1944L127.99 72.2736C128.31 71.6137 128.75 71.0096 129.292 70.488C129.597 70.1784 127.935 69.9552 127.615 69.6168C127.678 69.4656 128.099 69.3576 128.263 69.3216C129.402 69.0768 129.784 69.3216 129.885 69.0192C130.069 68.4436 130.331 67.8919 130.665 67.3776C130.966 67.8895 131.149 68.4533 131.203 69.0336C131.25 69.336 131.523 69.2136 132.631 69.5736C132.86 69.6372 133.08 69.7267 133.286 69.84C133.013 70.0272 131.96 70.1568 131.57 70.3296ZM99.0987 32.0544C99.9417 32.1172 100.779 31.8802 101.439 31.392C103.396 29.7792 100.659 26.712 97.9443 28.3608C95.8227 29.6496 97.1175 31.9824 99.0987 32.0544ZM98.2329 28.8C98.763 28.4419 99.4227 28.2871 100.074 28.368C100.399 28.4117 100.709 28.5241 100.98 28.6964C101.25 28.8688 101.474 29.0964 101.634 29.3616C102.164 30.7656 100.752 31.608 99.1143 31.5216C97.6869 31.4496 96.6729 29.7864 98.2329 28.8ZM32.0889 63.7416C31.9329 63.684 32.0889 63.7416 30.9657 64.7928C29.8425 65.844 28.7973 66.42 28.8987 66.5928C29.0001 66.7656 29.9439 66.3336 30.0999 66.2544C30.6011 65.9645 31.0532 65.6079 31.4415 65.196C31.7145 64.9008 32.3775 63.8568 32.0889 63.7416ZM44.1321 17.4888C44.1711 17.316 43.6485 17.1648 43.2663 17.208C42.4239 17.3088 42.0729 17.928 42.2523 18.036C42.9095 17.9596 43.5463 17.7742 44.1321 17.4888ZM46.0197 20.16C46.2408 20.2377 46.4803 20.2601 46.7139 20.2248C46.818 20.2064 46.9181 20.1724 47.0103 20.124C47.1041 20.0842 47.1822 20.0185 47.2339 19.936C47.2856 19.8534 47.3083 19.7581 47.2989 19.6632C47.2989 19.0008 46.3005 17.5392 46.0353 17.6976C45.9417 17.748 45.9651 17.784 46.1133 18.2376C46.2083 18.5478 46.3282 18.8511 46.4721 19.1448C46.5546 19.3165 46.6198 19.4949 46.6671 19.6776C46.5052 19.8157 46.3007 19.9037 46.0821 19.9296C46.0657 19.9258 46.0486 19.9251 46.0319 19.9274C46.0152 19.9296 45.9992 19.935 45.9847 19.943C45.9702 19.951 45.9576 19.9616 45.9475 19.9741C45.9375 19.9866 45.9302 20.0009 45.9261 20.016C45.922 20.0311 45.9211 20.0469 45.9236 20.0623C45.9261 20.0777 45.9319 20.0925 45.9406 20.1059C45.9493 20.1193 45.9607 20.1309 45.9743 20.1402C45.9879 20.1495 46.0033 20.1562 46.0197 20.16ZM45.7545 22.9392C45.8066 23.0493 45.8843 23.1475 45.9821 23.2269C46.0798 23.3063 46.1953 23.3648 46.3203 23.3985C46.4453 23.4321 46.5767 23.44 46.7054 23.4216C46.8341 23.4032 46.9568 23.359 47.0649 23.292C47.0945 23.2808 47.1188 23.26 47.1331 23.2335C47.1475 23.207 47.1509 23.1767 47.1429 23.148C47.0805 22.9824 46.9245 23.1912 46.5267 22.9824C46.4443 22.9362 46.3755 22.872 46.3266 22.7953C46.2776 22.7187 46.2499 22.6321 46.2459 22.5432C46.2503 22.45 46.2763 22.3588 46.322 22.2756C46.3678 22.1924 46.4322 22.1191 46.5111 22.0608C46.582 22.0261 46.6609 22.008 46.7412 22.008C46.8214 22.008 46.9004 22.0261 46.9713 22.0608C47.0961 22.1544 47.2365 21.9744 47.1117 21.888C46.3629 21.0888 45.3099 22.104 45.7545 22.9392ZM47.5797 53.7552C47.3966 53.7583 47.2173 53.8032 47.0576 53.886C46.898 53.9687 46.7631 54.0867 46.665 54.2294C46.5668 54.372 46.5085 54.5349 46.4953 54.7035C46.482 54.872 46.5143 55.041 46.5891 55.1952C47.1039 56.1528 48.8745 55.8 48.8433 54.7632C48.8366 54.6189 48.7981 54.4774 48.73 54.3474C48.662 54.2174 48.5658 54.1016 48.4474 54.0072C48.329 53.9128 48.191 53.8417 48.0418 53.7984C47.8925 53.755 47.7353 53.7403 47.5797 53.7552ZM48.2583 54.9864C48.249 55.0568 48.2249 55.1249 48.1872 55.1867C48.1495 55.2486 48.0989 55.3029 48.0384 55.3467C47.9779 55.3905 47.9087 55.4229 47.8347 55.442C47.7607 55.4611 47.6833 55.4665 47.607 55.458C47.5307 55.4495 47.4569 55.4272 47.3899 55.3924C47.323 55.3575 47.2641 55.3109 47.2166 55.2551C47.1692 55.1992 47.1341 55.1353 47.1134 55.067C47.0928 54.9987 47.0869 54.9272 47.0961 54.8568C47.0961 54.7909 47.1102 54.7257 47.1378 54.665C47.1653 54.6043 47.2056 54.5492 47.2564 54.5029C47.3073 54.4567 47.3675 54.4203 47.4337 54.3957C47.4999 54.3712 47.5707 54.359 47.6421 54.36C47.7319 54.3511 47.8227 54.3614 47.9074 54.3903C47.9922 54.4192 48.0685 54.4658 48.1305 54.5265C48.1924 54.5872 48.2383 54.6603 48.2646 54.7401C48.2908 54.8199 48.2966 54.9042 48.2817 54.9864H48.2583ZM47.3691 58.6368C47.1853 58.6381 47.0048 58.6818 46.844 58.7641C46.6833 58.8464 46.5474 58.9645 46.4489 59.1078C46.3504 59.251 46.2923 59.4147 46.28 59.584C46.2677 59.7533 46.3016 59.9227 46.3785 60.0768C46.8855 61.02 48.6639 60.6888 48.6327 59.6448C48.6249 59.5009 48.5857 59.3599 48.5172 59.2304C48.4488 59.1008 48.3526 58.9855 48.2345 58.8912C48.1164 58.797 47.9788 58.7259 47.83 58.6822C47.6813 58.6384 47.5245 58.623 47.3691 58.6368ZM48.0477 59.868C48.0501 59.9457 48.0345 60.0231 48.002 60.0948C47.9695 60.1666 47.9208 60.2311 47.8592 60.2841C47.7975 60.3371 47.7243 60.3774 47.6445 60.4023C47.5646 60.4271 47.48 60.436 47.3961 60.4282C47.3123 60.4205 47.2312 60.3963 47.1583 60.3574C47.0853 60.3184 47.0222 60.2656 46.9732 60.2024C46.9241 60.1391 46.8902 60.067 46.8737 59.9907C46.8573 59.9144 46.8586 59.8358 46.8777 59.76C46.8797 59.6276 46.9381 59.5012 47.0403 59.4083C47.1425 59.3153 47.2802 59.2632 47.4237 59.2632C47.5096 59.2586 47.5957 59.2713 47.6758 59.3004C47.7559 59.3296 47.8281 59.3745 47.8875 59.4321C47.9469 59.4896 47.992 59.5585 48.0197 59.6337C48.0473 59.709 48.0569 59.789 48.0477 59.868ZM44.0931 18.4608C44.0931 18.576 44.1399 18.6912 44.1867 18.936C44.1952 18.9829 44.2136 19.0278 44.241 19.0681C44.2684 19.1083 44.3042 19.1432 44.3462 19.1706C44.3883 19.1981 44.4358 19.2176 44.4861 19.228C44.5363 19.2384 44.5883 19.2395 44.6391 19.2312C44.7401 19.2153 44.8303 19.1633 44.8901 19.0865C44.95 19.0097 44.9747 18.9143 44.9589 18.8208C44.9589 18.6912 44.8887 18.5112 44.8731 18.3816C44.8617 18.2861 44.8097 18.1987 44.7285 18.1386C44.6473 18.0786 44.5436 18.0507 44.4402 18.0612C44.3367 18.0717 44.2421 18.1197 44.177 18.1946C44.1119 18.2696 44.0817 18.3653 44.0931 18.4608ZM47.4627 18.3672C47.4759 18.4518 47.5219 18.5291 47.5922 18.5847C47.6625 18.6403 47.7523 18.6705 47.8449 18.6696C47.9014 18.6691 47.9571 18.6574 48.0084 18.6355C48.0596 18.6135 48.1052 18.5817 48.1421 18.5422C48.179 18.5027 48.2064 18.4564 48.2224 18.4063C48.2384 18.3563 48.2426 18.3037 48.2349 18.252C48.1725 17.9352 48.1569 17.8992 48.1413 17.8128C48.1289 17.7173 48.0759 17.6303 47.9939 17.5709C47.912 17.5115 47.8079 17.4845 47.7045 17.496C47.601 17.5075 47.5068 17.5564 47.4424 17.632C47.378 17.7076 47.3489 17.8037 47.3613 17.8992C47.3847 18 47.4159 18.1152 47.4627 18.3672ZM59.0925 64.6704C59.1861 64.7568 59.3343 64.6272 59.2407 64.5408C57.3531 62.4456 56.9007 60.3288 57.2361 57.6792C57.2404 57.6653 57.2411 57.6506 57.2383 57.6364C57.2354 57.6221 57.229 57.6087 57.2195 57.5971C57.2101 57.5856 57.1978 57.5762 57.1838 57.5697C57.1697 57.5633 57.1543 57.5599 57.1386 57.5599C57.1229 57.5599 57.1074 57.5633 57.0933 57.5697C57.0793 57.5762 57.0671 57.5856 57.0576 57.5971C57.0482 57.6087 57.0418 57.6221 57.0389 57.6364C57.036 57.6506 57.0368 57.6653 57.0411 57.6792C56.2455 60.3504 56.7993 62.7552 59.0925 64.6704Z" fill="black"/>
<path d="M75.0357 56.88C74.9334 56.8699 74.8309 56.8975 74.7505 56.9568C74.6701 57.0162 74.6185 57.1024 74.6067 57.1968V57.672C74.6067 57.7675 74.6478 57.859 74.7209 57.9265C74.7941 57.9941 74.8933 58.032 74.9967 58.032C75.1001 58.032 75.1993 57.9941 75.2725 57.9265C75.3456 57.859 75.3867 57.7675 75.3867 57.672V57.2904C75.3943 57.242 75.3912 57.1926 75.3775 57.1453C75.3637 57.0981 75.3397 57.0539 75.3069 57.0155C75.274 56.9771 75.233 56.9452 75.1864 56.9219C75.1398 56.8986 75.0885 56.8844 75.0357 56.88ZM79.3023 58.0824C79.3525 58.0884 79.4036 58.0852 79.4525 58.0728C79.5013 58.0605 79.5471 58.0393 79.587 58.0105C79.6269 57.9817 79.6602 57.9458 79.685 57.905C79.7098 57.8642 79.7255 57.8192 79.7313 57.7728V57.3048C79.7313 57.2093 79.6902 57.1177 79.6171 57.0502C79.5439 56.9827 79.4447 56.9448 79.3413 56.9448C79.2385 56.9466 79.1404 56.9851 79.0677 57.0523C78.995 57.1194 78.9533 57.2099 78.9513 57.3048V57.6864C78.9459 57.7337 78.9507 57.7815 78.9655 57.8271C78.9803 57.8727 79.0047 57.9151 79.0373 57.952C79.07 57.9888 79.1102 58.0193 79.1557 58.0417C79.2011 58.064 79.251 58.0779 79.3023 58.0824ZM76.0575 60.5448C76.6953 60.7317 77.3736 60.7688 78.0309 60.6528C78.1089 60.6528 78.1011 60.5376 78.0309 60.5448L77.5395 60.48C77.0541 60.4428 76.5663 60.4428 76.0809 60.48C76.0029 60.4224 75.9795 60.5376 76.0575 60.5448Z" fill="white"/>
</svg>
