<svg width="26" height="26" viewBox="0 0 26 26" fill="none" xmlns="http://www.w3.org/2000/svg">
<g clip-path="url(#clip0_209_525)">
<path d="M11.4911 1.16071V9.05357H18.5714L8.24107 21.8214V13.9286H1.16071L11.4911 1.16071Z" fill="#FF7972"/>
<path fill-rule="evenodd" clip-rule="evenodd" d="M12.6518 1.16078C12.6518 0.669012 12.3419 0.230617 11.8783 0.0665595C11.4147 -0.0974982 10.8981 0.0483911 10.5887 0.430694L0.258376 13.1986C-0.0229995 13.5463 -0.0794828 14.0248 0.113187 14.4286C0.305857 14.8323 0.713385 15.0893 1.16073 15.0893H7.08037V21.8215C7.08037 22.3133 7.39027 22.7517 7.85385 22.9157C8.31745 23.0797 8.83411 22.9339 9.14343 22.5515L19.4738 9.78372C19.7552 9.43595 19.8116 8.95744 19.6191 8.55371C19.4263 8.14999 19.0188 7.89292 18.5714 7.89292H12.6518V1.16078ZM8.24108 12.7679H3.5929L10.3304 4.44072V9.05364C10.3304 9.69468 10.85 10.2143 11.4911 10.2143H16.1393L9.4018 18.5416V13.9286C9.4018 13.2876 8.88213 12.7679 8.24108 12.7679ZM20.3887 15.3192C20.3567 15.3192 20.3283 15.3397 20.3183 15.3699L18.7356 20.1181H22.0417L20.459 15.3699C20.4488 15.3397 20.4206 15.3192 20.3887 15.3192ZM14.8372 24.472L16.0146 20.9399C16.0204 20.921 16.0267 20.902 16.0334 20.8834L18.116 14.6358C18.4421 13.6576 19.3576 12.9978 20.3887 12.9978C21.4197 12.9978 22.3351 13.6576 22.6612 14.6358L24.7457 20.8892C24.7511 20.9041 24.7561 20.9191 24.7607 20.9341L25.94 24.472C26.1428 25.0802 25.8141 25.7375 25.2059 25.9403C24.5977 26.1429 23.9404 25.8144 23.7376 25.2061L22.8156 22.4396H17.9617L17.0395 25.2061C16.8368 25.8144 16.1795 26.1429 15.5713 25.9403C14.9632 25.7375 14.6345 25.0802 14.8372 24.472Z" fill="#0C098C"/>
</g>
<defs>
<clipPath id="clip0_209_525">
<rect width="26" height="26" fill="white"/>
</clipPath>
</defs>
</svg>
