<svg width="73" height="87" viewBox="0 0 73 87" fill="none" xmlns="http://www.w3.org/2000/svg">
<path fill-rule="evenodd" clip-rule="evenodd" d="M2.73895 2.73018C4.44685 0.982075 6.76334 0 9.17868 0H45.6072C46.4124 0 47.1845 0.327359 47.7538 0.910064L72.0398 25.7672C72.6087 26.3499 72.9287 27.1402 72.9287 27.9643V77.6786C72.9287 80.1506 71.9694 82.522 70.2615 84.2701C68.5536 86.0181 66.2368 87 63.8215 87H9.17868C6.76328 87 4.44685 86.0181 2.73895 84.2701C1.03106 82.522 0.0715332 80.1506 0.0715332 77.6786V9.32143C0.0715332 6.84926 1.03106 4.47829 2.73895 2.73018ZM24.0889 24.5543C27.5237 24.5543 30.3081 21.7043 30.3081 18.1887C30.3081 14.6732 27.5237 11.8232 24.0889 11.8232C20.6542 11.8232 17.8697 14.6732 17.8697 18.1887C17.8697 21.7043 20.6542 24.5543 24.0889 24.5543ZM11.4603 52.8212C11.4572 50.6761 13.1535 48.9373 15.2493 48.9373H57.7495C59.8448 48.9373 61.5466 50.6761 61.5496 52.8212C61.5526 54.9662 59.8563 56.7051 57.7604 56.7051H15.2606C13.1649 56.7051 11.4634 54.9662 11.4603 52.8212ZM11.4603 71.4643C11.4572 69.3191 13.1535 67.5804 15.2493 67.5804H39.535C41.6307 67.5804 43.3322 69.3191 43.3353 71.4643C43.3385 73.6088 41.6421 75.3482 39.5464 75.3482H15.2606C13.1649 75.3482 11.4634 73.6088 11.4603 71.4643ZM24.0852 28.7972C19.8362 28.7972 15.9605 30.4327 13.0261 33.1221C11.2842 34.7184 12.6445 37.2845 14.9825 37.2845H33.1878C35.5259 37.2845 36.8861 34.7184 35.1443 33.1221C32.2099 30.4327 28.3341 28.7972 24.0852 28.7972Z" fill="black"/>
</svg>
