<svg width="26" height="26" viewBox="0 0 26 26" fill="none" xmlns="http://www.w3.org/2000/svg">
<path d="M12.0714 22.9821C18.0972 22.9821 22.9821 18.0972 22.9821 12.0714C22.9821 6.04561 18.0972 1.16071 12.0714 1.16071C6.04561 1.16071 1.16071 6.04561 1.16071 12.0714C1.16071 18.0972 6.04561 22.9821 12.0714 22.9821Z" fill="#7AF1FF"/>
<path fill-rule="evenodd" clip-rule="evenodd" d="M12.0714 2.32143C6.68666 2.32143 2.32143 6.68666 2.32143 12.0714C2.32143 17.4562 6.68666 21.8214 12.0714 21.8214C17.4562 21.8214 21.8214 17.4562 21.8214 12.0714C21.8214 6.68666 17.4562 2.32143 12.0714 2.32143ZM0 12.0714C0 5.40456 5.40456 0 12.0714 0C18.7384 0 24.1429 5.40456 24.1429 12.0714C24.1429 14.8191 23.2249 17.3523 21.6788 19.3811L25.524 23.2264C26.1586 23.8609 26.1586 24.8898 25.524 25.5246C24.8894 26.1592 23.8606 26.1592 23.226 25.5246L19.3808 21.6792C17.3519 23.2251 14.8188 24.1429 12.0714 24.1429C5.40456 24.1429 0 18.7384 0 12.0714ZM13.5822 6.33232C13.2139 4.6907 10.8883 4.70242 10.5346 6.34562L10.4943 6.53248C10.0473 8.60897 8.41314 10.1912 6.37451 10.5519C4.68468 10.8508 4.6847 13.2921 6.37451 13.591C8.41314 13.9516 10.0473 15.5339 10.4943 17.6104L10.5346 17.7973C10.8883 19.4404 13.2139 19.4521 13.5822 17.8106L13.631 17.5928C14.095 15.5244 15.7309 13.9541 17.7658 13.5941C19.459 13.2945 19.459 10.8483 17.7658 10.5488C15.7309 10.1888 14.095 8.61848 13.631 6.55009L13.5822 6.33232Z" fill="#0C098C"/>
</svg>
