<svg width="26" height="26" viewBox="0 0 26 26" fill="none" xmlns="http://www.w3.org/2000/svg">
<path fill-rule="evenodd" clip-rule="evenodd" d="M10.3098 12.5282C10.617 12.5282 10.9143 12.4855 11.196 12.4058C11.1979 12.4527 11.1988 12.4998 11.1988 12.5471C11.1988 14.4542 9.65283 16.0002 7.74573 16.0002C5.83862 16.0002 4.2926 14.4542 4.2926 12.5471C4.2926 11.4571 4.79759 10.4851 5.58638 9.85224C5.85748 11.3733 7.18681 12.5282 8.78583 12.5282H10.3098ZM1.16071 24.8382C1.17236 23.7231 1.46645 22.6291 2.01552 21.6584C3.17259 19.6129 5.3948 18.314 7.74429 18.3089C10.0938 18.314 12.316 19.6129 13.4731 21.6584C14.0221 22.6291 14.3162 23.7231 14.3279 24.8382H1.16071Z" fill="#FDDC5C"/>
<path fill-rule="evenodd" clip-rule="evenodd" d="M16.8991 0C17.5401 0 18.0598 0.519669 18.0598 1.16071V2.64676C18.0598 3.28781 17.5401 3.80748 16.8991 3.80748C16.258 3.80748 15.7383 3.28781 15.7383 2.64676V1.16071C15.7383 0.519669 16.258 0 16.8991 0ZM20.5827 9.30271C20.5905 7.26074 18.8621 5.56166 16.8206 5.60406C14.779 5.56166 13.0508 7.26074 13.0584 9.30271C13.0752 10.6583 13.8877 11.9525 15.1013 12.5566V13.871C15.1013 14.3839 15.5171 14.7996 16.0299 14.7996H17.6113C18.1241 14.7996 18.5399 14.3838 18.5399 13.871V12.5566C19.7535 11.9525 20.566 10.6583 20.5827 9.30271ZM7.4787 17.1533C5.05481 17.015 3.13189 15.0056 3.13189 12.5471C3.13189 11.3324 3.60286 10.225 4.36999 9.40195C4.80705 8.93299 5.54151 8.90714 6.01048 9.3442C6.47942 9.78127 6.50527 10.5157 6.06821 10.9847C5.68572 11.3951 5.45331 11.9427 5.45331 12.5471C5.45331 13.8132 6.47966 14.8395 7.74573 14.8395C8.92597 14.8395 9.89924 13.9466 10.0244 12.8002C10.094 12.1629 10.667 11.7027 11.3043 11.7723C11.9415 11.8419 12.4017 12.4149 12.3321 13.0522C12.0893 15.2765 10.268 17.0252 8.01175 17.1534C10.6791 17.2526 13.1643 18.7551 14.4833 21.0869C15.129 22.2283 15.4748 23.5148 15.4885 24.8261C15.4917 25.1361 15.3709 25.4343 15.1529 25.6546C14.9349 25.875 14.6378 25.9989 14.3279 25.9989H1.16071C0.850772 25.9989 0.553705 25.875 0.335692 25.6546C0.117677 25.4343 -0.00317354 25.1361 6.33888e-05 24.8261C0.0137586 23.5148 0.359584 22.2283 1.00524 21.0869C2.32459 18.7545 4.81058 17.2519 7.4787 17.1533ZM3.02579 22.23C3.9769 20.5485 5.8131 19.4747 7.74429 19.4695C9.67547 19.4747 11.5117 20.5485 12.4628 22.23C12.7201 22.6848 12.9094 23.1725 13.0266 23.6775H2.46192C2.57918 23.1725 2.76852 22.6848 3.02579 22.23ZM23.9224 4.33905C24.3757 3.88576 24.3757 3.15085 23.9224 2.69756C23.4691 2.24426 22.7342 2.24426 22.2809 2.69756L21.2301 3.74835C20.7768 4.20164 20.7768 4.93656 21.2301 5.38986C21.6834 5.84315 22.4183 5.84315 22.8716 5.38986L23.9224 4.33905ZM9.95484 2.69756C10.4081 2.24426 11.1431 2.24426 11.5964 2.69756L12.6471 3.74835C13.1004 4.20164 13.1004 4.93656 12.6471 5.38986C12.1939 5.84315 11.4589 5.84315 11.0057 5.38986L9.95484 4.33905C9.50157 3.88576 9.50157 3.15085 9.95484 2.69756ZM23.3532 8.14188C22.7123 8.14188 22.1925 8.66157 22.1925 9.3026C22.1925 9.94364 22.7123 10.4633 23.3532 10.4633H24.8393C25.4804 10.4633 26 9.94364 26 9.3026C26 8.66157 25.4804 8.14188 24.8393 8.14188H23.3532ZM7.79798 9.3026C7.79798 8.66157 8.31766 8.14188 8.95869 8.14188H10.4448C11.0858 8.14188 11.6055 8.66157 11.6055 9.3026C11.6055 9.94364 11.0858 10.4633 10.4448 10.4633H8.95869C8.31766 10.4633 7.79798 9.94364 7.79798 9.3026Z" fill="#0C098C"/>
</svg>
