<svg width="26" height="26" viewBox="0 0 26 26" fill="none" xmlns="http://www.w3.org/2000/svg">
<path d="M20.4284 1.85714H5.57129C3.51995 1.85714 1.857 3.52008 1.857 5.57143V20.4286C1.857 22.4799 3.51995 24.1429 5.57129 24.1429H20.4284C22.4798 24.1429 24.1427 22.4799 24.1427 20.4286V5.57143C24.1427 3.52008 22.4798 1.85714 20.4284 1.85714Z" fill="#79EE8D"/>
<path fill-rule="evenodd" clip-rule="evenodd" d="M5.57129 0.696426C2.8789 0.696426 0.696289 2.87903 0.696289 5.57143V20.4286C0.696289 23.1209 2.8789 25.3036 5.57129 25.3036H20.4284C23.1207 25.3036 25.3034 23.1209 25.3034 20.4286V5.57143C25.3034 2.87903 23.1207 0.696426 20.4284 0.696426H5.57129ZM3.01772 5.57143C3.01772 4.16113 4.16099 3.01786 5.57129 3.01786H20.4284C21.8387 3.01786 22.982 4.16113 22.982 5.57143V20.4286C22.982 21.8389 21.8387 22.9821 20.4284 22.9821H5.57129C4.16099 22.9821 3.01772 21.8389 3.01772 20.4286V5.57143ZM7.42843 9.75C6.14633 9.75 5.107 8.71067 5.107 7.42857C5.107 6.14647 6.14633 5.10714 7.42843 5.10714C8.71053 5.10714 9.74986 6.14647 9.74986 7.42857C9.74986 8.71067 8.71053 9.75 7.42843 9.75ZM20.8927 7.42857C20.8927 6.14647 19.8535 5.10714 18.5713 5.10714C17.2892 5.10714 16.2499 6.14647 16.2499 7.42857C16.2499 8.71067 17.2892 9.75 18.5713 9.75C19.8535 9.75 20.8927 8.71067 20.8927 7.42857ZM18.5713 20.8929C17.2892 20.8929 16.2499 19.8536 16.2499 18.5714C16.2499 17.2893 17.2892 16.25 18.5713 16.25C19.8535 16.25 20.8927 17.2893 20.8927 18.5714C20.8927 19.8536 19.8535 20.8929 18.5713 20.8929ZM7.42843 20.8929C6.14633 20.8929 5.107 19.8536 5.107 18.5714C5.107 17.2893 6.14633 16.25 7.42843 16.25C8.71053 16.25 9.74986 17.2893 9.74986 18.5714C9.74986 19.8536 8.71053 20.8929 7.42843 20.8929Z" fill="#0C098C"/>
</svg>
