<svg version="1.1" id="Layer_1" xmlns="http://www.w3.org/2000/svg" xmlns:xlink="http://www.w3.org/1999/xlink" x="0px" y="0px"
	 width="100%" viewBox="0 0 1024 1024" enable-background="new 0 0 1024 1024" xml:space="preserve">
<path fill="#000000" opacity="1.000000" stroke="none" 
	d="
M671.000000,1025.000000 
	C447.333344,1025.000000 224.166672,1025.000000 1.000000,1025.000000 
	C1.000000,683.666687 1.000000,342.333344 1.000000,1.000000 
	C342.333344,1.000000 683.666687,1.000000 1025.000000,1.000000 
	C1025.000000,342.333344 1025.000000,683.666687 1025.000000,1025.000000 
	C907.166687,1025.000000 789.333313,1025.000000 671.000000,1025.000000 
M342.999756,709.589478 
	C343.163330,710.097656 343.326874,710.605774 343.490448,711.113953 
	C343.660614,710.729980 343.830780,710.345947 344.637268,710.032532 
	C345.411407,710.380066 346.185516,710.727539 346.968475,711.623352 
	C346.973419,711.989380 346.978333,712.355408 346.321930,712.968689 
	C347.489105,714.108704 348.459076,715.769958 349.857391,716.298889 
	C356.062653,718.645874 362.390717,720.668213 369.429810,722.950134 
	C370.284607,722.265747 371.139404,721.581360 372.788940,720.939880 
	C373.849304,720.982117 374.909637,721.024353 376.076202,721.702393 
	C376.719391,722.141907 377.362579,722.581421 378.317291,723.816406 
	C383.195068,724.214111 388.075562,724.969482 392.950043,724.932617 
	C402.150116,724.862915 411.347290,724.351257 420.543091,723.961792 
	C421.026062,723.941284 421.484863,723.349670 422.897888,723.024353 
	C438.925507,723.013733 454.953094,723.003113 471.767670,723.101807 
	C475.148895,723.072021 478.530090,723.019836 481.911346,723.016296 
	C496.959412,723.000427 512.007996,723.056458 527.054749,722.910156 
	C528.725281,722.893921 530.384827,721.752502 532.682129,721.107788 
	C533.104126,721.117126 533.526062,721.126465 534.128845,721.784729 
	C535.436340,721.567932 536.743835,721.351135 538.867126,721.093811 
	C540.227600,721.110901 541.588074,721.127991 543.178833,721.860718 
	C545.956177,723.344299 548.696350,724.407471 551.985229,721.113403 
	C566.064575,721.390808 580.142822,721.808350 594.223450,721.909973 
	C611.817078,722.036987 629.412476,721.903992 646.993347,722.316040 
	C646.993347,722.316040 646.980652,722.746582 646.054199,722.878662 
	C639.677124,722.996521 633.299988,723.114319 626.216187,723.163940 
	C625.507568,723.200623 624.799011,723.237366 623.176819,722.996277 
	C616.975037,722.996277 610.773254,722.996277 604.571472,722.996277 
	C604.578491,723.336792 604.585571,723.677307 604.592590,724.017822 
	C610.351074,724.017822 616.109619,724.017822 622.292114,724.801575 
	C627.099731,724.870972 631.910706,725.078979 636.713867,724.963623 
	C640.239563,724.878906 643.755188,724.370239 647.921387,724.140137 
	C648.306885,723.754333 648.692383,723.368469 649.667542,723.008118 
	C650.206909,722.839050 650.746277,722.670044 651.285645,722.500977 
	C650.880798,722.026489 650.475891,721.552002 650.890381,721.036865 
	C652.256897,720.994385 653.623413,720.951965 655.294006,721.539551 
	C657.296753,721.579712 659.299561,721.619934 661.302307,721.660095 
	C661.229492,720.807861 661.156616,719.955627 661.717346,719.053833 
	C662.140320,719.029236 662.563354,719.004639 663.520020,719.225525 
	C664.042786,719.484070 664.565552,719.742615 665.655396,720.205261 
	C671.583862,719.558044 676.758545,717.305908 681.548401,712.753601 
	C681.998230,711.823975 682.447998,710.894348 683.228027,709.409424 
	C684.151855,708.933838 685.075623,708.458313 686.042969,708.560181 
	C688.044922,707.334106 690.046875,706.108032 692.756897,704.980408 
	C701.931213,698.823059 707.840149,689.916199 712.766174,680.379883 
	C714.334961,677.342896 714.353760,673.505249 714.473633,670.009155 
	C714.270691,670.008301 714.067810,670.007507 713.917053,669.274536 
	C713.973938,668.542664 714.030884,667.810730 714.635559,667.295227 
	C715.294861,667.252747 715.954102,667.210205 716.613403,667.167725 
	C716.044067,666.777527 715.474792,666.387329 714.953003,665.264526 
	C714.996155,664.531616 715.039246,663.798706 715.668579,663.300964 
	C716.425842,662.768555 717.183044,662.236145 717.940308,661.703735 
	C717.273193,660.803833 716.606018,659.903931 715.948730,658.066284 
	C715.936707,640.707703 715.924683,623.349182 716.382935,606.000183 
	C716.382935,606.000183 716.853271,606.012207 716.996704,606.798401 
	C717.059204,607.858826 717.121704,608.919250 717.024170,610.908264 
	C717.024170,621.034790 717.024170,631.161255 717.024170,641.287781 
	C717.287903,641.287659 717.551636,641.287537 717.815369,641.287415 
	C717.815369,630.851440 717.815369,620.415527 717.972046,609.056458 
	C717.984619,557.524963 718.005249,505.993439 717.968628,454.461945 
	C717.967590,452.990448 717.357422,451.519440 716.999146,449.106049 
	C716.999146,427.285645 716.999146,405.465210 716.999146,383.644806 
	C716.624023,383.642700 716.248901,383.640625 715.873779,383.638519 
	C715.873779,388.082855 715.873779,392.527222 715.468201,396.981964 
	C715.468201,396.981964 715.062805,396.967926 715.038757,396.035706 
	C714.988770,390.020782 714.938721,384.005859 715.362305,378.001526 
	C715.362305,378.001526 715.833740,378.011780 716.216064,378.668732 
	C716.487244,377.342743 717.196472,375.933014 716.961487,374.703766 
	C714.719788,362.977203 709.457947,352.670715 701.448975,342.932800 
	C693.567444,333.193481 684.346497,325.314758 672.126038,320.965057 
	C666.566406,317.825745 660.627075,316.381134 653.734924,316.213745 
	C653.076904,316.139496 652.418945,316.000366 651.760925,316.000275 
	C579.647400,315.990234 507.533875,315.985931 435.420380,316.031250 
	C434.262848,316.031982 433.105682,316.647736 431.017365,317.001068 
	C415.986694,317.062408 400.955994,317.123718 385.010345,317.066742 
	C376.807220,318.033783 368.598724,318.960663 360.412720,320.055634 
	C359.849640,320.130951 359.454559,321.461884 359.214203,322.636658 
	C359.447968,323.055634 359.681702,323.474609 359.278992,323.945312 
	C358.854462,323.976898 358.429932,324.008484 357.614868,323.523956 
	C355.466614,322.937500 353.489136,322.607147 353.278625,326.075653 
	C351.195190,327.064209 349.111755,328.052795 346.445801,328.757263 
	C345.684143,329.229431 344.922485,329.701599 343.878540,330.568329 
	C343.623779,330.802887 343.324341,330.900604 342.609192,330.489441 
	C342.078949,331.333588 341.548737,332.177704 340.352203,333.082672 
	C339.907562,333.059753 339.462952,333.036804 338.301910,333.046112 
	C337.203125,334.697876 336.104309,336.349640 334.692474,338.583344 
	C332.802826,340.400085 330.913147,342.216858 328.452820,343.804901 
	C323.192352,344.728729 322.953705,349.552063 321.142670,353.869537 
	C321.068878,354.557007 320.995117,355.244446 320.423798,355.726410 
	C319.944397,355.486176 319.465027,355.245972 318.283722,355.149323 
	C312.538544,363.226013 309.842133,372.236816 309.167969,382.351959 
	C309.109619,383.179474 309.000183,384.006958 309.000214,384.834473 
	C309.002228,439.960663 309.011688,495.086884 309.033600,550.213074 
	C309.034027,551.268677 309.190918,552.324341 309.274811,553.379944 
	C309.566040,553.375488 309.857269,553.371033 310.148499,553.366577 
	C310.148499,550.249329 310.148499,547.132019 310.713501,544.009644 
	C311.087891,544.029602 311.462311,544.049561 311.887604,544.987976 
	C311.568298,577.966431 311.249023,610.944946 310.395660,643.373962 
	C310.254211,641.231079 310.112762,639.088257 309.923676,636.019775 
	C309.923676,612.466309 309.923676,588.912903 309.923676,565.359436 
	C309.609772,565.349792 309.295837,565.340149 308.981934,565.330505 
	C308.981934,567.196289 308.981934,569.062012 308.183563,571.314453 
	C308.119995,598.888550 308.050110,626.462585 308.036469,654.036682 
	C308.036163,654.611572 308.686584,655.186707 309.130310,656.682800 
	C309.410797,659.916321 309.158508,663.311401 310.079590,666.350769 
	C312.182617,673.290466 313.325348,680.762085 319.036499,685.970215 
	C319.036499,685.970215 318.913116,685.959839 318.977539,686.711548 
	C320.812500,689.762817 322.647430,692.814087 324.862335,696.338989 
	C326.266449,697.217041 327.670593,698.095154 329.781189,698.913208 
	C331.529327,700.266724 333.277466,701.620178 335.021729,703.675964 
	C335.695557,704.900391 336.369385,706.124756 337.043243,707.349182 
	C337.364929,706.919434 337.686646,706.489685 338.644806,706.062439 
	C339.436218,706.700562 340.227631,707.338684 340.984772,708.582520 
	C341.031219,709.150696 341.077667,709.718933 341.147186,710.569153 
	C341.911194,709.923157 342.451935,709.466003 343.000000,709.000000 
	C343.000000,709.000000 342.994781,709.008911 342.999756,709.589478 
z"/>
<path fill="#07273F" opacity="1.000000" stroke="none" 
	d="
M320.921356,355.931915 
	C320.995117,355.244446 321.068878,354.557007 321.484344,353.440216 
	C324.225189,350.018463 326.624329,347.026031 329.023499,344.033600 
	C330.913147,342.216858 332.802826,340.400085 335.148743,338.148926 
	C336.742767,336.147583 337.880524,334.580719 339.018311,333.013855 
	C339.462952,333.036804 339.907562,333.059753 340.964050,332.929199 
	C342.044006,332.137634 342.512115,331.499542 342.980255,330.861450 
	C343.324341,330.900604 343.623779,330.802887 344.336609,330.325500 
	C345.539215,329.735565 346.283752,329.388428 347.028320,329.041321 
	C349.111755,328.052795 351.195190,327.064209 353.955597,326.000793 
	C355.756866,325.297333 356.881134,324.668701 358.005402,324.040070 
	C358.429932,324.008484 358.854462,323.976898 359.966736,323.807098 
	C370.776306,322.120880 380.892731,319.271667 391.020844,319.229553 
	C476.667969,318.873383 562.317566,318.937042 647.965332,319.209198 
	C654.760620,319.230804 661.659729,321.369781 668.304077,323.253479 
	C673.796997,324.810791 678.984436,327.445801 684.294800,329.615479 
	C684.282349,329.627625 684.314697,329.621094 684.248901,330.006958 
	C685.205139,330.867371 686.227112,331.341919 687.181213,331.834900 
	C687.113342,331.853333 687.129883,331.713654 687.221375,332.007263 
	C687.683044,332.424347 688.053284,332.547821 688.348633,332.675232 
	C688.273865,332.679199 688.388123,332.582336 688.295715,332.945923 
	C689.900757,334.518555 691.598206,335.727570 693.495850,336.963745 
	C693.974243,337.123322 694.104065,337.343292 694.177551,337.948059 
	C694.608215,338.459290 694.946960,338.673187 695.211304,338.890076 
	C695.136963,338.893097 695.180725,338.750793 695.143250,339.103333 
	C695.591858,339.657654 696.077942,339.859406 696.701599,340.178040 
	C696.839172,340.294922 696.907654,340.649414 696.714966,340.855133 
	C696.781921,341.041351 697.041565,341.021851 697.512085,341.066284 
	C697.722900,341.130219 697.921204,341.523804 697.679688,341.841034 
	C698.745056,343.338745 700.051941,344.519257 701.265991,345.804382 
	C701.173157,345.909027 701.312561,345.666412 701.233887,346.017761 
	C701.618347,346.619446 702.081543,346.869720 702.654907,347.215637 
	C702.765137,347.311279 702.864258,347.585785 702.644409,347.904907 
	C703.054749,348.735565 703.684937,349.247070 704.247437,349.812347 
	C704.179749,349.866119 704.255066,349.710480 704.157471,350.100220 
	C704.688110,352.407654 703.777039,355.564362 707.754333,355.052429 
	C707.897583,355.203400 707.906677,355.619537 707.659119,355.935364 
	C709.903931,363.497803 712.396362,370.744354 714.888733,377.990936 
	C714.938721,384.005859 714.988770,390.020782 715.022705,396.973206 
	C715.017212,465.686737 715.021912,533.462708 715.074951,601.238708 
	C715.076172,602.822876 715.621216,604.406616 715.912659,605.990601 
	C715.924683,623.349182 715.936707,640.707703 715.692444,658.786011 
	C715.318176,660.692444 715.200256,661.879089 715.082336,663.065796 
	C715.039246,663.798706 714.996155,664.531616 714.723755,665.749512 
	C714.245544,666.461243 714.109985,666.742737 714.087830,667.078857 
	C714.030884,667.810730 713.973938,668.542664 713.631958,669.858887 
	C710.959229,676.375488 708.571655,682.307617 706.165833,688.186646 
	C706.147522,688.133484 706.252197,688.174622 705.871765,688.153381 
	C705.271790,688.892456 705.052185,689.652832 704.783203,690.528809 
	C704.733826,690.644470 704.554871,690.821167 704.225830,690.693848 
	C703.711670,691.158020 703.526489,691.749573 703.256775,692.153015 
	C703.172241,691.964905 703.361267,692.333313 702.992798,692.241211 
	C701.482483,693.853394 700.340576,695.557739 699.178467,697.195007 
	C699.158264,697.127991 699.297119,697.146057 699.003906,697.215332 
	C698.522400,697.622375 698.334106,697.960266 698.133301,698.208069 
	C698.120789,698.118042 698.301025,698.141846 698.006470,698.220520 
	C697.547058,698.651917 697.382202,699.004639 697.198547,699.267212 
	C697.179749,699.177002 697.360596,699.212463 697.058594,699.262329 
	C696.573914,699.655029 696.391296,699.997925 696.189941,700.257324 
	C696.171265,700.173950 696.338989,700.207214 696.040100,700.257690 
	C695.546448,700.642944 695.351685,700.977722 695.143005,701.222046 
	C695.129028,701.131653 695.310242,701.156982 695.016724,701.222168 
	C694.531128,701.620544 694.339111,701.953613 694.136475,702.221436 
	C694.125977,702.156128 694.252991,702.192932 693.905029,702.149414 
	C693.340759,702.579712 693.124451,703.053528 692.825684,703.638367 
	C692.743164,703.749329 692.504333,703.888855 692.195435,703.698181 
	C689.924133,704.999268 687.961792,706.490967 685.999451,707.982727 
	C685.075623,708.458313 684.151855,708.933838 682.713013,709.730408 
	C675.794128,713.027588 669.390198,716.003784 662.986328,718.979980 
	C662.563354,719.004639 662.140320,719.029236 661.065735,719.073364 
	C659.594482,719.414551 658.774841,719.736267 657.732056,720.056274 
	C657.508850,720.054626 657.063293,720.081726 656.765259,720.075439 
	C655.974792,720.349243 655.482361,720.629333 654.989929,720.909424 
	C653.623413,720.951965 652.256897,720.994385 650.141235,721.033997 
	C648.597107,721.315125 647.802124,721.599182 647.007141,721.883179 
	C629.412476,721.903992 611.817078,722.036987 594.223450,721.909973 
	C580.142822,721.808350 566.064575,721.390808 551.072021,721.088745 
	C547.755371,721.091064 545.351929,721.118103 542.948547,721.145142 
	C541.588074,721.127991 540.227600,721.110901 538.049805,721.070801 
	C536.137634,721.077148 535.042847,721.106445 533.948059,721.135742 
	C533.526062,721.126465 533.104126,721.117126 531.893921,721.076721 
	C479.393860,721.052612 427.681915,721.059570 375.970001,721.066528 
	C374.909637,721.024353 373.849304,720.982117 372.129242,720.664551 
	C363.299591,717.284546 355.129639,714.179810 346.959656,711.075073 
	C346.185516,710.727539 345.411407,710.380066 344.214783,709.780151 
	C343.586487,709.262512 343.320679,709.089539 342.994781,709.008911 
	C342.994781,709.008911 343.000000,709.000000 342.831696,708.759216 
	C342.115265,708.337952 341.567139,708.157410 341.018982,707.976929 
	C340.227631,707.338684 339.436218,706.700562 338.220703,705.761841 
	C336.872955,704.632019 335.949280,703.802856 335.025604,702.973633 
	C333.277466,701.620178 331.529327,700.266724 329.310364,698.823120 
	C328.839508,698.733032 328.898346,698.401245 328.910736,698.033081 
	C328.427734,697.394348 327.932312,697.123840 327.333008,696.767090 
	C327.229095,696.680786 327.106171,696.440247 327.341187,696.129883 
	C325.929871,693.978882 324.283569,692.138123 322.713257,690.190918 
	C322.789246,690.084351 322.688873,690.326050 322.799744,689.937500 
	C322.168976,688.776550 321.427307,688.004089 320.688904,687.204834 
	C320.692169,687.178040 320.679230,687.230225 320.784607,686.851074 
	C320.547546,685.213928 320.428223,683.836426 319.828461,682.716125 
	C313.333221,670.584961 310.398407,657.656616 310.929749,643.923401 
	C311.249023,610.944946 311.568298,577.966431 311.913605,544.054932 
	C311.963440,494.151794 312.184448,445.180542 311.888275,396.212433 
	C311.801880,381.928162 313.815399,368.443604 320.921356,355.931915 
M662.973938,661.396423 
	C662.920654,661.190430 662.867310,660.984375 662.839233,660.903870 
	C662.839233,660.903870 662.742737,660.819702 663.480774,660.895203 
	C668.670166,656.165771 668.886230,649.686646 668.895630,643.520081 
	C669.021606,560.952209 669.007935,478.384064 668.892761,395.816162 
	C668.887329,391.913513 667.729065,387.985046 666.832947,384.132538 
	C666.636108,383.286591 665.265808,382.713593 664.101929,381.708923 
	C664.101929,381.708923 664.101501,381.255981 664.595886,380.770813 
	C664.419983,380.177368 664.244080,379.583923 663.669067,378.540588 
	C663.287720,378.575439 662.906372,378.610291 662.486572,378.533081 
	C662.486572,378.533081 662.389099,378.465668 662.692322,377.745941 
	C662.029541,377.187988 661.366760,376.630035 660.280823,376.022766 
	C659.996155,375.862946 659.878662,375.621674 659.963806,374.514221 
	C658.833191,373.951202 657.702515,373.388184 656.361572,372.734558 
	C656.361572,372.734558 656.183044,372.591217 656.508545,371.896667 
	C651.501282,370.256439 646.510010,367.253754 641.484253,367.195068 
	C606.338135,366.784485 571.184875,366.984192 536.033936,366.985413 
	C486.889191,366.987183 437.743439,366.816559 388.600555,367.121277 
	C378.041351,367.186707 368.271881,370.390808 362.339813,381.316711 
	C360.895508,386.331451 358.208099,391.342255 358.192291,396.361481 
	C357.930328,479.477783 357.915680,562.595459 358.215637,645.711487 
	C358.234161,650.838318 361.323944,655.954102 363.366455,661.461548 
	C363.699585,661.389648 364.032684,661.317688 364.565338,661.375916 
	C364.565338,661.375916 364.677643,661.585999 364.326965,662.277161 
	C365.289307,663.135315 366.251648,663.993469 367.115143,664.882507 
	C367.115143,664.882507 367.147278,664.784119 367.102936,665.502686 
	C373.095978,672.325806 381.332306,673.782654 389.605347,673.903015 
	C427.779266,674.458496 465.958069,674.717224 504.135925,674.928467 
	C511.921143,674.971558 519.709229,674.103638 527.497253,674.081543 
	C564.121155,673.977783 600.750671,674.338684 637.364807,673.729065 
	C644.125488,673.616516 650.851990,669.874329 657.515808,667.579773 
	C658.319519,667.302979 658.630249,665.594177 659.321838,664.308777 
	C659.321838,664.308777 659.576355,664.181458 660.255798,664.556030 
	C660.549866,663.899780 660.843933,663.243591 661.304871,662.193237 
	C661.304871,662.193237 661.707520,662.047974 662.096497,662.419983 
	C662.402710,662.291199 662.708923,662.162354 662.973938,661.396423 
z"/>
<path fill="#070D15" opacity="1.000000" stroke="none" 
	d="
M684.307190,329.603333 
	C678.984436,327.445801 673.796997,324.810791 668.304077,323.253479 
	C661.659729,321.369781 654.760620,319.230804 647.965332,319.209198 
	C562.317566,318.937042 476.667969,318.873383 391.020844,319.229553 
	C380.892731,319.271667 370.776306,322.120880 360.284973,323.781250 
	C359.681702,323.474609 359.447968,323.055634 359.488464,322.340027 
	C368.481934,320.626556 377.201080,319.209686 386.386902,317.878754 
	C399.649994,317.964264 412.446594,318.007660 425.242798,317.950989 
	C437.858856,317.895111 450.474487,317.737946 463.391785,317.653046 
	C464.095917,317.659576 464.498566,317.638275 465.359070,317.752563 
	C525.019836,317.901215 584.222900,318.000061 643.425293,317.843414 
	C653.355652,317.817139 662.911011,318.895905 672.425293,322.879150 
	C676.611511,325.207123 680.459351,327.405243 684.307190,329.603333 
z"/>
<path fill="#070D15" opacity="1.000000" stroke="none" 
	d="
M716.147827,605.995361 
	C715.621216,604.406616 715.076172,602.822876 715.074951,601.238708 
	C715.021912,533.462708 715.017212,465.686737 715.034668,397.439331 
	C715.062805,396.967926 715.468201,396.981964 715.731262,397.444794 
	C716.030457,421.685822 716.050720,445.464081 716.132385,469.242126 
	C716.139099,471.189056 716.563782,473.134552 716.835693,475.542603 
	C716.908569,485.635651 716.972351,495.266785 716.965393,504.897888 
	C716.941162,538.602661 716.892578,572.307434 716.853271,606.012207 
	C716.853271,606.012207 716.382935,606.000183 716.147827,605.995361 
z"/>
<path fill="#070D15" opacity="1.000000" stroke="none" 
	d="
M320.672577,355.829163 
	C313.815399,368.443604 311.801880,381.928162 311.888275,396.212433 
	C312.184448,445.180542 311.963440,494.151794 311.888153,543.595703 
	C311.462311,544.049561 311.087891,544.029602 310.350952,543.548340 
	C310.018158,521.923584 310.063446,500.760101 310.073273,479.596619 
	C310.082916,458.773407 310.056519,437.950226 310.168884,416.731018 
	C310.337646,410.874390 310.220978,405.406403 310.466156,399.954681 
	C310.865784,391.068573 310.782928,382.069733 312.278320,373.354370 
	C313.361694,367.040405 316.669678,361.108185 318.985626,355.005737 
	C319.465027,355.245972 319.944397,355.486176 320.672577,355.829163 
z"/>
<path fill="#070D15" opacity="1.000000" stroke="none" 
	d="
M376.023102,721.384460 
	C427.681915,721.059570 479.393860,721.052612 531.577637,721.089233 
	C530.384827,721.752502 528.725281,722.893921 527.054749,722.910156 
	C512.007996,723.056458 496.959412,723.000427 481.911346,723.016296 
	C478.530090,723.019836 475.148895,723.072021 471.083160,722.751221 
	C469.754669,722.276306 469.110840,722.044128 468.466705,722.043335 
	C450.394440,722.020508 432.322083,722.007690 414.249908,722.051270 
	C413.151794,722.053894 412.054871,722.535645 410.722260,722.856567 
	C410.487122,722.918701 410.016724,722.795044 409.683472,722.553833 
	C404.560181,722.475769 399.770172,722.638977 394.517975,722.868225 
	C388.705811,722.963196 383.355804,722.992065 378.005798,723.020996 
	C377.362579,722.581421 376.719391,722.141907 376.023102,721.384460 
z"/>
<path fill="#FCFBF7" opacity="1.000000" stroke="none" 
	d="
M464.901184,317.617004 
	C464.498566,317.638275 464.095917,317.659576 463.038971,317.429016 
	C452.239227,317.110260 442.093781,317.043365 431.948364,316.976471 
	C433.105682,316.647736 434.262848,316.031982 435.420380,316.031250 
	C507.533875,315.985931 579.647400,315.990234 651.760925,316.000275 
	C652.418945,316.000366 653.076904,316.139496 653.505005,316.652893 
	C591.597656,317.055908 529.920166,317.016479 468.242737,317.010162 
	C467.128906,317.010040 466.015045,317.405914 464.901184,317.617004 
z"/>
<path fill="#9CADB3" opacity="1.000000" stroke="none" 
	d="
M465.359070,317.752563 
	C466.015045,317.405914 467.128906,317.010040 468.242737,317.010162 
	C529.920166,317.016479 591.597656,317.055908 653.755127,317.024567 
	C660.627075,316.381134 666.566406,317.825745 672.175049,321.601501 
	C672.178345,322.408356 672.132690,322.578796 672.086975,322.749268 
	C662.911011,318.895905 653.355652,317.817139 643.425293,317.843414 
	C584.222900,318.000061 525.019836,317.901215 465.359070,317.752563 
z"/>
<path fill="#FCFBF7" opacity="1.000000" stroke="none" 
	d="
M310.045959,417.127014 
	C310.056519,437.950226 310.082916,458.773407 310.073273,479.596619 
	C310.063446,500.760101 310.018158,521.923584 310.068420,543.550903 
	C310.148499,547.132019 310.148499,550.249329 310.148499,553.366577 
	C309.857269,553.371033 309.566040,553.375488 309.274811,553.379944 
	C309.190918,552.324341 309.034027,551.268677 309.033600,550.213074 
	C309.011688,495.086884 309.002228,439.960663 309.000214,384.834473 
	C309.000183,384.006958 309.109619,383.179474 309.558350,382.699127 
	C309.981171,394.406525 310.013580,405.766785 310.045959,417.127014 
z"/>
<path fill="#FCFBF7" opacity="1.000000" stroke="none" 
	d="
M716.924988,606.405273 
	C716.892578,572.307434 716.941162,538.602661 716.965393,504.897888 
	C716.972351,495.266785 716.908569,485.635651 716.944641,475.078308 
	C717.018433,466.117493 717.024780,458.082855 717.031189,450.048218 
	C717.357422,451.519440 717.967590,452.990448 717.968628,454.461945 
	C718.005249,505.993439 717.984619,557.524963 717.735901,609.517090 
	C717.499756,609.977722 717.184204,609.979675 717.184204,609.979675 
	C717.121704,608.919250 717.059204,607.858826 716.924988,606.405273 
z"/>
<path fill="#3A5563" opacity="1.000000" stroke="none" 
	d="
M717.015137,449.577148 
	C717.024780,458.082855 717.018433,466.117493 716.903198,474.616425 
	C716.563782,473.134552 716.139099,471.189056 716.132385,469.242126 
	C716.050720,445.464081 716.030457,421.685822 715.934082,397.439575 
	C715.873779,392.527222 715.873779,388.082855 715.873779,383.638519 
	C716.248901,383.640625 716.624023,383.642700 716.999146,383.644806 
	C716.999146,405.465210 716.999146,427.285645 717.015137,449.577148 
z"/>
<path fill="#070D15" opacity="1.000000" stroke="none" 
	d="
M310.662720,643.648682 
	C310.398407,657.656616 313.333221,670.584961 319.828461,682.716125 
	C320.428223,683.836426 320.547546,685.213928 320.538391,686.659668 
	C319.762268,686.551514 319.337677,686.255676 318.913086,685.959839 
	C318.913116,685.959839 319.036499,685.970215 319.117493,685.660706 
	C313.869263,675.802002 310.937866,665.460938 309.158997,654.310669 
	C309.214264,648.274963 309.207153,642.688599 309.394653,637.071777 
	C309.589264,637.041321 309.971344,636.945374 309.971344,636.945374 
	C310.112762,639.088257 310.254211,641.231079 310.662720,643.648682 
z"/>
<path fill="#FCFBF7" opacity="1.000000" stroke="none" 
	d="
M309.200012,637.102173 
	C309.207153,642.688599 309.214264,648.274963 309.111450,654.559204 
	C309.012207,655.425293 309.022827,655.593506 309.033447,655.761719 
	C308.686584,655.186707 308.036163,654.611572 308.036469,654.036682 
	C308.050110,626.462585 308.119995,598.888550 308.615784,571.593506 
	C309.098694,593.615784 309.149384,615.359009 309.200012,637.102173 
z"/>
<path fill="#9CADB3" opacity="1.000000" stroke="none" 
	d="
M431.482849,316.988770 
	C442.093781,317.043365 452.239227,317.110260 462.737488,317.401184 
	C450.474487,317.737946 437.858856,317.895111 425.242798,317.950989 
	C412.446594,318.007660 399.649994,317.964264 386.375366,317.726685 
	C385.897156,317.488708 385.925323,317.185028 385.925323,317.185028 
	C400.955994,317.123718 415.986694,317.062408 431.482849,316.988770 
z"/>
<path fill="#EAEFF1" opacity="1.000000" stroke="none" 
	d="
M310.168884,416.731018 
	C310.013580,405.766785 309.981171,394.406525 309.983337,382.586975 
	C309.842133,372.236816 312.538544,363.226013 318.634674,355.077515 
	C316.669678,361.108185 313.361694,367.040405 312.278320,373.354370 
	C310.782928,382.069733 310.865784,391.068573 310.466156,399.954681 
	C310.220978,405.406403 310.337646,410.874390 310.168884,416.731018 
z"/>
<path fill="#3A5563" opacity="1.000000" stroke="none" 
	d="
M309.394653,637.071777 
	C309.149384,615.359009 309.098694,593.615784 309.014984,571.400208 
	C308.981934,569.062012 308.981934,567.196289 308.981934,565.330505 
	C309.295837,565.340149 309.609772,565.349792 309.923676,565.359436 
	C309.923676,588.912903 309.923676,612.466309 309.947510,636.482544 
	C309.971344,636.945374 309.589264,637.041321 309.394653,637.071777 
z"/>
<path fill="#EAEFF1" opacity="1.000000" stroke="none" 
	d="
M715.081848,670.033936 
	C714.353760,673.505249 714.334961,677.342896 712.766174,680.379883 
	C707.840149,689.916199 701.931213,698.823059 692.403931,704.740723 
	C692.197693,704.293701 692.348816,704.089661 692.504333,703.888855 
	C692.504333,703.888855 692.743164,703.749329 693.021729,703.495483 
	C693.617920,702.892029 693.935486,702.542480 694.252991,702.192932 
	C694.252991,702.192932 694.125977,702.156128 694.396484,702.108826 
	C694.881470,701.760010 695.095825,701.458496 695.310242,701.156982 
	C695.310242,701.156982 695.129028,701.131653 695.404053,701.113281 
	C695.899048,700.799011 696.119019,700.503113 696.338989,700.207214 
	C696.338989,700.207214 696.171265,700.173950 696.445984,700.142212 
	C696.934021,699.811157 697.147278,699.511780 697.360596,699.212463 
	C697.360596,699.212463 697.179749,699.177002 697.453735,699.141357 
	C697.918823,698.784485 698.109924,698.463196 698.301025,698.141846 
	C698.301025,698.141846 698.120789,698.118042 698.395142,698.094788 
	C698.878723,697.763062 699.087952,697.454529 699.297119,697.146057 
	C699.297119,697.146057 699.158264,697.127991 699.464233,697.032104 
	C700.967285,695.401917 702.164307,693.867615 703.361328,692.333313 
	C703.361267,692.333313 703.172241,691.964905 703.466187,692.020874 
	C704.025024,691.658203 704.289917,691.239685 704.554871,690.821167 
	C704.554871,690.821167 704.733826,690.644470 704.966797,690.332214 
	C705.550598,689.404846 705.901428,688.789734 706.252197,688.174622 
	C706.252197,688.174622 706.147522,688.133484 706.453125,687.991882 
	C709.533081,681.911499 712.307434,675.972717 715.081848,670.033936 
z"/>
<path fill="#EAEFF1" opacity="1.000000" stroke="none" 
	d="
M672.425293,322.879150 
	C672.132690,322.578796 672.178345,322.408356 672.122559,321.993225 
	C684.346497,325.314758 693.567444,333.193481 701.382080,343.381958 
	C701.137085,343.955292 700.958862,344.079498 700.517700,344.081604 
	C699.476868,343.147614 698.699036,342.335724 697.921204,341.523804 
	C697.921204,341.523804 697.722900,341.130219 697.443115,341.012451 
	C697.163391,340.894653 696.907654,340.649414 696.907654,340.649414 
	C696.907654,340.649414 696.839172,340.294922 696.568542,339.972778 
	C695.925537,339.350677 695.553101,339.050720 695.180725,338.750793 
	C695.180725,338.750793 695.136963,338.893097 695.090698,338.615875 
	C694.724792,338.109344 694.405212,337.880035 694.085632,337.650757 
	C694.104065,337.343292 693.974243,337.123322 693.333984,336.666931 
	C691.443970,335.089478 689.916016,333.835907 688.388123,332.582336 
	C688.388123,332.582336 688.273865,332.679199 688.200867,332.437439 
	C687.795227,332.035004 687.462524,331.874329 687.129883,331.713654 
	C687.129883,331.713654 687.113342,331.853333 687.021423,331.564941 
	C686.057922,330.724731 685.186279,330.172913 684.314697,329.621094 
	C684.314697,329.621094 684.282349,329.627625 684.294800,329.615479 
	C680.459351,327.405243 676.611511,325.207123 672.425293,322.879150 
z"/>
<path fill="#EAEFF1" opacity="1.000000" stroke="none" 
	d="
M701.596924,343.667358 
	C709.457947,352.670715 714.719788,362.977203 716.961487,374.703766 
	C717.196472,375.933014 716.487244,377.342743 716.081177,377.947510 
	C713.266418,370.024017 710.586548,362.821777 707.906677,355.619537 
	C707.906677,355.619537 707.897583,355.203400 707.641357,354.783203 
	C706.341736,352.812164 705.298401,351.261322 704.255066,349.710480 
	C704.255066,349.710480 704.179749,349.866119 704.165222,349.558807 
	C703.721863,348.696259 703.293030,348.141022 702.864258,347.585785 
	C702.864258,347.585785 702.765137,347.311279 702.516235,347.015381 
	C701.949097,346.368500 701.630859,346.017456 701.312561,345.666412 
	C701.312561,345.666412 701.173157,345.909027 701.172424,345.552673 
	C701.041321,344.865448 700.911011,344.534576 700.780701,344.203705 
	C700.958862,344.079498 701.137085,343.955292 701.596924,343.667358 
z"/>
<path fill="#07273F" opacity="1.000000" stroke="none" 
	d="
M410.957397,722.794556 
	C412.054871,722.535645 413.151794,722.053894 414.249908,722.051270 
	C432.322083,722.007690 450.394440,722.020508 468.466705,722.043335 
	C469.110840,722.044128 469.754669,722.276306 470.689697,722.696594 
	C454.953094,723.003113 438.925507,723.013733 421.970612,722.996216 
	C417.681366,722.910278 414.319366,722.852417 410.957397,722.794556 
z"/>
<path fill="#FCFBF7" opacity="1.000000" stroke="none" 
	d="
M410.722260,722.856628 
	C414.319366,722.852417 417.681366,722.910278 421.499146,722.996094 
	C421.484863,723.349670 421.026062,723.941284 420.543091,723.961792 
	C411.347290,724.351257 402.150116,724.862915 392.950043,724.932617 
	C388.075562,724.969482 383.195068,724.214111 378.161560,723.418701 
	C383.355804,722.992065 388.705811,722.963196 394.979187,722.955566 
	C400.607300,722.916199 405.312012,722.855652 410.016724,722.795044 
	C410.016724,722.795044 410.487122,722.918701 410.722260,722.856628 
z"/>
<path fill="#070D15" opacity="1.000000" stroke="none" 
	d="
M346.964081,711.349182 
	C355.129639,714.179810 363.299591,717.284546 371.731873,720.643127 
	C371.139404,721.581360 370.284607,722.265747 368.999634,722.536865 
	C367.933044,721.744873 367.330475,721.286316 366.654938,720.999939 
	C360.104736,718.223938 353.542236,715.476807 346.983246,712.721436 
	C346.978333,712.355408 346.973419,711.989380 346.964081,711.349182 
z"/>
<path fill="#EAEFF1" opacity="1.000000" stroke="none" 
	d="
M309.081879,656.222290 
	C309.022827,655.593506 309.012207,655.425293 309.049072,655.008545 
	C310.937866,665.460938 313.869263,675.802002 319.119080,685.722595 
	C313.325348,680.762085 312.182617,673.290466 310.079590,666.350769 
	C309.158508,663.311401 309.410797,659.916321 309.081879,656.222290 
z"/>
<path fill="#EAEFF1" opacity="1.000000" stroke="none" 
	d="
M385.467834,317.125885 
	C385.925323,317.185028 385.897156,317.488708 385.908691,317.640747 
	C377.201080,319.209686 368.481934,320.626556 359.372070,322.126160 
	C359.454559,321.461884 359.849640,320.130951 360.412720,320.055634 
	C368.598724,318.960663 376.807220,318.033783 385.467834,317.125885 
z"/>
<path fill="#070D15" opacity="1.000000" stroke="none" 
	d="
M707.659119,355.935364 
	C710.586548,362.821777 713.266418,370.024017 715.890015,377.619019 
	C715.833740,378.011780 715.362305,378.001526 715.125488,377.996216 
	C712.396362,370.744354 709.903931,363.497803 707.659119,355.935364 
z"/>
<path fill="#070D15" opacity="1.000000" stroke="none" 
	d="
M663.253174,719.102783 
	C669.390198,716.003784 675.794128,713.027588 682.547852,710.008057 
	C682.447998,710.894348 681.998230,711.823975 680.896484,712.862915 
	C675.192566,715.315186 670.140442,717.658203 665.088379,720.001160 
	C664.565552,719.742615 664.042786,719.484070 663.253174,719.102783 
z"/>
<path fill="#EAEFF1" opacity="1.000000" stroke="none" 
	d="
M346.652588,712.845093 
	C353.542236,715.476807 360.104736,718.223938 366.654938,720.999939 
	C367.330475,721.286316 367.933044,721.744873 368.621918,722.465759 
	C362.390717,720.668213 356.062653,718.645874 349.857391,716.298889 
	C348.459076,715.769958 347.489105,714.108704 346.652588,712.845093 
z"/>
<path fill="#070D15" opacity="1.000000" stroke="none" 
	d="
M714.777710,670.021545 
	C712.307434,675.972717 709.533081,681.911499 706.471436,688.045044 
	C708.571655,682.307617 710.959229,676.375488 713.605835,670.225037 
	C714.067810,670.007507 714.270691,670.008301 714.777710,670.021545 
z"/>
<path fill="#EAEFF1" opacity="1.000000" stroke="none" 
	d="
M717.104187,610.443970 
	C717.184204,609.979675 717.499756,609.977722 717.657593,609.978638 
	C717.815369,620.415527 717.815369,630.851440 717.815369,641.287415 
	C717.551636,641.287537 717.287903,641.287659 717.024170,641.287781 
	C717.024170,631.161255 717.024170,621.034790 717.104187,610.443970 
z"/>
<path fill="#FCFBF7" opacity="1.000000" stroke="none" 
	d="
M624.090393,723.274048 
	C624.799011,723.237366 625.507568,723.200623 626.904419,723.453125 
	C634.153503,723.844971 640.714355,723.947754 647.275269,724.050537 
	C643.755188,724.370239 640.239563,724.878906 636.713867,724.963623 
	C631.910706,725.078979 627.099731,724.870972 622.379944,724.364624 
	C623.008667,723.709778 623.549500,723.491882 624.090393,723.274048 
z"/>
<path fill="#070D15" opacity="1.000000" stroke="none" 
	d="
M328.738159,343.919250 
	C326.624329,347.026031 324.225189,350.018463 321.500000,353.094788 
	C322.953705,349.552063 323.192352,344.728729 328.738159,343.919250 
z"/>
<path fill="#EAEFF1" opacity="1.000000" stroke="none" 
	d="
M665.371887,720.103210 
	C670.140442,717.658203 675.192566,715.315186 680.609009,712.991272 
	C676.758545,717.305908 671.583862,719.558044 665.371887,720.103210 
z"/>
<path fill="#9CADB3" opacity="1.000000" stroke="none" 
	d="
M647.598328,724.095337 
	C640.714355,723.947754 634.153503,723.844971 627.257751,723.487183 
	C633.299988,723.114319 639.677124,722.996521 646.866943,722.858826 
	C648.145813,722.886902 648.611816,722.934814 649.077881,722.982666 
	C648.692383,723.368469 648.306885,723.754333 647.598328,724.095337 
z"/>
<path fill="#9CADB3" opacity="1.000000" stroke="none" 
	d="
M623.633606,723.135132 
	C623.549500,723.491882 623.008667,723.709778 622.167969,723.972778 
	C616.109619,724.017822 610.351074,724.017822 604.592590,724.017822 
	C604.585571,723.677307 604.578491,723.336792 604.571472,722.996277 
	C610.773254,722.996277 616.975037,722.996277 623.633606,723.135132 
z"/>
<path fill="#070D15" opacity="1.000000" stroke="none" 
	d="
M692.195435,703.698181 
	C692.348816,704.089661 692.197693,704.293701 692.049927,704.691528 
	C690.046875,706.108032 688.044922,707.334106 686.021240,708.271484 
	C687.961792,706.490967 689.924133,704.999268 692.195435,703.698181 
z"/>
<path fill="#070D15" opacity="1.000000" stroke="none" 
	d="
M655.141968,721.224487 
	C655.482361,720.629333 655.974792,720.349243 656.843018,720.221497 
	C657.218750,720.373840 657.660583,720.436401 657.660583,720.436401 
	C657.660583,720.436401 657.955200,720.057983 657.955200,720.057983 
	C658.774841,719.736267 659.594482,719.414551 660.748901,719.098145 
	C661.156616,719.955627 661.229492,720.807861 661.302307,721.660156 
	C659.299561,721.619934 657.296753,721.579712 655.141968,721.224487 
z"/>
<path fill="#EAEFF1" opacity="1.000000" stroke="none" 
	d="
M318.945312,686.335693 
	C319.337677,686.255676 319.762268,686.551514 320.433044,687.038757 
	C320.679230,687.230225 320.692169,687.178040 320.783997,687.503662 
	C321.480194,688.661560 322.084534,689.493774 322.688873,690.326050 
	C322.688873,690.326050 322.789246,690.084351 322.825867,690.497864 
	C323.657959,692.199036 324.453430,693.486755 325.044983,695.038513 
	C324.721497,695.490173 324.601929,695.677795 324.482361,695.865356 
	C322.647430,692.814087 320.812500,689.762817 318.945312,686.335693 
z"/>
<path fill="#070D15" opacity="1.000000" stroke="none" 
	d="
M543.063721,721.502930 
	C545.351929,721.118103 547.755371,721.091064 550.607849,721.114990 
	C548.696350,724.407471 545.956177,723.344299 543.063721,721.502930 
z"/>
<path fill="#070D15" opacity="1.000000" stroke="none" 
	d="
M715.375488,663.183350 
	C715.200256,661.879089 715.318176,660.692444 715.687500,659.254883 
	C716.606018,659.903931 717.273193,660.803833 717.940308,661.703735 
	C717.183044,662.236145 716.425842,662.768555 715.375488,663.183350 
z"/>
<path fill="#070D15" opacity="1.000000" stroke="none" 
	d="
M338.660095,333.029968 
	C337.880524,334.580719 336.742767,336.147583 335.305237,337.857910 
	C336.104309,336.349640 337.203125,334.697876 338.660095,333.029968 
z"/>
<path fill="#070D15" opacity="1.000000" stroke="none" 
	d="
M357.810120,323.782013 
	C356.881134,324.668701 355.756866,325.297333 354.298950,325.941528 
	C353.489136,322.607147 355.466614,322.937500 357.810120,323.782013 
z"/>
<path fill="#070D15" opacity="1.000000" stroke="none" 
	d="
M335.023682,703.324829 
	C335.949280,703.802856 336.872955,704.632019 337.902496,705.760620 
	C337.686646,706.489685 337.364929,706.919434 337.043243,707.349182 
	C336.369385,706.124756 335.695557,704.900391 335.023682,703.324829 
z"/>
<path fill="#EAEFF1" opacity="1.000000" stroke="none" 
	d="
M328.898346,698.401245 
	C328.898346,698.401245 328.839508,698.733032 328.957092,698.853149 
	C327.670593,698.095154 326.266449,697.217041 324.672363,696.102173 
	C324.601929,695.677795 324.721497,695.490173 325.282043,695.134583 
	C326.184052,695.457764 326.645111,695.949036 327.106171,696.440247 
	C327.106171,696.440247 327.229095,696.680786 327.494507,696.984009 
	C328.139374,697.658569 328.518860,698.029907 328.898346,698.401245 
z"/>
<path fill="#070D15" opacity="1.000000" stroke="none" 
	d="
M534.038452,721.460205 
	C535.042847,721.106445 536.137634,721.077148 537.641846,721.091064 
	C536.743835,721.351135 535.436340,721.567932 534.038452,721.460205 
z"/>
<path fill="#070D15" opacity="1.000000" stroke="none" 
	d="
M649.372681,722.995361 
	C648.611816,722.934814 648.145813,722.886902 647.330200,722.792786 
	C646.980652,722.746582 646.993347,722.316040 647.000244,722.099609 
	C647.802124,721.599182 648.597107,721.315125 649.731567,721.054321 
	C650.475891,721.552002 650.880798,722.026489 651.285645,722.500977 
	C650.746277,722.670044 650.206909,722.839050 649.372681,722.995361 
z"/>
<path fill="#070D15" opacity="1.000000" stroke="none" 
	d="
M714.361694,667.187012 
	C714.109985,666.742737 714.245544,666.461243 714.700012,666.115845 
	C715.474792,666.387329 716.044067,666.777527 716.613403,667.167725 
	C715.954102,667.210205 715.294861,667.252747 714.361694,667.187012 
z"/>
<path fill="#070D15" opacity="1.000000" stroke="none" 
	d="
M346.737061,328.899292 
	C346.283752,329.388428 345.539215,329.735565 344.477753,330.128235 
	C344.922485,329.701599 345.684143,329.229431 346.737061,328.899292 
z"/>
<path fill="#070D15" opacity="1.000000" stroke="none" 
	d="
M341.001892,708.279724 
	C341.567139,708.157410 342.115265,708.337952 342.828033,708.763611 
	C342.451935,709.466003 341.911194,709.923157 341.147186,710.569153 
	C341.077667,709.718933 341.031219,709.150696 341.001892,708.279724 
z"/>
<path fill="#070D15" opacity="1.000000" stroke="none" 
	d="
M342.794739,330.675446 
	C342.512115,331.499542 342.044006,332.137634 341.297180,332.898804 
	C341.548737,332.177704 342.078949,331.333588 342.794739,330.675446 
z"/>
<path fill="#070D15" opacity="1.000000" stroke="none" 
	d="
M342.997253,709.299194 
	C343.320679,709.089539 343.586487,709.262512 343.896606,709.744812 
	C343.830780,710.345947 343.660614,710.729980 343.490417,711.113953 
	C343.326874,710.605774 343.163330,710.097656 342.997253,709.299194 
z"/>
<path fill="#FCFBF7" opacity="1.000000" stroke="none" 
	d="
M659.928345,375.299011 
	C659.878662,375.621674 659.996155,375.862946 660.618713,376.314575 
	C661.434143,377.226135 661.911621,377.845886 662.389099,378.465637 
	C662.389099,378.465668 662.486572,378.533081 662.580811,378.718964 
	C662.675110,378.904846 662.962341,378.993652 662.986450,379.252258 
	C663.374146,380.092560 663.737854,380.674255 664.101501,381.255981 
	C664.101501,381.255981 664.101929,381.708923 664.419067,382.178467 
	C665.491455,387.874451 666.896118,393.099823 666.904785,398.327515 
	C667.040039,479.617981 666.958252,560.908813 667.058655,642.199341 
	C667.066895,648.848694 666.049377,655.044250 662.742737,660.819702 
	C662.742737,660.819702 662.839233,660.903870 662.572021,660.963989 
	C662.133057,661.358948 661.961304,661.693787 661.771606,662.043457 
	C661.753662,662.058289 661.707520,662.047974 661.707520,662.047974 
	C661.707520,662.047974 661.304871,662.193237 661.042114,662.525818 
	C660.378296,663.299438 659.977295,663.740417 659.576355,664.181458 
	C659.576355,664.181458 659.321838,664.308777 658.969360,664.596313 
	C651.079590,670.414246 642.590759,672.283813 633.321533,672.267395 
	C552.869873,672.125000 472.418030,672.098389 391.966217,672.125610 
	C382.889893,672.128723 374.578308,670.079895 367.147278,664.784119 
	C367.147278,664.784119 367.115143,664.882507 367.050415,664.588867 
	C366.216309,663.392151 365.446991,662.489075 364.677643,661.585999 
	C364.677643,661.585999 364.565338,661.375916 364.428772,661.221680 
	C364.292175,661.067383 364.107513,661.011169 364.028503,660.647461 
	C362.610229,654.219055 360.123230,648.157715 360.105194,642.089111 
	C359.865326,561.454346 360.016724,480.818542 359.910492,400.183228 
	C359.901550,393.384338 360.985443,387.040344 364.099365,380.697998 
	C370.975922,371.161743 380.787140,368.306793 391.356995,368.281097 
	C473.084991,368.082428 554.813904,368.004608 636.541382,368.260651 
	C643.093018,368.281158 649.636047,371.082245 656.183044,372.591217 
	C656.183044,372.591217 656.361572,372.734558 656.695862,372.964233 
	C657.996216,373.895630 658.962280,374.597321 659.928345,375.299011 
M605.793884,462.842224 
	C611.050659,453.237610 611.921875,443.476349 606.540833,432.870270 
	C601.540527,425.491577 593.792664,424.215149 585.883240,424.246643 
	C537.333618,424.440063 488.784302,424.793793 440.236176,425.232605 
	C434.350159,425.285828 428.707855,426.716339 424.345062,431.979034 
	C424.058075,432.377716 423.771088,432.776398 422.978821,433.698761 
	C421.663940,438.435791 419.231110,443.166809 419.205414,447.910797 
	C418.916809,501.208618 418.947296,554.508484 419.041199,607.807617 
	C419.053864,614.994324 421.885071,621.063538 429.051208,625.195618 
	C436.183899,629.086182 443.931732,628.781311 451.409576,627.426575 
	C461.548309,625.589844 466.675934,619.625671 467.307434,609.275757 
	C467.934906,598.991089 467.643646,588.653259 467.946960,578.344421 
	C468.067291,574.254517 468.703735,570.179810 469.591339,565.951843 
	C469.760681,565.668945 469.930023,565.386108 471.027374,565.034912 
	C476.665405,564.789673 482.301239,564.417419 487.941803,564.320862 
	C514.048706,563.873962 540.159851,563.626770 566.262817,563.021362 
	C572.951050,562.866211 579.165955,560.571960 582.333984,553.996643 
	C586.101501,546.177490 586.229248,537.945496 583.394104,529.808960 
	C581.482971,524.324280 577.601379,520.233093 571.842896,519.139587 
	C565.852234,518.001953 559.679810,517.443665 553.575623,517.348022 
	C527.795288,516.943909 502.010315,516.840454 476.228516,516.512573 
	C473.997101,516.484131 471.776306,515.617310 469.093018,514.525269 
	C468.733704,512.788391 468.079956,511.054260 468.063599,509.314148 
	C467.968292,499.176544 468.015533,489.037506 468.028717,478.898956 
	C468.037872,471.870422 468.936371,471.044312 476.137817,470.983917 
	C513.195190,470.673065 550.252563,470.358582 587.309448,469.996582 
	C593.382629,469.937286 599.179565,468.808807 604.306946,464.270538 
	C604.593140,463.903778 604.879333,463.537018 605.793884,462.842224 
z"/>
<path fill="#070D15" opacity="1.000000" stroke="none" 
	d="
M363.882416,380.954590 
	C360.985443,387.040344 359.901550,393.384338 359.910492,400.183228 
	C360.016724,480.818542 359.865326,561.454346 360.105194,642.089111 
	C360.123230,648.157715 362.610229,654.219055 363.747620,660.659424 
	C363.358704,661.048401 363.171753,661.061707 362.984802,661.075012 
	C361.323944,655.954102 358.234161,650.838318 358.215637,645.711487 
	C357.915680,562.595459 357.930328,479.477783 358.192291,396.361481 
	C358.208099,391.342255 360.895508,386.331451 362.884827,381.143677 
	C363.429871,380.970673 363.882416,380.954590 363.882416,380.954590 
z"/>
<path fill="#070D15" opacity="1.000000" stroke="none" 
	d="
M663.111755,660.857422 
	C666.049377,655.044250 667.066895,648.848694 667.058655,642.199341 
	C666.958252,560.908813 667.040039,479.617981 666.904785,398.327515 
	C666.896118,393.099823 665.491455,387.874451 664.586060,382.331421 
	C665.265808,382.713593 666.636108,383.286591 666.832947,384.132538 
	C667.729065,387.985046 668.887329,391.913513 668.892761,395.816162 
	C669.007935,478.384064 669.021606,560.952209 668.895630,643.520081 
	C668.886230,649.686646 668.670166,656.165771 663.111755,660.857422 
z"/>
<path fill="#161A20" opacity="1.000000" stroke="none" 
	d="
M367.125122,665.143433 
	C374.578308,670.079895 382.889893,672.128723 391.966217,672.125610 
	C472.418030,672.098389 552.869873,672.125000 633.321533,672.267395 
	C642.590759,672.283813 651.079590,670.414246 658.893188,664.716492 
	C658.630249,665.594177 658.319519,667.302979 657.515808,667.579773 
	C650.851990,669.874329 644.125488,673.616516 637.364807,673.729065 
	C600.750671,674.338684 564.121155,673.977783 527.497253,674.081543 
	C519.709229,674.103638 511.921143,674.971558 504.135925,674.928467 
	C465.958069,674.717224 427.779266,674.458496 389.605347,673.903015 
	C381.332306,673.782654 373.095978,672.325806 367.125122,665.143433 
z"/>
<path fill="#000000" opacity="1.000000" stroke="none" 
	d="
M364.099365,380.697998 
	C363.882416,380.954590 363.429871,380.970673 363.203552,380.984131 
	C368.271881,370.390808 378.041351,367.186707 388.600555,367.121277 
	C437.743439,366.816559 486.889191,366.987183 536.033936,366.985413 
	C571.184875,366.984192 606.338135,366.784485 641.484253,367.195068 
	C646.510010,367.253754 651.501282,370.256439 656.345825,372.243958 
	C649.636047,371.082245 643.093018,368.281158 636.541382,368.260651 
	C554.813904,368.004608 473.084991,368.082428 391.356995,368.281097 
	C380.787140,368.306793 370.975922,371.161743 364.099365,380.697998 
z"/>
<path fill="#070D15" opacity="1.000000" stroke="none" 
	d="
M327.341187,696.129883 
	C326.645111,695.949036 326.184052,695.457764 325.485962,694.870483 
	C324.453430,693.486755 323.657959,692.199036 322.749878,690.604370 
	C324.283569,692.138123 325.929871,693.978882 327.341187,696.129883 
z"/>
<path fill="#070D15" opacity="1.000000" stroke="none" 
	d="
M704.157471,350.100220 
	C705.298401,351.261322 706.341736,352.812164 707.498047,354.632263 
	C703.777039,355.564362 704.688110,352.407654 704.157471,350.100220 
z"/>
<path fill="#070D15" opacity="1.000000" stroke="none" 
	d="
M700.517700,344.081604 
	C700.911011,344.534576 701.041321,344.865448 701.265259,345.448029 
	C700.051941,344.519257 698.745056,343.338745 697.679688,341.841064 
	C698.699036,342.335724 699.476868,343.147614 700.517700,344.081604 
z"/>
<path fill="#070D15" opacity="1.000000" stroke="none" 
	d="
M702.992798,692.241211 
	C702.164307,693.867615 700.967285,695.401917 699.484497,697.099121 
	C700.340576,695.557739 701.482483,693.853394 702.992798,692.241211 
z"/>
<path fill="#070D15" opacity="1.000000" stroke="none" 
	d="
M688.295715,332.945923 
	C689.916016,333.835907 691.443970,335.089478 693.133728,336.639832 
	C691.598206,335.727570 689.900757,334.518555 688.295715,332.945923 
z"/>
<path fill="#000000" opacity="1.000000" stroke="none" 
	d="
M659.946045,374.906616 
	C658.962280,374.597321 657.996216,373.895630 656.801025,373.009552 
	C657.702515,373.388184 658.833191,373.951202 659.946045,374.906616 
z"/>
<path fill="#161A20" opacity="1.000000" stroke="none" 
	d="
M364.502319,661.931580 
	C365.446991,662.489075 366.216309,663.392151 367.099823,664.573486 
	C366.251648,663.993469 365.289307,663.135315 364.502319,661.931580 
z"/>
<path fill="#070D15" opacity="1.000000" stroke="none" 
	d="
M684.248901,330.006958 
	C685.186279,330.172913 686.057922,330.724731 687.089294,331.546509 
	C686.227112,331.341919 685.205139,330.867371 684.248901,330.006958 
z"/>
<path fill="#070D15" opacity="1.000000" stroke="none" 
	d="
M322.799744,689.937500 
	C322.084534,689.493774 321.480194,688.661560 320.780731,687.530518 
	C321.427307,688.004089 322.168976,688.776550 322.799744,689.937500 
z"/>
<path fill="#070D15" opacity="1.000000" stroke="none" 
	d="
M705.871765,688.153381 
	C705.901428,688.789734 705.550598,689.404846 705.016235,690.216553 
	C705.052185,689.652832 705.271790,688.892456 705.871765,688.153381 
z"/>
<path fill="#000000" opacity="1.000000" stroke="none" 
	d="
M662.540710,378.105774 
	C661.911621,377.845886 661.434143,377.226135 660.830322,376.339233 
	C661.366760,376.630035 662.029541,377.187988 662.540710,378.105774 
z"/>
<path fill="#161A20" opacity="1.000000" stroke="none" 
	d="
M659.916077,664.368774 
	C659.977295,663.740417 660.378296,663.299438 660.958618,662.722900 
	C660.843933,663.243591 660.549866,663.899780 659.916077,664.368774 
z"/>
<path fill="#070D15" opacity="1.000000" stroke="none" 
	d="
M702.644409,347.904907 
	C703.293030,348.141022 703.721863,348.696259 704.232910,349.505035 
	C703.684937,349.247070 703.054749,348.735565 702.644409,347.904907 
z"/>
<path fill="#070D15" opacity="1.000000" stroke="none" 
	d="
M664.348694,381.013397 
	C663.737854,380.674255 663.374146,380.092560 663.262878,379.254089 
	C663.699585,378.995026 663.883911,378.992737 664.068176,378.990479 
	C664.244080,379.583923 664.419983,380.177368 664.348694,381.013397 
z"/>
<path fill="#070D15" opacity="1.000000" stroke="none" 
	d="
M328.910736,698.033081 
	C328.518860,698.029907 328.139374,697.658569 327.598389,697.070251 
	C327.932312,697.123840 328.427734,697.394348 328.910736,698.033081 
z"/>
<path fill="#070D15" opacity="1.000000" stroke="none" 
	d="
M704.225830,690.693848 
	C704.289917,691.239685 704.025024,691.658203 703.550720,692.208984 
	C703.526489,691.749573 703.711670,691.158020 704.225830,690.693848 
z"/>
<path fill="#070D15" opacity="1.000000" stroke="none" 
	d="
M695.143250,339.103333 
	C695.553101,339.050720 695.925537,339.350677 696.430969,339.855896 
	C696.077942,339.859406 695.591858,339.657654 695.143250,339.103333 
z"/>
<path fill="#070D15" opacity="1.000000" stroke="none" 
	d="
M693.905029,702.149414 
	C693.935486,702.542480 693.617920,702.892029 693.104248,703.384521 
	C693.124451,703.053528 693.340759,702.579712 693.905029,702.149414 
z"/>
<path fill="#070D15" opacity="1.000000" stroke="none" 
	d="
M701.233887,346.017761 
	C701.630859,346.017456 701.949097,346.368500 702.406067,346.919769 
	C702.081543,346.869720 701.618347,346.619446 701.233887,346.017761 
z"/>
<path fill="#070D15" opacity="1.000000" stroke="none" 
	d="
M696.714966,340.855133 
	C696.907654,340.649414 697.163391,340.894653 697.232300,340.948486 
	C697.041565,341.021851 696.781921,341.041351 696.714966,340.855133 
z"/>
<path fill="#000000" opacity="1.000000" stroke="none" 
	d="
M663.868652,378.765533 
	C663.883911,378.992737 663.699585,378.995026 663.238770,378.995483 
	C662.962341,378.993652 662.675110,378.904846 662.600098,378.774994 
	C662.906372,378.610291 663.287720,378.575439 663.868652,378.765533 
z"/>
<path fill="#000000" opacity="1.000000" stroke="none" 
	d="
M657.732056,720.056274 
	C657.955200,720.057983 657.660583,720.436401 657.660583,720.436401 
	C657.660583,720.436401 657.218750,720.373840 657.140991,720.227783 
	C657.063293,720.081726 657.508850,720.054626 657.732056,720.056274 
z"/>
<path fill="#070D15" opacity="1.000000" stroke="none" 
	d="
M694.177551,337.948059 
	C694.405212,337.880035 694.724792,338.109344 695.165039,338.612854 
	C694.946960,338.673187 694.608215,338.459290 694.177551,337.948059 
z"/>
<path fill="#070D15" opacity="1.000000" stroke="none" 
	d="
M687.221375,332.007263 
	C687.462524,331.874329 687.795227,332.035004 688.275635,332.433502 
	C688.053284,332.547821 687.683044,332.424347 687.221375,332.007263 
z"/>
<path fill="#070D15" opacity="1.000000" stroke="none" 
	d="
M695.016724,701.222168 
	C695.095825,701.458496 694.881470,701.760010 694.407043,702.174072 
	C694.339111,701.953613 694.531128,701.620544 695.016724,701.222168 
z"/>
<path fill="#070D15" opacity="1.000000" stroke="none" 
	d="
M696.040100,700.257690 
	C696.119019,700.503113 695.899048,700.799011 695.418091,701.203735 
	C695.351685,700.977722 695.546448,700.642944 696.040100,700.257690 
z"/>
<path fill="#070D15" opacity="1.000000" stroke="none" 
	d="
M697.058594,699.262329 
	C697.147278,699.511780 696.934021,699.811157 696.464722,700.225586 
	C696.391296,699.997925 696.573914,699.655029 697.058594,699.262329 
z"/>
<path fill="#070D15" opacity="1.000000" stroke="none" 
	d="
M698.006470,698.220520 
	C698.109924,698.463196 697.918823,698.784485 697.472534,699.231567 
	C697.382202,699.004639 697.547058,698.651917 698.006470,698.220520 
z"/>
<path fill="#070D15" opacity="1.000000" stroke="none" 
	d="
M699.003906,697.215332 
	C699.087952,697.454529 698.878723,697.763062 698.407715,698.184814 
	C698.334106,697.960266 698.522400,697.622375 699.003906,697.215332 
z"/>
<path fill="#161A20" opacity="1.000000" stroke="none" 
	d="
M661.901978,662.234009 
	C661.707520,662.047974 661.753662,662.058289 662.078552,662.036987 
	C662.607422,662.021606 662.811340,662.027588 663.015198,662.033569 
	C662.708923,662.162354 662.402710,662.291199 661.901978,662.234009 
z"/>
<path fill="#070D15" opacity="1.000000" stroke="none" 
	d="
M662.994568,661.714966 
	C662.811340,662.027588 662.607422,662.021606 662.096497,662.022095 
	C661.961304,661.693787 662.133057,661.358948 662.559448,660.901245 
	C662.867310,660.984375 662.920654,661.190430 662.994568,661.714966 
z"/>
<path fill="#161A20" opacity="1.000000" stroke="none" 
	d="
M363.175629,661.268311 
	C363.171753,661.061707 363.358704,661.048401 363.826599,661.023132 
	C364.107513,661.011169 364.292175,661.067383 364.328979,661.156616 
	C364.032684,661.317688 363.699585,661.389648 363.175629,661.268311 
z"/>
<path fill="#07273F" opacity="1.000000" stroke="none" 
	d="
M409.683472,722.553833 
	C405.312012,722.855652 400.607300,722.916199 395.441345,722.889465 
	C399.770172,722.638977 404.560181,722.475769 409.683472,722.553833 
z"/>
<path fill="#0B111A" opacity="1.000000" stroke="none" 
	d="
M469.550598,515.139832 
	C471.776306,515.617310 473.997101,516.484131 476.228516,516.512573 
	C502.010315,516.840454 527.795288,516.943909 553.575623,517.348022 
	C559.679810,517.443665 565.852234,518.001953 571.842896,519.139587 
	C577.601379,520.233093 581.482971,524.324280 583.394104,529.808960 
	C586.229248,537.945496 586.101501,546.177490 582.333984,553.996643 
	C579.165955,560.571960 572.951050,562.866211 566.262817,563.021362 
	C540.159851,563.626770 514.048706,563.873962 487.941803,564.320862 
	C482.301239,564.417419 476.665405,564.789673 470.532318,565.036987 
	C470.037262,565.039001 469.976288,564.973633 470.167969,564.623413 
	C471.559418,563.841125 472.748169,563.068970 473.960724,563.029541 
	C486.410248,562.624939 498.861969,562.202271 511.316315,562.055603 
	C525.799683,561.885010 540.287048,562.065369 554.771057,561.922485 
	C559.563782,561.875183 564.407593,561.644836 569.127747,560.879395 
	C575.819458,559.794373 581.239563,556.434570 582.261902,549.190063 
	C583.019409,543.822083 583.404236,538.162842 582.522400,532.872131 
	C581.709595,527.995300 578.894165,523.344971 573.481445,521.813538 
	C569.072693,520.566223 564.504150,519.229553 559.982727,519.140808 
	C531.386292,518.579224 502.782715,518.387939 474.183655,517.936890 
	C472.429260,517.909241 470.693390,516.706909 469.110413,515.830566 
	C469.364838,515.453308 469.457733,515.296570 469.550598,515.139832 
z"/>
<path fill="#0B111A" opacity="1.000000" stroke="none" 
	d="
M428.480469,624.819275 
	C421.885071,621.063538 419.053864,614.994324 419.041199,607.807617 
	C418.947296,554.508484 418.916809,501.208618 419.205414,447.910797 
	C419.231110,443.166809 421.663940,438.435791 423.352173,433.666382 
	C423.834045,433.768494 423.942566,433.903015 423.999329,434.413177 
	C422.967926,439.612518 421.156494,444.432770 421.136627,449.260406 
	C420.927002,500.185608 421.120270,551.112549 420.886444,602.037537 
	C420.846954,610.637146 422.189880,618.166626 428.910187,624.133850 
	C428.662354,624.508728 428.571411,624.664001 428.480469,624.819275 
z"/>
<path fill="#0B111A" opacity="1.000000" stroke="none" 
	d="
M424.816925,431.827515 
	C428.707855,426.716339 434.350159,425.285828 440.236176,425.232605 
	C488.784302,424.793793 537.333618,424.440063 585.883240,424.246643 
	C593.792664,424.215149 601.540527,425.491577 606.453918,433.315796 
	C606.217468,433.861847 606.067932,433.962402 605.630920,433.896545 
	C600.277588,427.878601 593.714905,425.882751 586.184143,425.998657 
	C561.569031,426.377472 536.953003,426.747009 512.335938,426.938995 
	C491.850006,427.098785 471.361023,427.127930 450.875427,426.963684 
	C441.855621,426.891357 432.938751,426.700775 424.982239,431.983856 
	C424.927216,431.931671 424.816925,431.827515 424.816925,431.827515 
z"/>
<path fill="#0B111A" opacity="1.000000" stroke="none" 
	d="
M603.892334,464.518463 
	C599.179565,468.808807 593.382629,469.937286 587.309448,469.996582 
	C550.252563,470.358582 513.195190,470.673065 476.137817,470.983917 
	C468.936371,471.044312 468.037872,471.870422 468.028717,478.898956 
	C468.015533,489.037506 467.968292,499.176544 468.063599,509.314148 
	C468.079956,511.054260 468.733704,512.788391 469.321808,514.832520 
	C469.457733,515.296570 469.364838,515.453308 468.790619,515.643555 
	C467.542999,513.395996 466.169678,511.129395 466.114960,508.831360 
	C465.873016,498.671234 465.974915,488.501953 466.022949,478.336273 
	C466.054230,471.717651 468.783783,469.058594 475.506744,468.997162 
	C512.590576,468.658234 549.677368,468.491791 586.755371,467.829681 
	C592.174316,467.732880 597.551514,465.297180 603.169922,464.110657 
	C603.558655,464.357910 603.725525,464.438171 603.892334,464.518463 
z"/>
<path fill="#0B111A" opacity="1.000000" stroke="none" 
	d="
M469.105225,566.098145 
	C468.703735,570.179810 468.067291,574.254517 467.946960,578.344421 
	C467.643646,588.653259 467.934906,598.991089 467.307434,609.275757 
	C466.675934,619.625671 461.548309,625.589844 451.409576,627.426575 
	C443.931732,628.781311 436.183899,629.086182 428.765839,625.007446 
	C428.571411,624.664001 428.662354,624.508728 429.290710,624.203125 
	C434.885803,624.702576 439.936096,625.417847 445.002625,625.989319 
	C457.588715,627.408875 466.723053,617.459290 466.098572,604.862793 
	C465.579681,594.396301 465.809570,583.877686 466.132874,573.395325 
	C466.209991,570.895020 467.981171,568.446960 469.006226,566.005676 
	C469.039215,566.036438 469.105225,566.098145 469.105225,566.098145 
z"/>
<path fill="#0B111A" opacity="1.000000" stroke="none" 
	d="
M606.604309,433.631958 
	C611.921875,443.476349 611.050659,453.237610 605.428711,462.953796 
	C605.063599,463.065338 604.960815,462.961243 604.957397,462.572876 
	C608.636169,452.925934 609.433411,443.568420 605.918396,434.062988 
	C606.067932,433.962402 606.217468,433.861847 606.604309,433.631958 
z"/>
<path fill="#0B111A" opacity="1.000000" stroke="none" 
	d="
M605.114563,463.117798 
	C604.879333,463.537018 604.593140,463.903778 604.099609,464.394501 
	C603.725525,464.438171 603.558655,464.357910 603.342834,463.868042 
	C603.849487,463.292755 604.405151,463.127014 604.960815,462.961243 
	C604.960815,462.961243 605.063599,463.065338 605.114563,463.117798 
z"/>
<path fill="#0B111A" opacity="1.000000" stroke="none" 
	d="
M423.604797,433.404541 
	C423.771088,432.776398 424.058075,432.377716 424.580994,431.903259 
	C424.816925,431.827515 424.927216,431.931671 424.974182,432.281860 
	C424.697815,433.100555 424.374451,433.569031 424.051086,434.037537 
	C423.942566,433.903015 423.834045,433.768494 423.604797,433.404541 
z"/>
<path fill="#0B111A" opacity="1.000000" stroke="none" 
	d="
M470.068298,565.071106 
	C469.930023,565.386108 469.760681,565.668945 469.348267,566.025024 
	C469.105225,566.098145 469.039215,566.036438 469.101624,565.775757 
	C469.363007,565.226868 469.633759,565.046448 469.976288,564.973633 
	C469.976288,564.973633 470.037262,565.039001 470.068298,565.071106 
z"/>
<path fill="#07273F" opacity="1.000000" stroke="none" 
	d="
M470.167969,564.623413 
	C469.633759,565.046448 469.363007,565.226868 469.068604,565.744995 
	C467.981171,568.446960 466.209991,570.895020 466.132874,573.395325 
	C465.809570,583.877686 465.579681,594.396301 466.098572,604.862793 
	C466.723053,617.459290 457.588715,627.408875 445.002625,625.989319 
	C439.936096,625.417847 434.885803,624.702576 429.447601,623.983521 
	C422.189880,618.166626 420.846954,610.637146 420.886444,602.037537 
	C421.120270,551.112549 420.927002,500.185608 421.136627,449.260406 
	C421.156494,444.432770 422.967926,439.612518 423.999329,434.413147 
	C424.374451,433.569031 424.697815,433.100555 425.029236,432.334045 
	C432.938751,426.700775 441.855621,426.891357 450.875427,426.963684 
	C471.361023,427.127930 491.850006,427.098785 512.335938,426.938995 
	C536.953003,426.747009 561.569031,426.377472 586.184143,425.998657 
	C593.714905,425.882751 600.277588,427.878601 605.630920,433.896545 
	C609.433411,443.568420 608.636169,452.925934 604.957397,462.572876 
	C604.405151,463.127014 603.849487,463.292755 603.120911,463.701111 
	C597.551514,465.297180 592.174316,467.732880 586.755371,467.829681 
	C549.677368,468.491791 512.590576,468.658234 475.506744,468.997162 
	C468.783783,469.058594 466.054230,471.717651 466.022949,478.336273 
	C465.974915,488.501953 465.873016,498.671234 466.114960,508.831360 
	C466.169678,511.129395 467.542999,513.395996 468.629089,515.864075 
	C470.693390,516.706909 472.429260,517.909241 474.183655,517.936890 
	C502.782715,518.387939 531.386292,518.579224 559.982727,519.140808 
	C564.504150,519.229553 569.072693,520.566223 573.481445,521.813538 
	C578.894165,523.344971 581.709595,527.995300 582.522400,532.872131 
	C583.404236,538.162842 583.019409,543.822083 582.261902,549.190063 
	C581.239563,556.434570 575.819458,559.794373 569.127747,560.879395 
	C564.407593,561.644836 559.563782,561.875183 554.771057,561.922485 
	C540.287048,562.065369 525.799683,561.885010 511.316315,562.055603 
	C498.861969,562.202271 486.410248,562.624939 473.960724,563.029541 
	C472.748169,563.068970 471.559418,563.841125 470.167969,564.623413 
z"/>
</svg>